<svg xmlns="http://www.w3.org/2000/svg" width="638" height="298.622" viewBox="0 0 638 298.622"><path d="M156.541,560.706l-1.094-.246a249.021,249.021,0,0,1,485.626-.662l-1.093.249C614.158,446.667,514.79,367.482,398.335,367.482,283.406,367.482,181.717,448.744,156.541,560.706Z" transform="translate(-85.95 -264.344)" fill="#3f3d56"/><path d="M1043.593,481.182l1.682,12.335-11.775,1.121,1.682-15.139Z" transform="translate(-454.016 -210.644)" fill="#a0616a"/><path d="M974.823,364.916s1.121,15.139,1.121,15.7-7.85,39.249-7.85,39.249-11.214,21.307,0,20.746,7.85-20.185,7.85-20.185L987.72,387.9l-5.046-22.989Z" transform="translate(-440.757 -263.71)" fill="#a0616a"/><path d="M984.182,481.182,982.5,493.518l11.775,1.121L992.593,479.5Z" transform="translate(-431.612 -210.644)" fill="#a0616a"/><path d="M991.218,458.719l-2.8,3.925s-1.682,16.821,0,22.428,5.046,31.4,5.046,33.081.561,2.8,0,3.364-2.243.561-1.121,1.682,1.121,4.486,1.121,4.486v2.8l7.289,41.492s-4.486,5.046-1.121,5.046,15.7,0,15.139-5.607l-1.121-.561s-1.682-37.006-1.121-38.688,0-5.046,0-5.046-1.121-1.682,0-2.243,1.121-5.046,1.121-5.046l5.046-34.2s4.486,22.989,7.289,25.232,2.243,7.85,2.243,7.85l2.243,49.342s-2.243,5.607,0,6.728,11.775,5.046,12.335-.561,3.364-54.388,3.364-56.631-.561-3.364,0-5.046-.561-1.682,0-1.682-1.121-1.682-1.121-2.8V480.587s.561-5.607,1.121-6.728-.561-2.243,0-3.925-1.121-7.289-1.121-7.289l-25.232-6.728Z" transform="translate(-451.544 -303.686)" fill="#2f2e41"/><path d="M1016.518,682.719s2.8-2.8-1.121-2.8a18.251,18.251,0,0,0-7.289,1.682l-2.8,10.093s-11.494,9.252,1.4,8.13,10.934-.28,10.934-.28,3.925-1.121,4.486-2.243S1021,679.916,1021,679.916,1019.322,684.4,1016.518,682.719Z" transform="translate(-457.22 -402.089)" fill="#2f2e41"/><path d="M1066.24,682.719s-2.8-2.8,1.122-2.8a18.25,18.25,0,0,1,7.289,1.682l2.8,10.093s11.494,9.252-1.4,8.13-12.616-.28-12.616-.28-3.925-1.121-4.486-2.243,2.8-17.382,2.8-17.382S1063.436,684.4,1066.24,682.719Z" transform="translate(-482.831 -402.089)" fill="#2f2e41"/><rect width="4.992" height="197.172" transform="translate(160.439 99.486)" fill="#3f3d56"/><path d="M332.29,309.029c.318,68.946-48.19,125.063-48.19,125.063s-49.022-55.667-49.34-124.613S282.95,184.416,282.95,184.416,331.973,240.083,332.29,309.029Z" transform="translate(-120.792 -184.416)" fill="#d55b0f"/><rect width="386.323" height="81.862" transform="translate(126.438 215.029)" fill="#f2f2f2"/><path d="M203.5,330.53l42.053-88.03h335.86l31.4,88.03Z" transform="translate(-89.398 -106.53)" fill="#3f3d56"/><rect width="155.875" height="51.584" transform="translate(218.953 141.577)" fill="#f2f2f2"/><path d="M389.171,177.5,364.5,229.084H549.531L534.953,177.5Z" transform="translate(-160.125 -77.976)" fill="#3f3d56"/><rect width="123.074" height="65.602" transform="translate(232.691 231.289)" fill="#ccc"/><rect width="65.602" height="63.359" transform="translate(141.577 233.532)" fill="#ccc"/><rect width="33.922" height="59.434" transform="translate(377.071 237.457)" fill="#3f3d56"/><rect width="638" height="3" transform="translate(0 295.622)" fill="#3f3d56"/><rect width="3.294" height="130.112" transform="translate(100.873 166.561)" fill="#3f3d56"/><path d="M221.072,446.62c.21,45.5-31.8,82.528-31.8,82.528s-32.35-36.734-32.559-82.231,31.8-82.528,31.8-82.528S220.862,401.123,221.072,446.62Z" transform="translate(-86.506 -263.478)" fill="#9f4106"/><rect width="3.294" height="130.112" transform="translate(58.051 166.561)" fill="#3f3d56"/><path d="M144.7,446.62c.21,45.5-31.8,82.528-31.8,82.528s-32.35-36.734-32.559-82.231,31.8-82.528,31.8-82.528S144.49,401.123,144.7,446.62Z" transform="translate(-52.955 -263.478)" fill="#d55b0f"/><rect width="16.541" height="15.419" transform="translate(447.719 240.821)" fill="#3f3d56"/><rect width="16.541" height="15.419" transform="translate(469.867 240.821)" fill="#3f3d56"/><rect width="16.541" height="15.98" transform="translate(447.719 261.847)" fill="#3f3d56"/><rect width="16.541" height="15.98" transform="translate(469.867 261.847)" fill="#3f3d56"/><rect width="12.945" height="12.067" transform="translate(233.251 155.692)" fill="#3f3d56"/><rect width="12.945" height="12.067" transform="translate(250.584 155.692)" fill="#3f3d56"/><rect width="12.945" height="12.506" transform="translate(233.251 172.147)" fill="#3f3d56"/><rect width="12.945" height="12.506" transform="translate(250.584 172.147)" fill="#3f3d56"/><rect width="12.945" height="12.067" transform="translate(330.252 155.692)" fill="#3f3d56"/><rect width="12.945" height="12.067" transform="translate(347.585 155.692)" fill="#3f3d56"/><rect width="12.945" height="12.506" transform="translate(330.252 172.147)" fill="#3f3d56"/><rect width="12.945" height="12.506" transform="translate(347.585 172.147)" fill="#3f3d56"/><rect width="12.945" height="12.067" transform="translate(282.032 155.692)" fill="#3f3d56"/><rect width="12.945" height="12.067" transform="translate(299.365 155.692)" fill="#3f3d56"/><rect width="12.945" height="12.506" transform="translate(282.032 172.147)" fill="#3f3d56"/><rect width="12.945" height="12.506" transform="translate(299.365 172.147)" fill="#3f3d56"/><rect width="8.15" height="7.598" transform="translate(384.64 243.478)" fill="#f2f2f2"/><rect width="8.15" height="7.598" transform="translate(395.554 243.478)" fill="#f2f2f2"/><rect width="8.15" height="7.874" transform="translate(384.64 253.839)" fill="#f2f2f2"/><rect width="8.15" height="7.874" transform="translate(395.554 253.839)" fill="#f2f2f2"/><ellipse cx="2.5" cy="1.5" rx="2.5" ry="1.5" transform="translate(404 269.622)" fill="#f2f2f2"/><rect width="122" height="1" transform="translate(234 238.622)" fill="#f2f2f2"/><rect width="122" height="1" transform="translate(234 243.622)" fill="#f2f2f2"/><rect width="122" height="2" transform="translate(234 248.622)" fill="#f2f2f2"/><rect width="122" height="2" transform="translate(234 253.622)" fill="#f2f2f2"/><rect width="122" transform="translate(234 258.622)" fill="#f2f2f2"/><rect width="122" height="1" transform="translate(234 263.622)" fill="#f2f2f2"/><rect width="122" height="2" transform="translate(234 267.622)" fill="#f2f2f2"/><rect width="122" height="2" transform="translate(234 272.622)" fill="#f2f2f2"/><rect width="122" height="1" transform="translate(234 278.622)" fill="#f2f2f2"/><rect width="122" height="2" transform="translate(234 283.622)" fill="#f2f2f2"/><rect width="122" height="1" transform="translate(234 288.622)" fill="#f2f2f2"/><rect width="65.602" height="1.121" transform="translate(141.577 238.298)" fill="#f2f2f2"/><rect width="65.602" height="1.121" transform="translate(141.577 243.344)" fill="#f2f2f2"/><rect width="65.602" height="1.121" transform="translate(141.577 248.39)" fill="#f2f2f2"/><rect width="65.602" height="1.121" transform="translate(141.577 253.437)" fill="#f2f2f2"/><rect width="65.602" height="1.121" transform="translate(141.577 258.483)" fill="#f2f2f2"/><rect width="65.602" height="1.121" transform="translate(141.577 263.529)" fill="#f2f2f2"/><rect width="65.602" height="1.121" transform="translate(141.577 268.575)" fill="#f2f2f2"/><rect width="65.602" height="1.121" transform="translate(141.577 273.622)" fill="#f2f2f2"/><rect width="65.602" height="1.121" transform="translate(141.577 278.668)" fill="#f2f2f2"/><rect width="65.602" height="1.121" transform="translate(141.577 283.714)" fill="#f2f2f2"/><rect width="65.602" height="1.121" transform="translate(141.577 288.761)" fill="#f2f2f2"/><circle cx="45.5" cy="45.5" r="45.5" transform="translate(446 90.622)" fill="#d55b0f"/><path d="M883.191,215.11h-24.11V191H850.11v24.11H826v8.971h24.11v24.11h8.971v-24.11h24.11Z" transform="translate(-362.862 -83.906)" fill="#fff"/><circle cx="14.578" cy="14.578" r="14.578" transform="translate(532.385 27.755)" fill="#a0616a"/><path d="M998,274.523s2.243,11.214,2.243,12.9,9.532,6.728,9.532,6.728l10.653-13.457s-6.728-9.532-6.728-11.775Z" transform="translate(-456.083 -221.537)" fill="#a0616a"/><path d="M995.867,295.719s-4.887-1.3-6.368-3.454c0,0-15.5,15.229-15.5,18.032l12.335,21.867s0,7.85,1.121,8.41,0,0,0,2.243-3.364,16.821-2.243,19.064,2.243.561,1.121,3.925-3.925,21.307-3.925,21.307,10.093-3.364,24.671,2.243,31.96-2.243,31.96-2.243-4.486-10.093-3.364-13.457-2.8-9.532-2.8-9.532l-2.8-51.585s3.925-22.989,1.121-24.11l-5.607-2.243-17.956-2.207S1003.156,295.158,995.867,295.719Z" transform="translate(-445.54 -228.154)" fill="#d0cde1"/><path d="M978.631,323.916l-5.607,3.925s-2.8,8.41,0,12.335a28.754,28.754,0,0,1,3.925,9.532l11.214-1.121Z" transform="translate(-444.564 -245.698)" fill="#d0cde1"/><path d="M1014.825,332.916s-3.247,8.349-2.569,16.61a8.755,8.755,0,0,0,1.447,4.136h0l-39.779,18.885s-17.974,1.861-13.488,9.711,20.746-3.925,20.746-3.925S1023.8,372.165,1027.16,366s5.607-31.96,5.607-31.96Z" transform="translate(-439.266 -249.652)" fill="#a0616a"/><path d="M983.309,225.4l-2.529-1.012s5.287-5.821,12.644-5.315l-2.069-2.278s5.057-2.025,9.655,3.29c2.417,2.794,5.213,6.078,6.957,9.778h2.708l-1.13,2.489,3.956,2.489-4.06-.447a13.771,13.771,0,0,1-.384,6.446l.109,1.967s-4.707-7.282-4.707-8.294v2.531s-2.529-2.278-2.529-3.8l-1.379,1.772-.689-2.784-8.506,2.784,1.379-2.278-5.287.759,2.069-2.784s-5.977,3.29-6.207,6.074-3.218,6.327-3.218,6.327l-1.379-2.531S976.643,229.2,983.309,225.4Z" transform="translate(-447.477 -198.474)" fill="#2f2e41"/><path d="M1057.925,291.916h8.41s6.168,1.121,7.85,12.335,3.364,14.018,1.682,14.018S1054,317.708,1054,317.147,1057.925,291.916,1057.925,291.916Z" transform="translate(-480.684 -231.641)" fill="#d0cde1"/></svg>