<svg xmlns="http://www.w3.org/2000/svg" width="148.126" height="137.088" viewBox="0 0 148.126 137.088">
  <g id="undraw_celebrating_bol5" transform="translate(0 0)">
    <path id="Path_1003" data-name="Path 1003" d="M855.312,55s4.365-3.318,13.62,1.222,15.89.7,15.89.7l-1.048,15.191s-9.429,3.667-18.16-1.572-11.525,0-11.525,0Z" transform="translate(-738.115 -50.635)" fill="#de6d31"/>
    <path id="Path_1004" data-name="Path 1004" d="M394.3,222.176a51.192,51.192,0,0,1-32.128,47.5,50.118,50.118,0,0,1-5.307,1.8,51.491,51.491,0,0,1-27.439,0q-1.841-.511-3.625-1.154a50.529,50.529,0,0,1-7.821-3.592,51.168,51.168,0,0,1,22.78-95.664q1.184-.055,2.378-.054,1.312,0,2.61.065a51.155,51.155,0,0,1,48.551,51.1Z" transform="translate(-268.723 -148.489)" fill="#de6d31"/>
    <path id="Path_1005" data-name="Path 1005" d="M875.4,66.074a21.621,21.621,0,0,1-11.224-2.988c-3.529-2.117-6.454-2.817-8.694-2.079a4.571,4.571,0,0,0-2.71,2.3l-.454,1.091,1.816-17.968.047-.045c.154-.147,3.891-3.535,13.668,1.262,9.576,4.7,16.559.784,16.628.744l.284-.164-.022.327L883.622,64.72l-.1.04A24.962,24.962,0,0,1,875.4,66.074Zm-18.059-5.7a14.217,14.217,0,0,1,7.015,2.413c8.552,5.131,17.856,2.07,18.935,1.686l1.078-15.634c-1.418.683-8.014,3.371-16.674-.877-8.986-4.409-12.775-1.728-13.227-1.361l-1.6,15.876a5.028,5.028,0,0,1,2.51-1.8A6.258,6.258,0,0,1,857.339,60.374Z" transform="translate(-736.633 -43.335)" fill="#3f3d56"/>
    <path id="Path_1006" data-name="Path 1006" d="M320.073,238.69a54.564,54.564,0,0,1-14.6-1.98c-1.316-.365-2.615-.779-3.86-1.229a54.483,54.483,0,0,1,15.93-105.692c1.687-.079,3.473-.078,5.312.011a54.491,54.491,0,0,1,17.479,105,53.669,53.669,0,0,1-5.642,1.91A54.59,54.59,0,0,1,320.073,238.69Zm0-108.61c-.853,0-1.7.019-2.516.057a53.6,53.6,0,0,0-21.375,5.489,54.159,54.159,0,0,0,5.548,99.526c1.237.448,2.527.859,3.835,1.221a54.478,54.478,0,0,0,29.031,0,53.258,53.258,0,0,0,5.6-1.9,54.139,54.139,0,0,0-17.366-104.324C321.9,130.1,320.969,130.08,320.073,130.08Z" transform="translate(-246.704 -114.015)" fill="#3f3d56"/>
    <rect id="Rectangle_279" data-name="Rectangle 279" width="79.894" height="0.349" transform="translate(0 136.489)" fill="#3f3d56"/>
    <path id="Path_1007" data-name="Path 1007" d="M195.993,796.345l-.187-.07a10.931,10.931,0,0,1-7.03-13.037l.044-.2.187.07a10.931,10.931,0,0,1,7.03,13.037Zm-5.94-5.382a12.247,12.247,0,0,0,5.683,4.906,10.541,10.541,0,0,0-6.659-12.35A12.263,12.263,0,0,0,190.053,790.963Z" transform="translate(-182.345 -659.563)" fill="#3f3d56"/>
    <path id="Path_1008" data-name="Path 1008" d="M165.7,817.135a12.493,12.493,0,0,1,4.779,6.2,10.757,10.757,0,0,1-12.5-7.518A12.494,12.494,0,0,1,165.7,817.135Z" transform="translate(-156.831 -686.819)" fill="#de6d31"/>
    <circle id="Ellipse_157" data-name="Ellipse 157" cx="16.345" cy="16.345" r="16.345" transform="translate(43.442 9.152)" fill="#2f2e41"/>
    <circle id="Ellipse_158" data-name="Ellipse 158" cx="11.58" cy="11.58" r="11.58" transform="translate(51.61 18.469)" fill="#a0616a"/>
    <path id="Path_1009" data-name="Path 1009" d="M432.683,232.229s-1.716,13.725-7.935,16.513,17.156,1.287,17.156,1.287,0-12.438.858-12.867S432.683,232.229,432.683,232.229Z" transform="translate(-378.714 -199.607)" fill="#a0616a"/>
    <path id="Path_1010" data-name="Path 1010" d="M418.764,782.176l-.858,4.5s-12.009,7.077-6.219,9.007,12.867-8.364,12.867-8.364l-1.287-5.147Z" transform="translate(-367.369 -658.84)" fill="#a0616a"/>
    <path id="Path_1011" data-name="Path 1011" d="M513.283,512.7l9.436,10.079,25.949-18.014s-6-4.718-7.935-4.718S513.283,512.7,513.283,512.7Z" transform="translate(-453.524 -423.252)" fill="#a0616a"/>
    <path id="Path_1012" data-name="Path 1012" d="M822.709,164.019S825.5,144.5,830.43,146s-2.788,20.8-2.788,20.8Z" transform="translate(-711.91 -127.536)" fill="#a0616a"/>
    <path id="Path_1013" data-name="Path 1013" d="M404.731,314.659s-9.358-1.5-12.828,0-13.953,2.7-15.253,1.026-12.88,3.906-12.88,6.265,25.091,37.958,25.091,37.958,25.949-7.291,29.38-15.012c0,0-3-2.145-3-3.86a6.283,6.283,0,0,0-1.5-3.431,8.737,8.737,0,0,0-1.287-8.149C409.449,325.6,404.731,314.659,404.731,314.659Z" transform="translate(-328.673 -267.883)" fill="#d0cde1"/>
    <path id="Path_1014" data-name="Path 1014" d="M595.19,260.054l2.788-.643a24.133,24.133,0,0,1,11.581,7.506c4.718,5.79,12.867,7.72,12.867,7.72l9.865-26.807,8.149,2.788s-6.434,34.1-13.725,34.527-25.305-7.506-25.305-7.506Z" transform="translate(-521.92 -212.635)" fill="#d0cde1"/>
    <path id="Path_1015" data-name="Path 1015" d="M361.774,349.239s-4.5.214-4.5,4.075.643,17.156,4.5,22.946,7.291,18.872,7.506,19.086,4.289,27.235,4.289,27.235l6.862-.643-1.287-33.669L372.5,371.113Z" transform="translate(-323.245 -297.316)" fill="#d0cde1"/>
    <path id="Path_1016" data-name="Path 1016" d="M563.452,539.877A51.271,51.271,0,0,1,542.619,555.3l-1.084-2.361-4.213,4.154a51.49,51.49,0,0,1-27.439,0l-1.8-1.154,9.651-11.153a63.622,63.622,0,0,0,0-6.433c-.215-.857-3.03-8.642-3.03-8.642,9.78-.62,23.765-13.026,27-16.017.445-.412.688-.646.688-.646,18.013,2.572,20.587,23.589,20.587,23.589Z" transform="translate(-449.178 -434.111)" fill="#2f2e41"/>
    <ellipse id="Ellipse_159" data-name="Ellipse 159" cx="1.048" cy="2.183" rx="1.048" ry="2.183" transform="translate(50.495 28.287)" fill="#a0616a"/>
    <circle id="Ellipse_160" data-name="Ellipse 160" cx="6.81" cy="6.81" r="6.81" transform="translate(38.097 3.143)" fill="#2f2e41"/>
    <path id="Path_1017" data-name="Path 1017" d="M371.834,41.266a6.81,6.81,0,0,1,6.023-6.763,6.81,6.81,0,1,0,0,13.527A6.81,6.81,0,0,1,371.834,41.266Z" transform="translate(-334.086 -34.456)" fill="#2f2e41"/>
    <rect id="Rectangle_280" data-name="Rectangle 280" width="2.445" height="25.668" transform="translate(115.451 4.016)" fill="#2f2e41"/>
    <path id="Path_1018" data-name="Path 1018" d="M449.708,127.907s3.143,6.635,6.985,6.81,18.16-2.619,18.16-2.619l-4.715-9.778-12.572,1.572Z" transform="translate(-400.435 -107.826)" fill="#2f2e41"/>
  </g>
</svg>
