<svg xmlns="http://www.w3.org/2000/svg" width="90" height="63.871" viewBox="0 0 90 63.871"><g transform="translate(-1 -24.226)"><path d="M33.886,19.9H51.86V17H32.092l-8.71,17.419h3.246Z" transform="translate(10.108 7.226)" fill="#ffac79"/><path d="M31,21H48.419v2.9H31Z" transform="translate(13.548 9.032)" fill="#ffac79"/><path d="M39,25h2.9v2.9H39Z" transform="translate(17.161 10.839)" fill="#ffac79"/><path d="M35,25h2.9v2.9H35Z" transform="translate(15.355 10.839)" fill="#ffac79"/><path d="M31,25h2.9v2.9H31Z" transform="translate(13.548 10.839)" fill="#ffac79"/><path d="M52.092,25l-8.71,17.419h3.246L53.886,27.9H71.86V25Z" transform="translate(19.14 10.839)" fill="#ffac79"/><path d="M51,29H68.419v2.9H51Z" transform="translate(22.581 12.645)" fill="#ffac79"/><path d="M59,33h2.9v2.9H59Z" transform="translate(26.194 14.452)" fill="#ffac79"/><path d="M55,33h2.9v2.9H55Z" transform="translate(24.387 14.452)" fill="#ffac79"/><path d="M51,33h2.9v2.9H51Z" transform="translate(22.581 14.452)" fill="#ffac79"/><path d="M26.232,52.419h3.246L20.768,35H1v2.9H18.974Z" transform="translate(0 15.355)" fill="#ffac79"/><path d="M1,39H18.419v2.9H1Z" transform="translate(0 17.161)" fill="#ffac79"/><path d="M3,43H5.9v2.9H3Z" transform="translate(0.903 18.968)" fill="#ffac79"/><path d="M7,43H9.9v2.9H7Z" transform="translate(2.71 18.968)" fill="#ffac79"/><path d="M11,43h2.9v2.9H11Z" transform="translate(4.516 18.968)" fill="#ffac79"/><path d="M5,49H28.226V66.419H5Z" transform="translate(1.806 21.677)" fill="#ffac79"/><path d="M23,31H49.129V74.548H23Z" transform="translate(9.935 13.548)" fill="#ffac79"/><path d="M43,39H66.226V70.935H43Z" transform="translate(18.968 17.161)" fill="#ffac79"/></g></svg>