<svg xmlns="http://www.w3.org/2000/svg" width="70.453" height="64.05" viewBox="0 0 70.453 64.05"><g transform="translate(0.001 -27.81)"><path d="M58.984,91.86H11.468A11.45,11.45,0,0,1,1.552,74.685L25.31,33.535a11.451,11.451,0,0,1,19.833,0L68.9,74.685A11.45,11.45,0,0,1,58.984,91.86ZM35.226,31.1a8.077,8.077,0,0,0-7.066,4.08L4.4,76.33a8.16,8.16,0,0,0,7.066,12.239H58.984A8.16,8.16,0,0,0,66.05,76.33L42.292,35.181A8.075,8.075,0,0,0,35.226,31.1ZM63.947,76.516,41.039,36.838a6.713,6.713,0,0,0-11.627,0L6.5,76.516a6.713,6.713,0,0,0,5.814,10.069H58.134a6.712,6.712,0,0,0,5.813-10.069Zm-32.87-27.3a4.148,4.148,0,0,1,8.3,0V62.682a4.148,4.148,0,1,1-8.3,0Zm4.148,29.848a4.251,4.251,0,1,1,4.251-4.251A4.256,4.256,0,0,1,35.226,79.068Z" transform="translate(0)" fill="#ffac79"/></g></svg>