<svg xmlns="http://www.w3.org/2000/svg" width="78.117" height="78.117" viewBox="0 0 78.117 78.117"><path d="M397,113h5.187v11.392H397Zm0,0" transform="translate(-336.429 -95.759)" fill="#ffac79"/><path d="M73.9,73.54V33.21H60.571v8.62H65v6.51H60.571v25.2H55.994V18.115l-6.51-3.255V7.476H41.347V0H36.77V7.476H28.633V14.86l-6.51,3.255V73.54H17.546V56.35H13.121V49.84h4.425V43.33H13.121V36.82h4.425V25.378H4.221V73.54H0v4.577H78.117V73.54ZM36.465,48.34H31.887V41.83h4.577Zm0-19.529v6.51H31.887V28.811h4.577ZM31.887,54.85h4.577v6.51H31.887Zm14.342,6.51H41.652V54.85h4.577ZM41.652,48.34V41.83h4.577v6.51ZM46.229,35.32H41.652V28.811h4.577Zm0,0" fill="#ffac79"/></svg>