<svg xmlns="http://www.w3.org/2000/svg" width="102.049" height="102.048" viewBox="0 0 102.049 102.048"><path d="M71.952,42.055H59.993V59.692l-5.979-3.785V30.1H65.973V0h-29.9V30.1H48.035v25.81l-5.979,3.785V42.055H30.1V30.1H0v29.9H30.1V48.035h5.979V63.477l-2.989,1.892L51.024,77.327,68.962,65.369l-2.989-1.892V48.035h5.979V59.993h30.1V30.1h-30.1Zm-23.918-29.9h5.979v5.979H48.035Zm-29.9,35.876H12.158V42.055h5.979Zm65.773-5.979H89.89v5.979H83.911Z" fill="#ffac79"/><path d="M271,365.986v19.527l17.938-11.96V354.026Z" transform="translate(-216.986 -283.464)" fill="#ffac79"/><path d="M151,354.026v19.527l17.938,11.96V365.986Z" transform="translate(-120.904 -283.464)" fill="#ffac79"/></svg>