<svg xmlns="http://www.w3.org/2000/svg" width="255" height="242" viewBox="0 0 255 242"><g><g><g><path fill="#fff5e8" d="M156.843 130.795c2.532.754 4.824 1.548 7.173 2.089 1.181.27 2 .7 2.423 1.895-.57 1.237-1.58 1.817-2.869 2.279-2.737.98-5.441.798-8.255.483-1.865-.209-3.757.396-5.245 1.72-1.556 1.384-3.457 1.457-5.326 1.302-2.005-.168-2.688-1.96-1.536-3.65.112-.165.357-.303.367-.464.073-1.16.783-1.998 1.24-2.96.458-.967 1.231-1.675 1.625-2.626.326-.78.93-.887 1.67-.737.963.195 1.932.367 3.473.658l-1.753.661 2.613 1.788 3.926-2.466c-1.034-.266-2.377.8-2.82-.964 1.592-1.583 3.543-2.674 5.873-3.282-.412.444-.824.89-1.236 1.337.546 1.164.275 1.858-1.343 2.937zm11.949-73.822l-.66 1.543 2.888-.295.126.3-2.14 1.279-1.715-1.31c-.162.004-.324.008-.486.01.038.806-.099 1.833.824 2.114 1.528.464 2.52 1.443 3.393 2.68.215.308.655.457.988.684.749.51 1.1.043 1.394-.564 1.227-1.04 2.257-1.06 3.288-.013.417.425.752.93 1.336 1.661l-3.75-1.905c-.025.996-.043 1.62-.059 2.244 2.297 1.035 2.379 3.142 2.544 5.29l-1.549 1.062c.724-2.624-.652-4.445-1.854-6.32l-.001.044c-.989.188-1.644-.325-2.302-.981-1.051-1.047-2.06-2.222-3.316-2.941-.736-.421-1.267-.827-1.74-1.495-.568-.8-1.084-1.806-2.38-1.507l-1.188 1.542c.45.671 1.213 1.308 1.289 2.02.187 1.732 1.102 2.788 2.359 3.862.67.572 1.154 1.034 2.08 1.256.792.19 2.106.213 2.256 1.7-.468 0-.855-.011-1.244.002-1.66.056-3.37-.098-4.968.25-1.187.259-2.281.666-3.5.302-.131-.04-.322.12-.472.181.024.132.018.245.051.258.678.256 1.36.499 2.041.746 1.534.557 1.732.919 1.434 2.767l-1.132-.914-3.113 3.776-1.054-1.418c-.624.896-1.255 1.602-1.654 2.42-.652 1.329-2.12 2.363-1.578 4.193.052.174-.78.891-1.119.838-.583-.092-1.1-.592-1.71-.96l.917-1.557c-.945-1.247-2.01-1.236-2.889-.636.28 2.051 1.972 3.36 2.299 5.4-2.252-.065-2.805.442-3.702 3.18l.849 1.652-.28.422-3.368-.488c-.958 1.735 1.352 1.3 1.665 2.454-.38.132-.807.45-1.123.363-1.644-.45-3.164-1.156-3.447-3.094-.11-.759-.418-1.236-1.063-1.589-.316-.174-.579-.447-1.189-.933 1.878.109 3.33.186 4.78.28 1.651.11 2.945-.784 3.312-2.304.258-1.07-.601-2.208-2.12-2.782-1.134-.428-2.255-.904-3.416-1.24-.892-.257-1.839-.444-2.762-.449-1.06-.005-2.032-.006-2.468-.913l-3.04.252 1.158-1.589-3.413-1.28-.513 1.177c-.99-.553-1.908-.953-2.858.189-.26.31-1.012.211-1.508.295-.182 1.72-1.519 2.434-3.127 1.81l-2.033 1.934.277 1.344c-.378 1.635-.59 1.823-2.358 2.096-.302.65-.436 1.514-.939 1.905-1.353 1.054-1.861 2.595-2.63 3.98-.966 1.742-2.533 2.911-3.96 4.17-.98.867-2.286 1.492-3.552 1.879-2.428.74-2.88 2.51-2.904 4.662-.006.533-.116 1.079-.263 1.595-.313 1.104.938 1.975.432 3.102-.026.056.138.225.241.305 1.423 1.107 1.982 1.617 3.788.519 1.01-.615 2.045-1.193 3.122-1.818l2.479 6.529-1.15.806c-.282.105-.563.209-.846.312l-.047.022-.332 1.212c.455.33.837.61 1.22.887l.891-2.158c.51.374.896.818 1.377.976.74.242.961-.49 1.367-.92.297-.315.807-.61 1.217-.604 1.486.02 1.773-.988 1.977-2.099.073-.396.104-.81.084-1.212-.066-1.28.428-2.12 1.595-2.78.67-.378 1.048-1.272 1.572-1.952-.384-.5-.628-.812-.867-1.127-.463-.61-1.652-.68-1.464-1.745.218-1.236.417-2.527.946-3.642.377-.795 1.21-1.446 1.97-1.968 1.256-.86 2.006-1.802 1.982-3.465-.026-1.887 1.544-2.901 3.318-2.42 1.102.298 1.466 1.013.826 1.953a54.104 54.104 0 0 1-3.273 4.348c-.567.676-.888 1.219-.629 2.15.34 1.219.459 2.498.69 3.848 1.542 1.525 3.314 1.61 5.213.426.17-.106.37-.164.555-.25 1.73-.806 3.463-1.239 5.393.097-1.791.5-3.023 1.925-5.069 1.66-.931-.12-2 .646-2.968 1.093-.195.09-.22.547-.324.835l.343.712.045.055 1.129.456c-.175.914.56 2.049-.747 2.805-.353-.263-.707-.546-1.08-.8-1.059-.719-1.797-.57-2.186.62-.285.866-.335 1.83-.357 2.753-.014.588.215 1.182.32 1.7-.163.189-.27.38-.327.367-1.27-.304-1.59 1.302-2.544 1.328-.856.024-1.81-.781-2.574-.6-1.749.413-3.408 1.206-5.234 1.895l-1.142-1.575-3.641.813c-.543-.395-1.215-.693-1.598-1.207-.598-.801-.712-1.722.014-2.611.376-.463.647-1.013.966-1.524l.14-1.182.124-.786c-.8-.835-1.152.236-1.688.43-1.984.722-2.353 1.552-1.855 3.613.247 1.024.36 2.08.535 3.12-.384.235-.655.528-.956.562-1.05.12-2.116.249-3.164.186-1.198-.07-2.311.464-2.834 1.222-1.325 1.923-3.068 2.75-5.197 2.818-1.688 2.332-3.644 3.195-6.224 1.514l-.366 1.762c-1.72.037-3.05-1.471-4.785-.792-.276.952.176 1.531 1.046 1.802 2.012.627 2.324 2.666 3.398 4.064.171.222.156.685.068.99-.3 1.034-.62 2.071-1.033 3.064-.339.813-.994.976-1.85.69-2.615-.876-5.3-1.574-7.854-2.6-1.245-.501-2.297-.466-3.442-.157-.36 2.377-.077 4.854-2.152 6.588-.239.199-.407.925-.265 1.067.941.945.219 1.99.174 3.153 1.039.247 2.015.45 2.976.713 1.197.328 1.145 1.569 1.672 2.388.334.025.719.168.997.054 1.415-.581 2.803-.33 4.164.097 2.06.646 3.697-.243 5.31-1.319.384-.256.788-.483 1-.612.104-.76-.038-1.63.314-1.944.877-.785 1.942-1.393 3.007-1.92.576-.284 1.317-.221 1.968-.378 1.022-.245 1.94-.507 1.691-1.985-.123-.73 1.056-1.387 1.977-1.203.72.143 1.464.33 2.104.671.987.524 1.86.578 2.87.037.994-.533 2.074-.914 3.133-1.319.79-.302 2.568.6 3.012 1.572 1.113 2.429 3.277 3.512 5.49 4.7 1.903 1.022 4.341 1.599 5.028 4.334l-1.388 1.29c.723.283 1.37.325 1.892-.438.333-.483.771-.894 1.254-1.444-.226-.32-.58-.648-.698-1.046-.095-.321.096-.727.182-1.22l2.039.234c.098-.084.193-.172.284-.266-.765-.408-1.537-.801-2.29-1.229-.593-.338-1.565-.146-1.674-1.206-.011-.116-.434-.269-.666-.27-1.65-.001-2.582-.932-3.23-2.336-.183-.397-.533-.841-.915-1-1.482-.62-1.827-1.685-1.315-3.311l1.596-.632c.679.344-.04 2.295 1.63 1.25.106-.065.801.47.919.825.484 1.464 1.67 1.994 2.934 2.55 1.84.807 3.63 1.73 5.529 2.647-1.033 3.584 1.987 4.496 3.74 6.436-.266 1.396.507 2.149 2.93 2.488.233-.712.474-1.451.728-2.223h1.154c.581-.826.208-1.242-1.496-1.841-.45-.842-.822-1.533-1.328-2.475 1.142.135 1.886-.107 2.719-.768 1.06-.844 2.608-1.081 4.018-.146l-.219 2.52c.398-.212.681-.364.966-.514.269.804.237 1.138-.128 1.771.516.478.986.97 1.518 1.384.417.325.88.648 1.376.8 1.02.313 2.066.608 3.12.715.54.055 1.396-.139 1.632-.518.75-1.204 1.837-.929 2.695-.61 1.687.627 3.017.349 4.248-.9.26-.264.657-.442 1.022-.545.673-.191 1.371-.299 1.959-.42.103.776.258 1.622.316 2.475.04.587.025 1.2-.107 1.77-.246 1.051-.633 2.07-.895 3.119-.605 2.428-2.277 3.723-4.73 3.208-1.616-.34-2.939-.07-4.193.839-1.192.86-2.488.925-3.869.74-1.003-.134-2.016-.188-3.026-.277-1.8-.16-3.602-.306-5.4-.487-.324-.032-.688-.13-.942-.32-1.355-1.011-2.787-.812-4.249-.344-1.846.591-2.161 1.138-1.799 3.105-1.492 1.446-1.463 1.367-3.113.745-1.25-.471-2.591-.694-3.885-1.054-.63-.176-1.55-.228-1.811-.656-1.176-1.937-3.164-1.901-4.953-2.131-1.508-.194-2.9-.326-4.054-1.478-.377-.375-1.087-.416-1.964-.72.755-.663 1.35-1.071 1.796-1.603.695-.831-.313-1.297-.59-2.026l1-1.283c-.219-.053-.381-.09-.542-.134-.345-.093-.69-.18-1.031-.284-.493-.15-1.11-.586-1.453-.426-1.61.748-3.183.253-4.778.102-.65-.062-1.31-.013-1.966-.03-.534-.011-1.097.058-1.596-.084-3.252-.929-6.526-.856-9.817-.3-1.125.19-2.244.43-3.372.6a3.118 3.118 0 0 1-1.181-.058c-1.308-.32-2.64-.594-3.889-1.077-.634-.244-1.085-.93-1.664-1.355-.301-.22-.701-.308-1.057-.454-1.177 1.797-2.624 2.942-4.989 2.865-1.823-.058-3.457 1.656-3.56 3.458-.045.83-.408 1.218-1.027 1.568-1.33.75-2.79 1.18-4.26.875-1.024-.211-1.68-.033-2.322.7-.213.243-.539.527-.824.54-1.176.052-1.831.72-2.33 1.683-.11.215-.381.45-.608.484-1.548.236-2.167 1.769-3.42 2.432-.343.182-.694 1.135-.537 1.335.81 1.02.294 2.191.558 3.212.667 2.584-.984 3.95-2.356 5.542.128.75.527 1.649.35 2.415-.222.972.105 1.526.675 2.155.891.98 1.793 1.961 2.591 3.017 1.123 1.483 2.548 2.775 2.906 4.763.096.53.617 1.045 1.056 1.439a238.28 238.28 0 0 0 5.52 4.778c1.887 1.586 3.85 2.738 6.545 2.733 2.175-.004 4.465.531 6.494 1.348 1.971.792 3.85.78 5.867.762 3.16-.026 6.325.18 9.481.379 1.185.075 2.31.654 2.897 1.683.962 1.688 2.384 2.04 4.122 1.892.537-.045 1.09.061 1.623-.008 2.061-.267 3.351 1.009 4.861 2.277l-2.079 5.38c.038.052.183.394.44.586 1.563 1.17 3.072 2.441 4.75 3.42 2.163 1.263 2.995 3.601 4.638 5.265.111.112.176.416.104.54-.571 1.008.26 1.467.761 2.062.906 1.079.882 1.806-.419 2.363-1.64.7-2.216 2.134-2.858 3.512-.628 1.35-.147 2.31 1.117 3.233 1.527 1.116 3.004 2.302 4.46 3.51.268.22.325.691.49 1.043.79 1.697 1.38 3.493 3.263 4.446 1.673.846 3.25 1.888 4.842 2.885.223.139.489.616.41.765-.505.959.528 1.175.816 1.226 1.17.211 2.391.338 3.573.237a95.335 95.335 0 0 0 7.438-.921c2.517-.418 5.036-.888 7.495-1.553 3.664-.99 6.502-3.551 9.7-5.427.431-.253.884-.785.97-1.251.335-1.845 1.717-2.363 3.217-2.818a8.881 8.881 0 0 0 1.506-.603c1.253-.65 1.555-1.828.79-2.987-.288-.44-.606-.862-1.06-1.503 2.723-1.651 5.38-3.23 8-4.867a44.56 44.56 0 0 0 3.634-2.528c.666-.515.913-1.196.653-2.148-.315-1.156-.342-2.391-.506-3.691-2.005-.413-2.204-1.973-2.092-3.607l-1.29-.979c1.468-2.106 2.334-4.474 4.381-6.052.526-.405.94-.951 1.414-1.426 2.196-2.199 4.39-4.4 6.593-6.59.859-.855 1.75-1.677 2.614-2.526 3.09-3.037 4.334-7.142 6.148-10.894.533-1.102 1.112-2.595.196-3.975-1.518.928-2.916 1.833-4.363 2.652-1.812 1.023-3.764 1.826-5.469 2.998-1.637 1.127-3.108 1.57-4.846.18.14-.541.315-1.168-.647-1.421-1.878-.494-3.588-1.546-5.619-1.57-1.124-.014-2.05-.447-2.474-1.677-.322-.932-1.033-1.697-2.038-1.807-1.681-.186-2.304-1.23-2.511-2.692-.204-1.433-1.034-2.248-2.36-2.725-.522-.188-1.337-.599-1.358-.948-.063-1.014-.877-1.285-1.377-1.863-1.19-1.372-2.365-2.756-3.547-4.135-1.164-.355-1.873-1.217-2.3-2.463.444.308.875.64 1.337.92.726.441 1.474.847 2.211 1.269l.434-.538v-2.13c.546.956.88 1.535 1.211 2.115 1.543 1.198 3.076 2.41 4.633 3.588.513.388 1.055.77 1.642 1.024 1.29.558 2.33 1.263 2.69 2.764.29 1.215 1.08 1.902 2.436 2.063.737.088 1.44.641 2.111 1.061.848.53 1.632 1.163 2.47 1.71.807.524 1.382 1.034 1.578 2.154.2 1.135.96 2.21 1.64 3.199.203.295.993.363 1.453.26.57-.127 1.102-.502 1.604-.838 1.841-1.236 3.692-2.462 5.486-3.764 2.11-1.533 4.172-3.136 6.242-4.723.264-.203.603-.469.657-.753.315-1.672 1.636-2.554 2.898-3.195 1.73-.88 2.14-2.82 3.655-3.863.786-.54 1.114-1.749 1.779-2.874-.491-.705-.059-1.382.549-2.26.764-1.108 1.094-2.515 1.748-4.128-1.396-.11-2.438-.24-3.483-.26-.851-.016-1.827.378-2.521.075-.635-.277-.968-1.247-1.487-1.988-.146.254-.292.467-.401.698-1.11 2.346-2.443 4.445-5.01 5.513-1.124.47-1.505.424-1.836-.778-.131-.476-.322-.934-.487-1.4l-.453-.003-.669 2.094c-.456-.523-.812-.991-1.232-1.395-.361-.349-.755-.793-1.203-.898-1.56-.362-2.584-1.384-3.543-2.52 1.144-2.524 2.53-2.906 4.704-1.397.643.447 1.36.91 2.103 1.058.98.194 2.019.08 3.033.103 1.339.03 2.547-.34 3.547-1.243.58-.524 1.105-1.107 1.748-1.758.384.32.692.692 1.086.872.451.206 1.083.477 1.458.312 2.285-1.002 4.623-1.95 6.74-3.249 2.112-1.293 3.985-2.977 6.085-4.583 1.572 1.151 3.475.753 5.36.744l-.475 1.151c1.105 0 2.15.286 2.9-.063 1.293-.6 1.513-2.022 1.675-3.442.529.609.97 1.2 1.183 1.863.74 2.306 1.975 4.202 3.915 5.72 1.568 1.225 2.978 2.66 4.384 4.076.938.942 1.836.855 2.29-.397.18-.499.117-1.094.33-1.572 1.384-3.14.938-6.252.036-9.403-.207-.725-.234-1.63.008-2.33.541-1.565 1.125-3.088 1.424-4.746.513-2.846 1.286-5.645 1.896-8.476.109-.503-.078-1.064-.067-1.597.013-.648-.047-1.344.165-1.933.764-2.125 1.628-4.214 2.541-6.536.46.953 1.2 1.133 2.274.916.845-.171 1.682.413 1.981 1.384.141.463.22.945.362 1.566 1.493-1.402.483-3.266 1.38-4.89.504.842.88 1.467 1.253 2.092.888.216.982.998 1.202 1.69l.501-.015c-.132-.934-.204-1.881-.41-2.8-.321-1.43.064-2.442 1.35-3.24.483-.3 1.011-1.088.959-1.594-.358-3.408-.094-6.931-1.68-10.134-.12-.24-.278-.459-.407-.668-.67-.039-1.437.13-1.887-.173-.414-.277-.567-1.046-.691-1.629a98.284 98.284 0 0 1-.885-4.782c-.111-.678-.293-1.499.767-1.233-.316-1.133-.645-2.197-.906-3.276-.886-3.673-1.486-7.421-2.905-10.955-.226-.56-.346-1.164-.515-1.747-1.244-2.384-2.425-4.805-3.757-7.139-.826-1.448-1.878-2.767-2.837-4.139-.112-.161-.28-.418-.41-.41-2.069.113-2.312-1.741-3.182-2.914-.04-.052-.11-.08-.163-.119l-.096.095-.956 1.175c-.785-1.456-1.469-2.72-2.149-3.986-.095-.177-.148-.382-.268-.539-.908-1.187-1.5-2.46-1.154-4.006l-.592-.86 1.606-.596c-.454-1.244-1.052-2.106-2.347-2.38-.413-.087-.842-.416-1.126-.752-1.783-2.102-3.69-4.125-5.251-6.386-3.391-4.91-7.893-8.637-12.564-12.18-2.03-1.538-4.3-2.758-6.46-4.123-1.29.078-.558.72-.34 1.218 1.471.777 1.471.777 1.86 2.618-1.163-.538-2.06-1.214-2.759-2.16-2.85-1.807-5.705-3.607-8.545-5.432-.508-.327-.944-.762-1.422-1.137-2.854-2.239-5.586-4.666-8.614-6.638-1.753-1.14-3.989-1.538-6.002-2.285-1.323-.492-2.621-1.034-3.56-2.637 2.398.893 4.531 1.706 6.679 2.483 2.28.824 4.568 1.628 6.869 2.396.233.079.567-.144.855-.227l-8.61-3.859-.405-.177-2.811-.943c-2.061.48-3.842-.535-5.662-1.153-3.641-1.237-7.184-2.774-11.012-3.412-1.132-.189-2.257-.428-3.38-.658-1.126-.23-2.306-.333-3.353-.758-1.176-.478-2.133.218-3.17.236-2.11.035-4.28.003-6.262-.848-2.193-.943-4.39-.633-6.637-.34a4.698 4.698 0 0 0 1.647.58c.784.133 1.644.048 2.356.34 2.427.993 4.745 2.281 7.217 3.13 2.276.78 4.496 2.243 7.115 1.358.812.526 1.625 1.05 2.436 1.576l4.578 2.077c-.69 1.348-.682 1.438.527 2.156.637.378 1.329.664 1.973 1.03.455.26 1.141.515 1.242.899.143.546-.155 1.208-.258 1.778.62.895 1.232 1.772 1.839 2.652.817 1.186 1.926 1.775 3.383 1.724.387-.013.937-.049 1.145.174 1.038 1.117 1.986 2.316 2.966 3.486.528.524 1.614.128 2.045 1.215-1.61 1.622-3.732-.513-5.379.835l.152.98c.06.382.124.762.195 1.198.538.11 1.014.142 1.436.31.938.37 1.52 1.924.827 2.272-1.34.672-.956 1.508-.62 2.457.35.203 1.033.297.45.9-.606.625-.025 1.068.132 1.585l1.09 2.004-.395.283-1.9-2.295-1.283-.747-1.615-1.604a55.09 55.09 0 0 0-.314-.152l-.447-.342c-1.04-.16-2.078-.402-3.124-.454-.914-.047-1.64.187-1.807 1.41-.109.806-.747 1.49-1.87 1.15-.319-.098-.754.187-1.579.425 1.138.82 1.82 1.523 2.652 1.863 1.394.571 2.022 1.604 2.423 2.98l-.745.353c.445 1.839.8 3.706 1.387 5.498.188.574.95 1.01 1.53 1.387.408.267.951.329 1.594.534-.238.79-.377 1.51-.667 2.164-.767 1.727-.792 1.714.919 2.696.175.1.338.221.505.332.2.003.403.03.6.004 1.973-.265 3.763.054 5.192 1.605-.434.936-.954.368-1.398.04-.5-.37-.944-.815-1.412-1.227-.35.217-.675.526-1.056.633-.872.244-1.777.366-2.65.607-.094.027-.063.506-.09.775zm-5.968-15.147l-.03.025.033-.015-.003-.01zm-42.314 106.13l.024.028.015-.014a4.344 4.344 0 0 1-.04-.015z"/></g><g><path fill="#fff5e8" d="M125.835 2.07l.002.149h-.886l-.005-.15zM68.29 29.682l-1.174-1.487c1.196-.563 2.396-.627 3.709-.338-.413 1.561-2.074.542-2.535 1.825zM128.9.1c-3.856.026-7.723-.12-11.566.119-6.636.414-13.084 2.049-19.554 3.476-11.707 2.58-22.799 6.736-33.227 12.72-16.779 9.626-30.735 22.297-41.774 38.174-2.394 3.443-4.716 6.94-6.362 10.828-.155.419-.31.837-.463 1.256l-.374.758c-.696 1.866-1.398 3.732-2.085 5.602-.161.438-.272.893-.405 1.34l.545.035c.376.325.808.604 1.114.986.353.437.595.964 1.042 1.719 1.011-1.954 2.325-2.919 4.155-2.872l1.401 1.797c.452-.422.75-.827 1.15-1.032.295-.15.916-.196 1.063-.017.89 1.082 1.687 2.243 2.636 3.542-1.98-.038-1.98-.038-2.263 1.47 1.312 1.186 2.56 2.316 3.912 3.537l1.125-2.046-1.614-.287c.135-1.086.413-2.034.326-2.947-.137-1.444.615-2.293 1.648-2.978 1.37-.907 1.586-1.305 1.052-2.676-.482-1.235-1.185-2.269-2.915-2.53 1.275-.114 3.244.226 3.744.845.427.528.56 1.32.738 2.018.269 1.046.466 2.111.693 3.167.2.925.634 1.585 1.65 1.824.486.114.907.508 1.363.767.544.31 1.091.61 1.638.916.915-1.331 2.333-2.128 1.786-3.86-.056-.181.205-.486.36-.704.563-.79.623-1.69.779-2.618.239-1.434.404-3.2 1.31-4.136 1.82-1.876 2.917-4.18 4.454-6.203.427-.561.823-1.148 1.279-1.788-1.33-.491-2.552 1.115-3.642-.331.533-2.408 2.116-3.924 3.818-4.657.72-1.27 1.129-2.174 1.698-2.961 1.266-1.75 1.853-3.727 1.626-5.978-.197.014-.422-.03-.587.05-1.89.911-3.276 2.797-5.636 2.85-.318.007-.625.647-.93.998-.664.762-1.256 1.602-2.006 2.264-.531.47-1.284.975-1.92.953-.57-.02-1.117-.738-1.71-1.174-1.014.969-2.035 1.95-3.064 2.924-.496.469-.94.504-1.292-.25.111-.207.21-.462.37-.67.681-.892 1.674-1.584 2.295-2.393.803-1.047 1.702-1.816 2.703-2.588.451-.348.818-.919 1.016-1.463.876-2.394 2.357-4.368 3.986-6.288.952-1.123 1.657-2.454 2.5-3.673.255-.37.569-.714.908-1.009 1.013-.88 2.05-1.73 3.077-2.594 1.017-.859 2.171-1.364 3.518-1.202 1.293.156 2.083 1.186 2.751 2.083.867 1.162.717 1.273 2.234.955l.54.204.835-.007.384-.503.356.148-.787 2.646c.489.532 1.12 1.029 1.722.379 1.25-1.349 2.91-.967 4.413-1.253l.397-.398v-.626c.204-.342.436-.67.605-1.027.244-.518-.038-.724-.526-.766l-1.259.367c-.728 0-1.458.035-2.183-.014-.51-.035-.705-.314-.335-.78.81-.28 1.604-.62 2.432-.823.918-.226 1.6-.702 2.288-1.42l-1.29-.467c1.475-.35 2.545-1.022 3.664-1.682 1.512-.89 3.37-1.177 5.023-1.858.747-.309 1.316-.174 1.878.21 2.284 1.565 2.277 1.576 3.955-.452-.302-.272-.568-.71-.911-.782-.626-.132-1.297-.046-1.95-.052l-6.129-.232.307-.698c-1.067-1.622-2.147.998-3.188-.08 1.132-1.894 1.132-1.894 2.494-2.697l2.433-1.654c.006-.121.018-.241.035-.361-.045-.75-.084-1.433.826-1.828.59-.257 1.077-.778 1.578-1.218.982-.861 1.773-1.973 3.422-1.562.54.135 1.245-.397 1.875-.624l.818-.835c1.81-.73 3.663-1.371 5.412-2.223 1.214-.592 2.256-1.527 3.722-1.507.312.005.663-.108.936-.27 1.246-.738 2.436-1.578 3.712-2.259 1.76-.937 3.503-1.878 5.62-1.906 1.398-.02 2.803-.353 4.183-.647 2.965-.63 5.936-1.113 8.985-1.014 1.264.041 2.572.14 3.791-.114 3.115-.648 6.193-1.482 9.53-2.302l-1.687-.578-.014-.28 3.307-.469-.003-.403-4.792-.394C126.546.8 127.684.75 128.82.664c.04-.002.054-.367.08-.564zM66.835 37.367l.013-.016-.013.013zm-.408.406l.014-.012h-.003z"/></g><g><path fill="#fff5e8" d="M9.467 154.507c.258 1.11 1.305 2.024.97 3.44.361.338 1.029.716 1.325 1.286.928 1.789 1.597 3.717 2.592 5.464.923 1.621 1.992 3.21 3.257 4.572 1.453 1.565 2.434 3.381 3.518 5.168.833 1.373 1.726 2.745 2.8 3.928.892.983 1.15 2.13 1.391 3.297.418 2.014.13 2.337-1.945 2.822-.641.151-1.25.443-2.004.716.214 1.116.592 2.217.587 3.318-.004 1.083-.397 2.164-.668 3.477-1.875-1.042-2.811-2.562-3.993-3.793-.568-.59-.986-.831-1.686-.395-3.346-6.283-6.195-12.78-8.491-19.521-3.153-9.257-5.415-18.707-6.17-28.48-.306-3.977-.633-7.957-.75-11.943-.214-7.26.692-14.45 1.66-21.628.399 1.397.844 2.753.543 4.28-.174.88.12 1.843.145 2.771.05 2.016.023 4.033.108 6.046.033.798.224 1.602.439 2.376.63 2.268.853 4.573 1.083 6.916.393 3.986.346 8.053 2.22 11.841 1.341 2.707 2.142 5.678 2.395 8.753.11 1.335.423 2.654.644 3.98-.465.117-1.218-.033-1.036.77.056.247.695.363 1.066.54z"/></g><g><path fill="#fff5e8" d="M189.412 21.07c-2.855-2.239-5.586-4.666-8.614-6.637-1.753-1.142-3.989-1.539-6.001-2.286-1.324-.492-2.622-1.034-3.56-2.637 2.397.893 4.53 1.706 6.678 2.483 2.28.824 4.569 1.628 6.869 2.396.233.08.566-.144.854-.227 2.906 1.546 5.889 2.962 8.693 4.672 3.027 1.845 5.9 3.944 8.808 5.978.59.414 1.042 1.029 1.559 1.551-.178.155-.419.476-.52.437-.586-.228-1.14-.542-1.704-.826-.817-1.117-2.086-.915-3.3-.992l1.44.99.003-.009c-1.289.078-.557.72-.338 1.218l-.9.459"/></g><g><path fill="#fff5e8" d="M15.58 67.431c-.697 1.866-1.398 3.732-2.085 5.602-.161.438-.272.893-.404 1.34-1.357 1.837-2.489 3.777-2.76 6.105l.005-.009-.414.826.009-.015-.384.757c-.676 1.2-1.289 2.358-.82 3.866.27.87-.1 1.723-1.205 1.927l-.486-.472c.8-2.617 1.42-5.306 2.443-7.833 1.434-3.54 3.145-6.968 4.793-10.417.298-.625.865-1.121 1.308-1.677z"/></g><g><path fill="#fff5e8" d="M252.653 125.191c.394-.687.99-.552 1.591-.391l.074 5.702-.446.78c-.197.023-.492.138-.574.051-1.019-1.06-2.159-1.297-3.806-.073.182-1.944.582-3.166 1.69-4.091.656-.547 1.548-.894 1.47-1.978z"/></g><g><path fill="#fff5e8" d="M7.036 87.358l.486.472-1.685 8.5.019-.016-1.218-.392c.15-.929.298-1.858.446-2.789.256-.265.658-.49.742-.802.414-1.52.743-3.062 1.103-4.597.026-.128.062-.253.107-.376z"/></g><g><path fill="#fff5e8" d="M6.929 87.734c-.36 1.535-.689 3.077-1.103 4.597-.084.312-.486.537-.742.802.254-1.446.444-2.91.8-4.331.105-.417.683-.715 1.045-1.068z"/></g><g><path fill="#fff5e8" d="M16.417 65.417c-.155.419-.31.837-.463 1.256"/></g><g><path fill="#fff5e8" d="M253.872 131.283l.446-.781c-.005.264-.01.528-.013.793z"/></g><g><path fill="#fff5e8" d="M177.03 10.303l-.407-.177"/></g><g><path fill="#fff5e8" d="M84.712 69.494l1.785 1.853c-1.475.39-2.831.976-4.213 1.05-1.365.073-2.889-.091-4.105-.658-1.765-.821-3.185-.46-4.755.334-1.893.958-3.782 1.175-5.706-.169-.536-.374-1.495-.138-2.26-.18-.858 1.583-2.345 2.297-3.928 2.925-.723.285-1.395.717-2.055 1.138-1.403.894-2.783 1.824-4.441 2.918-.187-.803-.393-1.288-.394-1.772-.002-1.132.287-2.243-.444-3.338-.236-.352.033-1.185.283-1.694 1.45-2.94 2.875-5.87 5.11-8.373 1.183-1.324 2.115-2.886 3.625-3.89 1.052-.7 2.174-1.31 3.319-1.846.192-.09.66.407 1.197.764l2.118-1.241-1.5-.844c-.527-1.01.74-2.023 3.229-2.692l.368 2.032c.424-.784 1-1.428.863-1.675-.433-.78.66-1.359.133-2.077-.045-.063.244-.464.45-.6.894-.589 1.785-1.193 2.732-1.688 2.13-1.113 4.087-2.432 5.706-4.239.435-.486 1.173-.707 1.588-1.204 1.208-1.44 1.47-2.988-.055-4.628l3.28-2.323 1.435 1.595c-.29-1.566.714-2.295 1.684-2.957.74-.506 1.475-.258 2.242.252.922.612 1.828 1.488 3.126 1.099.442-.133 1.025-.18 1.28-.488.99-1.188 2.386-.987 3.37-.566 1.505.644 2.747.168 4.093-.163l-.026-.016c.863.578 1.815 1.06 2.563 1.76.706.66 1.495.444 2.027.182 1.474-.729 2.737.335 4.11.273.2-.008.643.507.598.681-.285 1.085-.53 2.225-1.08 3.178-.41.71-1.315.48-2.048.21-.174-.065-.38-.049-.87.267l1.069 1.289.34-.364-.353 1.839c.61-.14.92-.294 1.204-.255.408.056.796.253 1.192.39-.171.39-.256 1.038-.53 1.131-1.695.574-2.911 2.43-5.027 1.905-.17-.042-.424.25-.776.473l1.18.316c-1.458.897-2.82 1.654-4.093 2.54-1.602 1.117-2.178 2.781-2.09 4.84-.404-.046-.71-.042-.995-.121-1.601-.445-1.676-.353-1.733 1.348-.019.575-.348 1.138-.534 1.707-.556.145-1.137.23-1.664.446-.855.35-.776.796-.018 1.212-.55 1.62-.55 1.62-2.452 1.072.027.481.228 1.057.026 1.388-.164.27-.802.283-1.24.35-.327.051-.668.009-1.004.008-.187-.45.333-1.16-.703-1.477l.702 1.479c-.098 1.266-.584 2.212-1.988 2.4l-.158-1.285-.348.07.429 1.278c-.054 1.557-.752 2.82-1.71 3.958-1.56-.58-1.576-.585-1.27-1.896.123-.521.427-1.048-.34-1.32-1.12.2-2.382-.747-3.392.428l.224 1.66z"/></g><g><path fill="#fff5e8" d="M66.834 36.738c.204-.342.436-.67.605-1.027.244-.518-.038-.724-.525-.766 1.164-.357 1.993-1.118 2.813-2.014 2.077-2.27 4.792-2.778 7.713-2.34.419.063.975.574 1.09.984.19.673-.267 1.137-1.012 1.201-.168-.108-.337-.216-.505-.326-1.329-.41-2.4-.19-3.603.758l3.553-.276c.097.056.198.101.305.136.182 1.411-.172 2.707-.855 3.928a.552.552 0 0 0-.174.17l-1.287.955c-.555-.772-.73-1.488.306-2.02l.884-.71-.25-.276-.917.618c-.628.053-1.255.107-2.144.181.427.675.748 1.025.88 1.435.12.376.036.817.042 1.229-.502.433-1.042.83-1.498 1.308-.439.462-.796 1.003-1.181 1.515-1.226 1.636-2.276 3.458-3.741 4.838-.75.706-1.754 1.925-3.304 1.16l-3.644 7.295-4.309.422a9157.28 9157.28 0 0 0 2.905-4.257c-1.831.38-2.524 1.357-3.153 2.53-.83 1.552-1.86 2.945-3.84 3.353l-.274-1.288-1.516 1.352c.395-2.47.259-5.036 2.624-6.67.73-.503 1.254-1.434 1.631-2.278.246-.55.11-1.3.049-1.95-.134-1.404.313-1.901 2.042-2.013l.26 2.498c.985-.695 1.845-.973 2.906-.591.467.168 1.139-.234 1.718-.376 1.438-1.001 3.11-1.827 2.971-3.998l.005-.004c.12.016.241.023.363.022l1.824-1.618-1.396-.159.009-.2h2.352L66.44 37.76l-.015.012.422-.422-.013.016z"/></g><g><path fill="#fff5e8" d="M97.313 27.285l.8-.108 1.056.074a.292.292 0 0 1 .216.061c.52.1 1.04.203 1.562.304l.485.082.974.72-.595.4c-1.659-.148-3.149.312-4.581 1.207.251.454.442.86.689 1.227.275.406.602.776 1.107 1.42l.27-2.297c1.174.185 2.075-.03 2.512-1.139.4-.014.804.003 1.2-.05.316-.04.622-.166.928-.252 1.163.914 1.766 2.302 3.229 2.844.815.303.931 1.221.473 2.07-.818 1.513-2.227 2.024-3.793 2.285l.027.016c-.724-.502-1.421-.635-2.385-.538-1.506.153-3.066-.3-4.602-.3-1.1-.002-1.974-.272-2.704-1.13-.721.216-1.416.441-2.12.625a1.792 1.792 0 0 1-.799.033c-1.017-.222-2.017-.623-3.04-.688-1.022-.064-2.063.222-3.1.29-.204.012-.429-.275-.67-.442l1.741-3.962 1.721-.38c.632.912 1.418.238 2.223.159l.326 1.068 1.165-.878 2.603 1.18c-.789-1.377-.789-1.377-2.522-1.615a.593.593 0 0 1 .035-.344l.707-.823h.001l1.229-.368.03-.016c.576-.023 1.152-.044 1.73-.065.12.023.222.08.305.17l.368.03.368-.573.83-.297z"/></g><g><path fill="#fff5e8" d="M90.401 105.636c.485-.623.97-1.248 1.448-1.865l2.656.294-.024-.024-1.072 1.797 2.6.97-2.003 2.473 3.32 7.379-.22.072c.611.56 1.552 1.04 1.72 1.712.118.477-.807 1.214-1.326 1.913l.328.737c-.194.118-.365.312-.534.311-1.405-.005-2.881.217-4.2-.136-2.144-.575-4.282-.212-6.836-.435l3.51-2.006-1.827-1.336 1.886-.81-.214-1.864 2.086.213c.59-1.932.143-2.722-1.967-3.493l.782-1.833c-.472.103-.852.312-1.087.204-.318-.145-.525-.534-.78-.819.446-.437.572-.806.595-1.769.786-.287 1.311-.753 1.16-1.685z"/></g><g><path fill="#fff5e8" d="M194.381 209.334c-.684 1.09-1.275 1.931-1.764 2.828-1.549 2.835-2.985 5.735-4.61 8.525-1.17 2.009-3.294 2.685-5.403 3.24-.667.176-1.477.162-1.733-.627-.266-.818-1.004-1.734.034-2.57.105-.084.191-.19.295-.279 1.233-1.065 2.02-2.23.823-3.722.608-1.499 1.648-2.322 2.955-3.033 1.524-.828 3.013-1.826 4.263-3.017 1.172-1.116 2.011-2.582 3.043-3.954 1.74.067 1.687 1.574 2.097 2.609z"/></g><g><path fill="#fff5e8" d="M81.878 16.238l.818-.836 1.696.808-.462.42-.454.355-1.01.516.212.314.872-.755.364-.447.815-.4c.955-.947 2.084-.607 3.192-.432l1.198.059.062.045.014 1.595c-1.137.537-2.381.928-3.379 1.657-.826.603-1.445 1.44-2.63 1.455.312.016.625.049.936.044.673-.009 1.129.377.926.964-.118.343-.918.798-1.189.682-1.625-.697-3.18.083-4.76.09-1.775.007-3.014 1.362-4.53 2.037l-1.58-.836 1.511-1.286.867-.744c.283-.24.69-.425.828-.73.82-1.81 1.961-3.138 4.074-3.485.58-.095 1.075-.712 1.609-1.09z"/></g><g><path fill="#fff5e8" d="M77.63 84.482c1.225-.87 1.225-.87.465-2.519l1.825-.408-1.829-1.274 2.459-1.307c1.1.728.775 1.692.64 2.324 1.041.119 1.975.127 2.85.356.764.201 1.411.713 2.31.356.256-.102 1.015.327 1.08.616.224 1 .561 2.162.24 3.038-.257.705-1.34 1.355-2.17 1.548-1.427.333-2.948.422-4.415.346-.624-.032-1.274-.67-1.804-1.153-.58-.527-1.034-1.19-1.652-1.923z"/></g><g><path fill="#fff5e8" d="M158.757 69.49c-1.59 1.561-3.15 1.063-4.753.566-1.193-.37-1.862-.79-1.762-2.332.081-1.23-.848-2.496-.946-3.774-.156-2.047-1.55-3.862-1.057-5.989.235-1.011.125-2.134 1.128-2.913.344-.268.427-.942.512-1.451.084-.502.019-1.028.019-1.587 1.278-.221 1.898.273 1.947 1.315.034.72-.066 1.5-.324 2.172-.736 1.914-.63 3.815-.187 5.753.21.915.348 1.847.506 2.774.43 2.528 1.67 4.37 4.266 5.082.174.047.324.187.651.384z"/></g><g><path fill="#fff5e8" d="M121.332 57.694c-1.666-.543-1.635-.538-1.379-2.02.145-.839.17-1.699.241-2.465.928-.745 2.116.43 2.865-.636.074-.104.433.023.558-.08 1.804-1.496 2.275-1.564 4.501-.525-.06 1.064-.236 2.075-1.33 2.695l-2.498-.606 1.421 2.448-.525.282c-.278.424-.654.814-.812 1.278-.467 1.375-.848 2.78-1.334 4.414-.858-1.051-2.108-1.637-1.52-3.244.116-.316-.119-.76-.192-1.144l1.704-.938-1.092-.515z"/></g><g><path fill="#fff5e8" d="M82.353 113.25c-.51-.935-.494-1.807.234-2.657l1.529.306c1.44-1.735 2.12-1.864 3.91-.768.88.539 1.146 1.784.323 2.305-.713.45-.76.996-.912 1.646-.397 1.699-.841 2.012-2.644 2.093-.674.03-1.343.133-2.016.194-.823.075-1.682.141-2.082-.791-.412-.962.45-1.27 1.003-1.72.156-.129.298-.275.655-.608z"/></g><g><path fill="#fff5e8" d="M30.37 81.603c1.443-.594 2.967-1.27 4.53-1.842.614-.225 1.342-.298 1.744.772l-2.062.96c-.019.923-.128 1.917.107 3.037.185.88-.628 2.012-1.105 2.978-.383.775-.276 1.965-1.602 2.095-.68-.757.163-1.476.146-2.262-.46-.17-.873-.32-1.389-.51 1.7-1.898-.747-3.325-.368-5.228z"/></g><g><path fill="#fff5e8" d="M87.914 29.656l-1.72.38c-1.59-.689-2.677.012-2.753 1.776-.107 2.473-1.331 3.378-3.911 2.763.286-2.071.84-4.037 2.4-5.54.382-.368 1.074-.416 1.623-.611l1.204-.023c1.842-.163 2.907-1.75 4.465-2.43l-.025.006.706.551c-.505 1.161-2.558 1.366-1.989 3.128z"/></g><g><path fill="#fff5e8" d="M145.927 36.057c1.107.156 1.887.297 2.672.367.653.058 1.317.08 1.97.03a11.39 11.39 0 0 0 3.83-.947c1.532-.676 2.252-.13 2.811 1.477.12.346.285.676.544 1.28l-2.26-.826c-2.643 2.888-7.717 1.757-9.567-1.381z"/></g><g><path fill="#fff5e8" d="M89.195 17.48l-.014-1.595.817.159-.49-1.533c.377-1.152 1.541-.95 2.544-1.243 1.183-.348 2.028-.22 2.846.702.33.371.88.545 1.323.805-1.27 1.554-4.814 2.93-7.026 2.705z"/></g><g><path fill="#fff5e8" d="M89.21 22.316c-.56-.049-.977-.266-.668-.894.38-.775.809-1.537 1.307-2.24.213-.302.627-.535.996-.639 1.065-.3 2.154-.517 3.566-.844l1.768 1.39-4.236 1.4 1.856.816-3.351 1.02-1.238-.009z"/></g><g><path fill="#fff5e8" d="M58.974 36.148l.54.204.34.753.495-.76.384-.504.356.149-.788 2.645c-.594-.105-1.187-.212-1.931-.346l-4.547 4.872c-.44-1.42.668-1.858 1.066-2.765l-.937-1.038 1.639-2.014c1.065-.18 2.516.14 3.383-1.196z"/></g><g><path fill="#fff5e8" d="M81.086 28.026c-.302-.272-.568-.71-.912-.782-.625-.132-1.296-.046-1.948-.052-.34-.162-.706-.285-1.012-.496-.377-.26-.704-.594-1.275-1.09l5.258-2.435 1.656 1.005c-.3 1.905-.388 1.953-2.177 1.93-.559-.007-1.12.192-1.683.599.598.054 1.212.042 1.791.18.698.165.86.586.302 1.141z"/></g><g><path fill="#fff5e8" d="M89.21 22.316l1.238.01.663 1.159-1.914 2.492.025-.007H86.71c-.6.561-.186 1.539-1.17 1.424l.028-.91c-.502-1.658-.428-1.69.976-2.134 1.102-.35 2.135-.917 3.49-1.516z"/></g><g><path fill="#fff5e8" d="M249.534 117.453l1.482 2.648 1.38-1.126c.26.86.588 1.534.644 2.23.084 1.009.521 2.188-.773 2.85-.72-.822-1.005-2.008-2.312-2.367-.314-.087-.356-1.16-.523-1.78l-.308-.916-.208-1.085.118-.44z"/></g><g><path fill="#fff5e8" d="M236.221 146.493c2.345-.12 3.147.9 2.312 2.868-.273.64-.694 1.219-1.09 1.897-1.34-1.48-1.426-1.839-1.222-4.765z"/></g><g><path fill="#fff5e8" d="M114.021 117.008c-.542-.395-1.215-.693-1.597-1.207-.598-.801-.712-1.722.014-2.611.376-.463.647-1.013.966-1.524.2.276.54.54.569.831.051.54.213.837.777.84l-.332 1.21 1.22.888-1.617 1.573z"/></g><g><path fill="#fff5e8" d="M157.775 19.905c.813.276 1.682.45 2.423.858.734.405 1.338 1.046 2.16 1.715-.425.246-.78.612-1.157.636-.795.052-1.643.06-2.393-.167-.759-.23-1.27-1.987-1.069-3.069z"/></g><g><path fill="#fff5e8" d="M64.4 41.428c.138 2.171-1.534 2.997-2.972 3.998.657-1.136-.47-1.626-.922-2.29 1.106-1.684 1.543-1.812 3.169-1.042z"/></g><g><path fill="#fff5e8" d="M137.996 45.895l-.827-1.276.239-.332c1.22.517 2.484 1.391 3.499-.618 1.06 1.814-.232 3.097-.247 4.59-.79-.061-1.4-.032-1.057-1.023.134-.385.574-.942-.37-.912-.095-1.06-.825-.282-1.237-.429z"/></g><g><path fill="#fff5e8" d="M123.337 83.272c-.378 1.635-.59 1.823-2.359 2.096-.736-1.067-1.51-.045-2.403-.302l1.981-.99c-.644-1.343.747-1.418 1.13-1.976l1.65 1.172z"/></g><g><path fill="#fff5e8" d="M101.808 29.236c-.437 1.11-1.337 1.324-2.512 1.139l-.27 2.296c-.505-.643-.832-1.013-1.107-1.42-.247-.366-.438-.772-.69-1.226 1.433-.895 2.924-1.355 4.582-1.207z"/></g><g><path fill="#fff5e8" d="M4.908 106.186c-.691-2.446-.357-4.93-.101-7.407.014-.132.383-.228.534-.31v7.72z"/></g><g><path fill="#fff5e8" d="M98.796 24.228c-1.612 1.063-3.319 1.598-5.33 1.272-.067-.474-.42-1.023.543-.976.25.012.636.134.73.019 1.22-1.501 2.686-.417 4.057-.315z"/></g><g><path fill="#fff5e8" d="M96.522 18.886c.383-1.011.203-2.49 2.192-2.2.168.827 1.077 1.626.093 2.61-.625.625-.629.629-2.285-.41z"/></g><g><path fill="#fff5e8" d="M84.712 69.494h-1.618l-.224-1.66c1.01-1.176 2.271-.23 3.391-.43l-1.549 2.09z"/></g><g><path fill="#fff5e8" d="M125.186 56.787l.525-.282 2.11 2.22-.645 1.313-1.359-.364-.631-2.887z"/></g><g><path fill="#fff5e8" d="M90.402 105.636c.152.932-.374 1.398-1.16 1.685l-.144-1.936-1.184.468c-.515-.62.772-1.964 2.143-2.35z"/></g><g><path fill="#fff5e8" d="M10.332 80.478c.27-2.328 1.401-4.268 2.758-6.105l.544.035c-.838 1.743-1.66 3.494-2.53 5.221-.164.33-.51.569-.772.85z"/></g><g><path fill="#fff5e8" d="M173.405 63.414c1.226-1.04 2.256-1.06 3.286-.013.417.425.754.93 1.338 1.661-1.28-.65-2.329-1.182-3.75-1.905l-.06 2.244-.859.032-.001.044.046-2.063z"/></g><g><path fill="#fff5e8" d="M137.233 47.068l.328 2.392c-1.1.534-1.692-.31-2.455-.821.206-1.305 1.063-1.448 2.127-1.57z"/></g><g><path fill="#fff5e8" d="M167.28 56.884l1.511.09-.658 1.542 2.886-.295.127.3-2.14 1.279-1.715-1.31c-.001-.133-.002-.267-.001-.4.428-.28.406-.548-.019-.807l.01.014z"/></g><g><path fill="#fff5e8" d="M85.568 26.484l-.028.91c-.296.309-1.494-.084-.783 1.007l-1.204.023-.876-1.064c.83-.948 1.778-1.171 2.891-.876z"/></g><g><path fill="#fff5e8" d="M74.499 22.287l-1.51 1.286 1.58.836c-1.208.481-2.136.097-2.86-.924l2.434-1.654.356.456z"/></g><g><path fill="#fff5e8" d="M168.095 54.447c.2.003.403.03.6.004 1.973-.265 3.763.054 5.192 1.605-.435.936-.954.369-1.398.04-.5-.37-.944-.815-1.412-1.227l-2.982-.422z"/></g><g><path fill="#fff5e8" d="M170.536 36.954l-1.284-.747.11-.112.367-.367-.01.01 1.439-1.26c.351.202 1.034.296.45.898-.606.626-.025 1.07.134 1.585l-1.206-.007z"/></g><g><path fill="#fff5e8" d="M75.258 36.1c-1.037.533-.861 1.249-.306 2.021l-1.2.457c-.005-.412.08-.853-.041-1.229-.132-.41-.453-.76-.88-1.435l2.144-.18z"/></g><g><path fill="#fff5e8" d="M96.318 61.38c-.758-.416-.837-.861.018-1.212.527-.216 1.108-.301 1.664-.446.039.64.869 1.246.029 2.06l-1.29-1.091z"/></g><g><path fill="#fff5e8" d="M97.732 22.066l-1.777-.498c.64-1.335 1.69-1.032 2.607-1.32l-.47 1.285-.36.533z"/></g><g><path fill="#fff5e8" d="M156.674 161.8c-1.164-.355-1.873-1.217-2.301-2.463.445.308.875.64 1.337.92.726.441 1.474.847 2.212 1.269l-1.248.274z"/></g><g><path fill="#fff5e8" d="M92.474 26.413l2.796-.6c-.64 1.347-1.634 1.536-2.786 1.268l-.01-.668z"/></g><g><path fill="#fff5e8" d="M251.387 131.691l2.126 1.482c-1.22 1.357-1.888-1.043-3.063-.103l-.06-.515c.309-.268.618-.534.997-.864z"/></g><g><path fill="#fff5e8" d="M164.602 21.3l-1.88.395c.016-.704-.202-1.497.539-1.679.416-.101 1.005.498 1.517.782z"/></g><g><path fill="#fff5e8" d="M157.775 19.905l-.036-.027c-.944-.363-1.486-1.054-1.69-2.045 1.79.04 1.911.187 1.726 2.072z"/></g><g><path fill="#fff5e8" d="M163.621 58.553l-1.189 1.542c-.37-.676-.741-1.35-1.1-2.002 1.117-1.047 1.475.638 2.29.46z"/></g><g><path fill="#fff5e8" d="M155.403 75.932l-1.026 1.186c-.316-.355-.71-.675-.901-1.088-.06-.13.424-.73.656-.729.36.002.719.336 1.27.631z"/></g><g><path fill="#fff5e8" d="M167.29 58.09l.001.4-.486.01c-.865-.535-1.73-1.07-2.594-1.607l.08-.228 2.99.632-.01-.014z"/></g><g><path fill="#fff5e8" d="M152.672 7.658l2.437 1.576c-.64-.048-1.29-.04-1.916-.158-.893-.168-.953-.722-.52-1.418z"/></g><g><path fill="#fff5e8" d="M169.252 36.207c-.538-.534-1.075-1.07-1.614-1.604.336-.025.673-.035 1.007-.077.959-.122 1.182.395 1.074 1.212l.01-.01-.367.367z"/></g><g><path fill="#fff5e8" d="M91.71 29.57c1.733.239 1.733.239 2.52 1.615l-2.602-1.179.081-.435z"/></g><g><path fill="#fff5e8" d="M142.087 6.837c-1.017.01-2.074.312-2.942-.792.972.12 1.945.238 2.918.356z"/></g><g><path fill="#fff5e8" d="M92.474 26.413l.01.668-1.673.922c-.007-1.434-.007-1.434 1.663-1.59z"/></g><g><path fill="#fff5e8" d="M52.314 40.792c.294.397.613.64.592.845-.028.262-.312.666-.524.693-.242.03-.527-.288-.793-.455z"/></g><g><path fill="#fff5e8" d="M65.654 35.312c-.728 0-1.458.035-2.183-.014-.51-.035-.705-.314-.335-.78.207.104.494.353.607.29.825-.46 1.345.083 1.91.504z"/></g><g><path fill="#fff5e8" d="M197.133 171.763l1.667-.77"/></g><g><path fill="#fff5e8" d="M51.256 44.384c-.14 1.027-.627 1.117-1.57.9.342-.388.508-.67.754-.824.178-.111.462-.052.816-.076z"/></g><g><path fill="#fff5e8" d="M41.217 49.962l-.559 1.886c-.6-1.293-.6-1.293.569-1.876z"/></g><g><path fill="#fff5e8" d="M97.732 22.066l.36-.533 1.238-.35c-.116 1.396-.783 1.288-1.598.883z"/></g><g><path fill="#fff5e8" d="M99.306 100.046l-1.334 1.91"/></g><g><path fill="#fff5e8" d="M249.034 117.468l-.118.439c-1.079-.344-.545-1.51-1.085-2.13.888.218.982.999 1.203 1.69z"/></g><g><path fill="#fff5e8" d="M137.996 45.895c.412.146 1.142-.631 1.238.429-.383.126-.79.4-1.142.343-.46-.075-.574-.446-.096-.772z"/></g><g><path fill="#fff5e8" d="M52.992 44.656l.38 1.737"/></g><g><path fill="#fff5e8" d="M9.467 154.507c-.371-.176-1.01-.292-1.066-.54-.182-.802.57-.652 1.036-.769l.03 1.31z"/></g><g><path fill="#fff5e8" d="M158.354 160.988v-2.13l1.213 2.115z"/></g><g><path fill="#fff5e8" d="M121.332 57.694l.608-1.056 1.092.515-1.704.938.004-.397z"/></g><g><path fill="#fff5e8" d="M90.268 29.005l-1.104.227-.116-.375 1.083-.391z"/></g><g><path fill="#fff5e8" d="M113.544 110.484l.124-.786.918.209.038.333z"/></g><g><path fill="#fff5e8" d="M94.505 104.065l.162-.945c.436.527.436.527-.186.92z"/></g><g><path fill="#fff5e8" d="M102.407 28.418l-.975-.72"/></g><g><path fill="#fff5e8" d="M95.44 27.955c-.577.021-1.153.042-1.729.065"/></g><g><path fill="#fff5e8" d="M100.947 27.616l-1.562-.304"/></g><g><path fill="#fff5e8" d="M89.118 15.84l-1.197-.059"/></g><g><path fill="#fff5e8" d="M99.169 27.251l-1.056-.074"/></g><g><path fill="#fff5e8" d="M93.681 28.036l-1.229.368"/></g><g><path fill="#fff5e8" d="M92.45 28.404c-.235.275-.47.55-.706.823"/></g><g><path fill="#fff5e8" d="M84.73 16.213l-.816.4.016.016.462-.42c.112-.013.225-.011.337.004z"/></g><g><path fill="#fff5e8" d="M249.124 118.992l.308.916"/></g><g><path fill="#fff5e8" d="M115.644 113.002c-.283.105-.564.209-.847.312"/></g><g><path fill="#fff5e8" d="M9.922 81.295l.414-.826"/></g><g><path fill="#fff5e8" d="M9.547 82.037l.384-.757"/></g><g><path fill="#fff5e8" d="M97.313 27.285l-.83.297"/></g><g><path fill="#fff5e8" d="M5.837 96.33l.31.422-.291-.438z"/></g><g><path fill="#fff5e8" d="M167.324 34.451l-.447-.342"/></g><g><path fill="#fff5e8" d="M96.114 28.156l-.368-.03"/></g><g><path fill="#fff5e8" d="M41.227 49.972l.08-.13-.09.12z"/></g><g><path fill="#fff5e8" d="M162.825 41.826c-.048-.028-.104-.048-.142-.086-.02-.02-.006-.07-.009-.108l.12.22z"/></g><g><path fill="#fff5e8" d="M64.767 41.446c-.122.001-.242-.006-.363-.022"/></g><g><path fill="#fff5e8" d="M76.24 37.166a.552.552 0 0 1 .173-.17l-.037.137z"/></g><g><path fill="#fff5e8" d="M173.36 65.433l.859-.032c2.297 1.035 2.378 3.141 2.544 5.29l-1.55 1.062c.724-2.624-.652-4.445-1.853-6.32z"/></g><g><path fill="#fff5e8" d="M199.379 27.64l.9-.46c1.47.779 1.47.779 1.858 2.62-1.162-.539-2.059-1.215-2.758-2.16z"/></g><g><path fill="#fff5e8" d="M132.36 107.19l-1.977 1.093-.3-.288.615-1.857 1.317.341c.116.237.23.474.345.712z"/></g><g><path fill="#fff5e8" d="M170.536 36.954l1.206.007 1.09 2.005-.396.283-1.9-2.295z"/></g><g><path fill="#fff5e8" d="M133.534 107.702l-1.129-.456"/></g><g><path fill="#fff5e8" d="M81.878 16.238c-.535.378-1.03.995-1.61 1.09-2.112.347-3.254 1.676-4.073 3.485-.138.305-.545.49-.828.73l.092-1.534-1.283 1.461c-.044-.75-.084-1.433.827-1.828.59-.257 1.077-.778 1.578-1.218.982-.861 1.773-1.973 3.422-1.562.54.135 1.245-.397 1.875-.624z"/></g><g><path fill="#fff5e8" d="M70.825 27.857c-.413 1.561-2.074.542-2.535 1.825l-1.175-1.487c1.197-.564 2.397-.627 3.71-.338z"/></g><g><path fill="#fff5e8" d="M74.176 21.47l1.283-1.461-.092 1.534-.867.745-.357-.457c.005-.121.017-.242.033-.361z"/></g><g><path fill="#fff5e8" d="M124.946 2.07h.889l.002.149h-.886z"/></g><g><path fill="#fff5e8" d="M60.35 36.345l-.496.76-.34-.753.835-.007z"/></g><g><path fill="#fff5e8" d="M66.847 37.351l-.421.422"/></g><g><path fill="#fff5e8" d="M66.834 36.738v.63"/></g><g><path fill="#fff5e8" d="M247.076 93.606v-1.44h.235v1.44z"/></g><g><path fill="#fff5e8" d="M202.474 25.974l-1.86-.002-1.44-.99c1.214.077 2.483-.125 3.3.992z"/></g><g><path fill="#fff5e8" d="M229.013 53.184l-.409-.79.253-.173.52.73z"/></g><g><path fill="#fff5e8" d="M231.88 60.596l-.224-.231.318.136z"/></g><g><path fill="#fff5e8" d="M91.647 64.2l-.702-1.48c1.037.318.516 1.027.704 1.478z"/></g><g><path fill="#fff5e8" d="M89.582 66.663l-.429-1.278.348-.07.158 1.284z"/></g><g><path fill="#fff5e8" d="M107.302 142.49l1.985-.557c1.557.969.433 2.203.563 3.381l-2.143.717-.405-3.541z"/></g><g><path fill="#fff5e8" d="M120.51 147.955l-.656 2.561-4.636-1.904.082-.53c1.727-.284 3.493-.025 5.235-.098z"/></g><g><path fill="#fff5e8" d="M136.246 152.017c1.61-.395 3.199-.486 5.1-.082"/></g><g><path fill="#fff5e8" d="M155.857 149.034c-1.127 1.852-1.834 2.181-3.223 1.599"/></g><g><path fill="#fff5e8" d="M109.783 138.872c.355 1.17.016 1.941-.721 2.661"/></g><g><path fill="#fff5e8" d="M97.898 143.898l-1.611-.438"/></g><g><path fill="#fff5e8" d="M125.502 143.79c.18.226.362.45.534.68a.608.608 0 0 1-.13.128c-.233-.176-.458-.361-.686-.543.097-.083.19-.171.282-.265z"/></g><g><path fill="#fff5e8" d="M76.963 32.932l-3.553.276c1.203-.948 2.274-1.169 3.603-.758z"/></g><g><path fill="#fff5e8" d="M75.258 36.1l-.283-.367.918-.618.249.276z"/></g><g><path fill="#fff5e8" d="M76.964 32.932l.049-.482c.168.11.337.218.505.326-.085.094-.168.19-.25.29a1.447 1.447 0 0 1-.304-.134z"/></g><g><path fill="#fff5e8" d="M83.551 17.06l-.873.755-.212-.314 1.01-.515z"/></g><g><path fill="#fff5e8" d="M83.914 16.613l-.363.447-.074-.074c.15-.12.302-.238.453-.357z"/></g><g><path fill="#fff5e8" d="M84.757 28.4c-.711-1.09.487-.697.783-1.006.984.115.569-.863 1.17-1.424h2.512c-1.558.681-2.623 2.268-4.465 2.43z"/></g><g><path fill="#fff5e8" d="M167.29 58.09l-.019-.807"/></g><g><path fill="#fff5e8" d="M169.362 36.095l.367-.367"/></g><g><path fill="#fff5e8" d="M124.813 110.942c-.346-1.165-.082-1.745 1.04-2.057"/></g></g></g></svg>