<svg xmlns="http://www.w3.org/2000/svg" width="63.094" height="63.247" viewBox="0 0 63.094 63.247"><g transform="translate(-0.601)"><path d="M10.229,19.754l14.4,5.938a2.129,2.129,0,0,0,2.641-.88l6.484-10.919L45.6,8.064l.365,5.384a.384.384,0,0,0,.688.207L56.578.718a.424.424,0,0,0,.043-.451.424.424,0,0,0-.382-.24L39.934,0a.384.384,0,0,0-.36.247.388.388,0,0,0,.1.424l4.044,3.576L31.311,10.355a2.136,2.136,0,0,0-.891.822L24.55,21.06l-12.7-5.237a2.127,2.127,0,1,0-1.624,3.931Z" transform="translate(-7.249)" fill="#ffac79"/><path d="M60.5,445.01H3.791a3.19,3.19,0,1,0,0,6.38H60.5a3.19,3.19,0,0,0,0-6.38Z" transform="translate(0 -388.143)" fill="#ffac79"/><path d="M41.434,241.837a1.289,1.289,0,0,0-1.287,1.289v19.132a1.289,1.289,0,0,0,1.287,1.289h7.525a1.29,1.29,0,0,0,1.29-1.289V243.126a1.29,1.29,0,0,0-1.29-1.289Z" transform="translate(-34.492 -210.933)" fill="#ffac79"/><path d="M375.761,73.23v40.843a1.289,1.289,0,0,0,1.287,1.289h7.527a1.289,1.289,0,0,0,1.287-1.289V73.23a1.289,1.289,0,0,0-1.287-1.289h-7.527A1.289,1.289,0,0,0,375.761,73.23Z" transform="translate(-327.219 -62.748)" fill="#ffac79"/><path d="M265.168,161.045a1.29,1.29,0,0,0-1.289,1.289V191.79a1.29,1.29,0,0,0,1.289,1.289h7.525a1.289,1.289,0,0,0,1.287-1.289V162.334a1.289,1.289,0,0,0-1.287-1.289Z" transform="translate(-229.634 -140.465)" fill="#ffac79"/><path d="M153.3,286.386a1.289,1.289,0,0,0-1.29,1.289v13.439a1.29,1.29,0,0,0,1.29,1.289h7.523a1.29,1.29,0,0,0,1.29-1.289V287.675a1.289,1.289,0,0,0-1.29-1.289Z" transform="translate(-132.062 -249.789)" fill="#ffac79"/></g></svg>