<svg xmlns="http://www.w3.org/2000/svg" width="102.34" height="102.34" viewBox="0 0 102.34 102.34"><path d="M378.921,366.212l2.12-2.12a3,3,0,0,0-1.531-5.059l-21.2-4.24a3,3,0,0,0-3.528,3.528l4.24,21.2a3,3,0,0,0,5.06,1.531l2.12-2.12,6.363,6.36a3,3,0,0,0,4.24,0l8.479-8.479a3,3,0,0,0,0-4.24Zm0,0" transform="translate(-283.819 -283.832)" fill="#ffac79"/><path d="M211,242h6v6h-6Zm0,0" transform="translate(-168.825 -193.628)" fill="#ffac79"/><path d="M14.991,48.372H36.179v-3a3,3,0,0,1,3-3H51.17a3.174,3.174,0,0,1,3.2,3v3H75.356A15.009,15.009,0,0,0,90.347,33.38V20.988a3,3,0,0,0-3-3H66.361V8.995A9,9,0,0,0,57.366,0H33.181a9.005,9.005,0,0,0-8.995,8.995v8.995H3a3,3,0,0,0-3,3V33.38A15.009,15.009,0,0,0,14.991,48.372ZM30.182,8.995a3,3,0,0,1,3-3H57.366a3,3,0,0,1,3,3v8.995H30.182Zm0,0" fill="#ffac79"/><path d="M3,282.575H68.017l-2.935-14.68a8.971,8.971,0,0,1,2.459-8.126c3.612-3.631,7.469-2.4,8.07-2.471l14.736,2.947v-20A20.9,20.9,0,0,1,75.356,246.6H54.368v3a3.174,3.174,0,0,1-3.2,3H39.177a3,3,0,0,1-3-3v-3H14.991A20.9,20.9,0,0,1,0,240.25v39.327A3,3,0,0,0,3,282.575Zm0,0" transform="translate(0 -192.228)" fill="#ffac79"/></svg>