<svg xmlns="http://www.w3.org/2000/svg" width="90" height="68.555" viewBox="0 0 90 68.555"><g transform="translate(0 0.001)"><path d="M11.155,84.629,1.949,88.76a3.3,3.3,0,0,0,0,6.026l6.843,3.071.056.027,15.717-7.056Zm0,0" transform="translate(0 -69.754)" fill="#ffac79"/><path d="M102.584,136.57l-15.623,7.012,8.228,3.695,15.281-7.063Zm0,0" transform="translate(-71.675 -112.565)" fill="#ffac79"/><path d="M185.239,173.828l-15.189,7.02,13.756,6.175a3.3,3.3,0,0,0,2.7,0l13.837-6.212Zm0,0" transform="translate(-140.159 -143.273)" fill="#ffac79"/><path d="M120.842,55.292l-7.694,3.455-13.41-6.2,7.5-3.368Zm0,0" transform="translate(-82.206 -40.536)" fill="#ffac79"/><path d="M227.7,103.892l-7.782,3.6-7.8-3.6,7.784-3.5h0Zm0,0" transform="translate(-174.831 -82.745)" fill="#ffac79"/><path d="M300.09,136.609l-7.871,3.637,15.2,7.024,8.205-3.683Zm0,0" transform="translate(-240.852 -112.597)" fill="#ffac79"/><path d="M206.184,5.79,192.65,11.866l-13.6-6.113L191.227.289a3.3,3.3,0,0,1,2.7,0Zm0,0" transform="translate(-147.577 0)" fill="#ffac79"/><path d="M314.064,52.749l-13.346,6.168-7.7-3.459,13.539-6.079Zm0,0" transform="translate(-241.512 -40.7)" fill="#ffac79"/><path d="M397.5,91.947a3.3,3.3,0,0,1-1.947,3.011L388.7,98.03h0l-15.625-7.022,13.347-6.168,9.123,4.094A3.306,3.306,0,0,1,397.5,91.947Zm0,0" transform="translate(-307.498 -69.927)" fill="#ffac79"/><path d="M88.05,175.2l-.952-.427L46.426,193.025a3.3,3.3,0,0,1-2.7,0L2.977,174.734l-1.028.461a3.3,3.3,0,0,0,0,6.024l41.7,18.719a3.294,3.294,0,0,0,2.7,0l41.7-18.719a3.3,3.3,0,0,0,0-6.024Zm0,0" transform="translate(0 -144.02)" fill="#ffac79"/><path d="M88.054,245.2l-1.059-.476L46.429,262.938a3.3,3.3,0,0,1-2.7,0L3.088,244.7l-1.135.51a3.3,3.3,0,0,0,0,6.024l41.7,18.718a3.3,3.3,0,0,0,2.7,0l41.7-18.719a3.3,3.3,0,0,0,0-6.024Zm0,0" transform="translate(-0.003 -201.683)" fill="#ffac79"/></g></svg>