<svg xmlns="http://www.w3.org/2000/svg" width="118.882" height="131.861" viewBox="0 0 118.882 131.861"><g transform="translate(-0.5)"><path d="M109.168,128.159v8.287h12.925v-8.287l-6.463-6.315Zm0,0" transform="translate(-80.682 -90.464)" fill="#fffefc"/><path d="M109.168,127.852l.793,34.428,27.309-3.526,3.374-29.293-13.879-8.031Zm0,0" transform="translate(-52.867 -104.837)" fill="#fffefc"/><path d="M80.858,106.761H49.09V99.035H59.824l.008-8.756H20.846V82.552H63.06L71.817,73.8H20.846V66.069h58.7l22.085-22.085V0H.5V131.861H101.628V85.992ZM28.572,99.035v7.726H20.846V99.035ZM49.138,53.707H20.76V34.441L34.949,20.577,49.138,34.441Zm23.226-3.975V53.45h-4.72V49.9a19.7,19.7,0,0,1-8.6-2.344L61.583,41.8a16.08,16.08,0,0,0,7.734,2.143c2.243,0,3.046-.469,3.046-1.273,0-2.947-12.957-.569-12.957-9.308,0-3.784,2.745-6.965,8.236-7.734v-3.65h4.72v3.582a17.493,17.493,0,0,1,6.8,1.943l-2.377,5.725a14.461,14.461,0,0,0-6.529-1.741c-2.31,0-3.047.67-3.047,1.474,0,2.812,12.959.469,12.959,9.106C80.166,45.682,77.554,48.829,72.364,49.733Zm0,0" fill="#fffefc"/><path d="M300.519,185.489l-39.663,39.662-.008,10.054h10.108l39.639-39.64a7.125,7.125,0,0,0-10.076-10.076Zm0,0" transform="translate(-193.297 -136.171)" fill="#fffefc"/></g></svg>