<svg xmlns="http://www.w3.org/2000/svg" width="313" height="252" viewBox="0 0 313 252"><g><g><g><path fill="#fff5e8" d="M122.375 206.686l.252.324 2.032-.375 1.14.114.862.564.138.614.03 1.833-.232 1.203.021.307.396.433 5.926.362.521.782.093.921.294.438 1.35.98.564.088.454.543-.248 1.564.063 1.59.576 1.947.307.707.72.841.32 1.073-.253.509-1.439-.32-1.131-1.098-1.068-.353-1.161-.9-.244-.888-.5-.618-1.43-.383-1.018.06-.118.382.223 1.476-.774 2.145.135.19.938-.068-.295 1.026-.307.379-2.557-.067-.463.412-.03.315.45.816-.508 2.444-.013 1.01.278 1.046-.492 1.216-1.06.816.038.324-.198.269.093.618.248.282.008.492-.282.681.753 1.418.055.778-.993-.753-1.236-.593-.757.18-1.38-.512-1.173.05-.467.27-1.316.243-.757-.113-.61-.593-.248-.463.067-.463.576-1.556 1.438-1.82 1.006-1.763-.021-1.17-.278-.723-.227-.02 1.3-4.312.883-1.627.765-.707.497-1.278.374-.379.18-.845-.15-1.451.117-.863-.635-1.026.517-.324-.16-3.562-.197-.568-.438-.61-2.246-.748-.845-.711.534-.934.572-.546z"/></g><g><path fill="#fff5e8" d="M287.087 78.623l-.055.77-.345.74-.429.66-.462.35-.745 1.22-.572 2.056-1.118 1.03-.202.463-.257 1.266.303 1.518.324.446v.715l-.677.698-.11 1.94-.408.701.055 1.451-.328.816-.862 1.081-.11 1.27-.677.438-.605 1.098-2.47.487-1.757 2.473.063.413.648.681.016.27-.483 1.152-.778.584-.013.745.29.673 1.132.559.425.669-.909 1.3-.055.946-.227.542.114.467-.454.618.138.328-.092.593.18.265-.31.925-.43.69-.407-.054-.715.555-3.37.345-1.156.908-.681.122-1.582 1.426-1.581.833.038.563.997.114.206.176.038 3.146-.307.29-.35 1.855.354.87-.488 1.696.126.555-1.182 2.019-1.11.967-.004.42.298.417-.345.862.535 1.649-.476.778-.458.16-.703-.097-.614.227-.24.463-.067 1.148-.412.311-.416.778-.917.08-1.43 1.161-.349.05-2.473-.69-.278.278-.1.72-.497.487-.34 1.283-.745.984-.98.06-.471.374-1.039-.118-.778.509-.803.139-.303.344-.286 1.7.606 2.195.244 2.427-.026.437-.323.236-1.022 1.896.26 1.056.093 1.569-1.737 2.67-1.468 1.3-.74 1.266-.202.841-.471.619-.173 1.45-.466.657.29 2.582.273.757-1.232.623-.824.113-1.157 1.32-.513-.37.02-.655-.815-1.944-.16-1.488-.311-.728.244-2.309-.438-.85-.904-1.093-1.817-1.615-1.051-1.325-.64-.471-.597-.18-.69.159-1.19 1.686-1.144.837-1.14-1.03-1.223-1.977-1.06-2.83.345-.665 1.74-2.01 1.6-1.354 2.136-2.305 3.63-4.845 2.573-2.196.185-.874-.16-2.431 2.52-4.812.42-1.522-.109-.762-.85-1.615-1.74-.618-1.12-1.236-.143-1.615.194-.913-2.212-4.13-.875-.543-1.956-.454-.614-.808-2.292-4.281 2.607-.383 1.418-.601 3.953-2.38 2.419-1.683.462-.98-.218-1.556.286-4.303 2.666.408 1.136-.08 1.922-.555.732-.45.715-.799 1.568-2.334 2.608-2.97 1.056-.365 2.645-.206 2.481-.934 1.027-1.102.345-1.119 1.396-.059.988-.48.934-1.555.883-.909 1.056-.618 3.583.332 1.207.433 1.085.652 1.195 1.308 1.022.484 1 .429 1.847-.004.48-.513.622-3.264 1.14-2.389.513-1.53.37-1.725.118-3.369 1.3-.18.26.31 1.577.48 1.624-.122 2.363-.732z"/></g><g><path fill="#fff5e8" d="M125.832 237.948l-.05-.778-.753-1.414.282-.685-.009-.492-.248-.282-.093-.618.198-.274-.038-.323 1.06-.816.496-1.216-.277-1.047.008-1.014.51-2.443-.45-.816.029-.316.462-.412 2.561.067.308-.378.294-1.026-.938.067-.135-.19.774-2.144-.223-1.476.122-.383 1.018-.059 1.43.383.5.618.245.887 1.156.9 1.069.354 1.13 1.097-.357.042-.483 1.03.277.754.354.13.328.816 2.006-.236 2.086 1.128.168.883-.256 2.566.685 2.157 1.434 2.065 1.342 1.178 1.585 1.82 1.544 1.183.248.424-.18.909.332.185.012 1.051-.21.19-.173-.282-.029.244.5.492-.252.757-.311.08.042.433-.433.484.1.071-.44 1.001-2.2-.265-2.415-.03-4.504.232-5.068.707-.219-.194-.765.152-.391-.202-.37.151-.4-.038-.008.013.21.34.113.181-1.396.556-.412-.715-.492-.274-.362-.08-.404-.446.16-.382-.038-.05-.223.21-.21-.16-.256-.492.016-.27.215-.134-.244-1.914.404-1.796-.265-.967-.833-1.46zm21.685 4.656l.37.879-.32.344-.45.093-.092-.522.236-.042.147-.378zm-16.953 3.18zm.408.21l.387-.08.37-.06.138.118-1.505.316-.206-.248.408-.257zm-3.592.084v.004l-.009-.009z"/></g><g><path fill="#fff5e8" d="M110.456 187.024l.185.168.038 1.523 1.61-.055 1.027.593.862.033 1.569.716.15.332-.525 1.45-.315.455-.711.48-.778 1.042.1.404-.26.35-.18.988.163.227 1.62.488.597.757.563 1.53.551.779-.126.403-.345.122.173.577-.21.681.302.311.795-.475.257.055.248 1.085.56.265-.148.904.79 1.594.076.635.32.412 1.005.589.698-.404.455.038.47.311-.016.227.349.072-1.85.971-.573.547-.534.934-2.237.597-2.263-.526-2.654.488-.749.438-.39 1.493-.997 1.939-1.128.113-1.896-.807-.682.336-1.262 1.611-.879.349-1.009-.088-.467-.539.425-.492.808-1.64.143-1.11.744-1.973 1.051-1.913.16-2.528.539-1.535-.518-1.586-.622-3.066.033-.576-.475-.475-.896-4.025-.03-.122.703-.324 1.51.277.602-.374.773-1.056.026-1.148.521-1.733.942-.971.648-.362z"/></g><g><path fill="#fff5e8" d="M206.882 36.712l3.255 2.604.48 1.232.324 2.978-.08.761 1.329 1.96.088 2.835.139 1.135.4 1.14.084 1.628 3.511 8.794-.096 2.07-.442 1.143-.416 2.852.685.643 1.279.156-.337.1-1.14 1.582-2.54 1.38-1.08 1.556-.846.736-.627.32-1.644.37-.606.572-.58.853-.408 2.078-1.098 3.125-1.518 2.132-.084.58 3.104 1.258.48.72.365 3.007.37.483 3.028 1.102.875 2.078-.202 3.63.168 1.202-.349.74-1.64.266-.837.387-.55.803.138.681 1.804 1.842 1.052.593 3.848 2.982.517 1.594.257 2.604 1.085 2.22.71.892-.054.4-.244.067-1.678-.013-2.708-.458-4.454 2.04-2.46-.328-1.931 1.114-2.675-1.443-2.6-1.699-4.655-1.993-3.895-2.074-1.08-.214-3.197-1.661-1.274.748-.127.606 1.334 1.707.113.732-.21.703-2.002.546-1.216 2.192-1.846.593-4.222.248-2.301-.623-2.019-.113-.635-.223-.656-.564-.694-1.712-.379-.487-.332-.3-1.649-.596-.252-.358.038-.71 1.001-1.88.097-.493-.11-2.498-.408-1.316-.757-.808-.445-.088-4.614.92.017-5.206-.328-2.019-1.098-1.75-1.17-.37-1.337-.033-.643.206-1.064-1.14-1.174-.736-.113-.307.988-1.766.223-1.666.416-.235 1.09-1.72.559-1.62-.034-.84-.323-.703-1.624-1.821-.19-.837-.167-2.898.189-1.472.673-1.922.429-.181 1.135.067.858-.214 1.153-1.35 1.114-1.729 1.994-1.754.282-.462 1.043-.66.71-.127.48.45.48.038 2.32-.913.422-.08 2.523.463 3.125 1.014 1.409-.614.967.307.749 1.543 1.316.089 3.239-.202 1.501-.383.48.126 1.123 2.061.227.904-.35 3.302.341.862.568.572 2.397.5 2.356-.584.656.071.782.572 1.035.261.782-.24-.467-1.442.017-.757.643-.804 1.065-.572 1.699-.416.605-.328.778-.585.463-1.144-.437-.614-3.73-.235-2.407-.534-2.687-.324-1.258-.778-2.229-3.12-.441-1.052-.198-1.081-1.615.395-.496-.467-.232-.732 1.056-2.102-.219-1.817-.614-1.86-.761-.21-1.157.114-.891.433-1.098.017-.568-.265.206-1.792 1.355-1.91 2.59-.193 2.301-1.278 4.601-1.569 2.62-1.056.5-.395-.012-.946-.24-.79 2.823-8.66 1.909-.82 1.464-.232.416.345.35.69.05.584z"/></g><g><path fill="#fff5e8" d="M130.219 154.576l3.84 1.043 3.579.526 3.663 1.493 2.07 1.186 2.207.416.45-.059 1.397 1.178 2.241.938.48-.463.038-.572-1.977-4.895-.034-1.06.43-1.203.52-.593 1.662-.925.58-.118 1.09-.076 1.127.185 4.244 1.565 2.885.652 2.052.172 1.666-.092.004-.295 4.959 3.756-1.594 2.51.799.24 2.574-1.105 3.141-.4 3.44.202 3.147.744 2.161 2.061 1.868 2.376 3.52 3.184-.059.274.492.572-.11.437.236.749-.248 1.358-1 2.477.121 2.49-.387.602-1.3.815-1.446 1.367-1.392 2.591-.888 4.837.257.307-.139.454-.012 3.684-.8 3.445-.302.126-.892-.307-.328.597.042.841-1.186.732-.753.093-1.169-.185-.273-.652-2.053-2.789-2.326-2.41-.626-.302-1.3-.093-4.025.942-1.842-.185-.509-.374.278-2.006-.236-.69-3.634-2.263-2.283-.71-.888-.03-.971.248-.888.282-.64.505.325 1.892-1.32.808-1.317.349-1.615-.06-.867-.28-.807.188-.572.736-.993.825-1.257.206-.715-.955-.354-1.792-.74-.546-.429.971-1.434.156-.744 1.211-.808.391-1.24-.105-1.452.168-.525 3.462-.417.862-.593.248-.748-.311-1.687-1.548-.273-.648.071-.382.959-2.7-.378-2.364-.598-.9-.639-.484-1.182-.147-.93.887-.883.307-1.228-.639-1.505-1.16-1.216-1.41-1.152-2.738.055-.223.172-.21.353.244 1.418 1.384.345-.042.567.441h.74l.144-1.859.403-.605 2.709-1.312 1.388-1.308.816-2.452.176-1.653.198-.543.517-.509.152-.761-.623-.198-1.392.135-.534-.442-.522-2.326-.24-2.864-.004-2.902-.306-.778-1.136-1.098-.79-1.354-.228-2.469z"/></g><g><path fill="#fff5e8" d="M278.47 4.563l.294 2.377-.35 1.261 1.468 2.633-.084 1.06-.193.206.118-.913-.438.56-.092.807 1 1.073 1.035.256-.273.282.118.227.328.08 1.876 3.167 1.19 1.296.441.092.724.404.685.505 1.628.315.11.362-.245-.005-.235.463-.084-.437-.278.244-.311-.017.606.673.113.74 1.632-.488.972-1.098 1.038-.85.673-.281-.454.74.063.19.274-.08.24.984-.14.092-.281-.58-.358.202-.24.517-.85.24.283.79-.5.476-.783 1.569.172.323.577-.189-.03 1.026-.244.484.358.017-.143.572-.484.647.168.24.66-.18.123.23-1.107.585.829.21-.063.375.504.021-.315.357-.555.14.05.176.522-.097.05.252-.202.186-.096-.156-.425.097.1.315.312-.05-.357.702.635.088.092.564-.24.311.11.526.408.092.223.51-.101.483.82.231.143.614.257.219.677-.4.193.085.299.803.513.298.13.455.909.324-.013.462.282.42-.156.501.299.27.467.23.593-.21.84.11-.113.437.35.025.163-.29.762-.03.618-.34 1.034-.033.072.513.45.037-.05.383-.526.135.092.223-.16.269.4.118.946 1.097 1.439-.223.433-.02.18.34.724-.366 1.232.366 1.473-.147.285.13.358.05.677.144.332.504.534.143.144.366-.282.009.033.47.913.426.294.576-.302.584 1.257.324.32.631-.227.194.475.227.328.05.05-.206.408-.034.215-.214.56 1.056-.577.542-.135.757-.31.366.285.841-.723.488-.025.66.925 1.59-.509.732.097.568-.976 1.165.004.63.122 1.595-.294.517-1.182.904-.025.232.53.723.845.475.908.917.186.909-.261 1.968-.53.391-2.675 1.08-1.632.38-.715 1.299-3.402 1.333-1.38.87-.812 1.115-1.875.816-.976.017-1.144-.997-1.06-.185-.45-.349-.45.067-.257.32-.244.976-.874.992-.328 1.128-.303.441-.614.404.1.627-.273.088-.454.707-.976.858-.509 1.223-1.362.678-1.018.227-.324.315-.08.732-2.364.732-1.623.122-1.577-.48-.26-.311-1.3.18-.118 3.37-.37 1.724-.514 1.531-1.14 2.389-.622 3.264-.48.513-1.846.004-1-.43-1.023-.483-1.194-1.308-1.085-.652-1.207-.433-3.583-.332-1.056.618-.883.909-.934 1.556-.988.48-1.397.058-.345 1.119-1.026 1.102-2.481.933-2.646.207-1.055.365-2.608 2.97-1.569 2.334-.715.799-.732.45-1.922.555-1.135.08-2.667-.408-1.644-.925-.761-.673-1.317-2.595-2.38-.984-.77-.766-1.022-1.476-.34-1.19 2.178-3.18.26-1.27-.567-1.388 1.279-.29 1.434-1.905-.118-3.529.256-1.165.724-1.19 1.119-.808 4.714-1.27 2.57-1.535.88-1.295.1-1.237-.32-1.745-.016-1.25.378-1.202 1.216-1.41 1.387-2.48 1.91-1.864.416-.887-.353-1.4-1.316-1.578-2.066.088-.269-.151-.063-.816 1.985-3.844-.71-3.13.054-1.471 1.069-6.851.02-2.436-.723-1.61.231-.926 2.97-2.654.997-1.295.773-1.77-.201-1.574-2.02-1.615-.61-.765-.516-1.62.626-3.372.034-1.771.61-.05 1.842.37.013-.5.248-.173.03-.312.08-.719.622-.56.479.102.568-.307-.143-.488.307-.454-.097-.135-.374-.08.168-.475.324-.56.336-.748.27-.252.958.147.58-.366.405.038.256.311.404-.467.097-.605.563-.097.618-.122.122-.194-.143-.168.413-.492.887-.202.26-.521.577-.328.067-.333.244-.31.168-.312-.008-.362.463-.18.18-.43-.34-.13.24-.257.517.265-.122-.66.462.05.026.198.357.122.463-.059.786-.702.43-.156.134.16.833-.042.584-.56.43.207.02-.454.455-.152.428.038-.374.492.618.332.387-.55.568.437-.084-.551.623-.215-.13.875.386.05.19-.407.483-.105.387.584.404-1.064.698-.353.008-.185-.231-.08.08-.299.5.084.27-.336-.27-.072-.168-.429.707-.673-.026-.244.627-.281-.021-.391.442-.446.521-.101.164-.446z"/></g><g><path fill="#fff5e8" d="M96.85 250.065l-.274-.387-.685-.185.092-.66-.328-.682.21-.56-.378-.563-.433.08-.231.147.075.547.248.324-.189.08-.18.374-.051.13-.833.921-.059.547-.19-.017-.062.009-.572 1.06.092.294 1.178.042 3.457-.416zm8.79-6.515l-.088-.261-.286.042-1.666-1.093-.505-1.843-.58-.786-.837-.008-2.75 1.068-.438-.11-.147-.815.177-.615-1.393-.605-.21-.35.03-1.825.799-1.123.32-.862.012-.534-.543.067-.353-.328.56-1.867 1.888-3.297 1.165.071.231-.21.316-1.047.647-.333-.096-.761.664-.45.4-.622-.013-.816-.265-.648-.32-.244-.807-.349-1.237.206-.437-.118.324 1.039-.505.357-2.136.922-1.468-.185-1.153.206-.845 1.724-.887.219-.333-.253-.618-.033-.151.4.109.97-1.19.657-.682.235-1.266-.1-.517.836-.971.261-.795-.282-.417-.698-.887-.538-.316.21-.622 1.291-1.388.69-1.102-.177-3.146 1.725-.395-.156-.976.168-.42-.462-1.132-.673-1.283-.299-1.22-.698-.882-.883-.236.303-.303-.24-.601.223-.152-.21-.685.353.992 1.939.804 2.444-.143.332.4.64.146.781 1.708 2.848.08.605.395.232.004.071.022.463 3.154 4.365.5.261-.008.315 1.165.568-.114.173.442.315.05.273 1.077.67.08-.165.13.143-.092.101.008.143 1.098.909.202-.009-.059-.324-.19-.088.665-.193-.32.294.14.303-.11.113.03.215.975.715 2.133.992.08-.84-.333-.215-.231-.526.143.05.122.375.332.092-.05-.294.172.013-.008.294.218.071.11.324-.26.497.108.18-.143.547.169.122 2.178.555.08-.938.274-.244.16 1.615 3.507-.294-.27-1.01.434-1.282.273-.463-.122-.576-.803-.484.202-.02.5.113.404.664.253-.475-.232-.332.038-.9-.353-.568.13-.311.072.433.29.232.013.16.31.849-.041 1.304 1.144-1.04-.244-.264.042-.816.803-.252.21-.265.29.677.051.542-.202.433.253.556.02.677.564.11.454.634.202-.02-.08.138.093.18.913-.201.08.143-.261.273.643.333 3.558-.383.009-.202-.168-.215-.03-.323-.042-.143.282-.362.252-.244-.219.858.093.164.854.74.404-.412 1.484-.16-.21-1.039-.038-.16-.16-.475-.483-.315-.08-.416.008-.08.122-.446-.223-.946-.172-.232.147-.151.32.378.525 1.767.16-.244-.273-2.2.715-1.426.109-.77z"/></g><g><path fill="#fff5e8" d="M146.546 189.64l1.257-.206.993-.825.572-.736.807-.189.867.282 1.615.059 1.316-.35 1.32-.807-.323-1.892.64-.505.887-.282.971-.248.888.03 2.283.71 3.634 2.263.236.69-.278 2.006.509.374 1.842.185 4.025-.942 1.3.093.626.302 2.326 2.41 2.053 2.789.273.652-.913 3.507-2.166-.93-.328.775-.008.833-.244.307-.454.395-1.178 2.044-1.358.395-.686.5-.505.497-.4 1.052-.416.407-3.667 3.268-1.603 1.149-.47.138-.69.968-.711.366-.547.622.168.362.572.437-.441.623.168.349-.19.403-.618.787-.24-.244.022.63 2.145 2.373.13.74-1.01 1.704-.268 1.009-.472.572.089 1.636-.761 2.473.063 2.759-1.069 1.766-.795.324-.033.354-.564.437-.513 1.388-.526.437.408.43-.378.147-.412.521.02.24-.424.16.038.74-.829.315-.429.526-.008.404.505.48.143.643-1.018.614-.459-.101-.286-.303-.433.345-.27.64-.314.222-.068.618.282.03.252-.736.11 1.055-.152.236-.18-.282-.253.059.244.606-.622.113.025.32-.749.122-.618-.252.214-.745.45-.05-.534-.677-.336.513-.488.201-.87-.193-.274-.484.324-.294.088-.067-.13-.383-.572.172-.476-.265-1 .917-.249-.425-1.543-1.181-1.59-1.826-1.337-1.177-1.435-2.065-.685-2.158.256-2.565-.164-.884-2.086-1.127-2.006.236-.332-.816-.35-.13-.277-.753.484-1.031.357-.042 1.439.32.252-.51-.32-1.072-.719-.84-.307-.707-.576-1.948-.063-1.59.248-1.564-.454-.543.16-1.005.984-1.308-.152-1.119.614-.53.144-.567.832-.963.034-1.018-.48-.757.08-.412.955-.455 1.102-.075 1.131 1.892.564-.875.908-.323.926-.72.117-.55.791-.122.917.53.353-.383.286-.968.042-1.089.337-.618 2.91-3.529.009-.589-.783-1.093-.004-.673.694-.686.921-.155.35-.715-.102-.442-.58-.42-.173-.631-.218-.156.042-.816-.539-.47-.21-.72-1.135-.787-.837-1.101z"/></g><g><path fill="#fff5e8" d="M106.157 201.765l-.622-3.066.033-.576-.475-.475-.896-4.025-.79.858-1.725-.16-1.568.34-3.445 2.154-3.091 1.304-1.695 1.905-.27.021-1.085-1.657-.424-.177-.703-.13-.748.664-.375.854-.063.997.169.315.614.341.227 2.027.853 1.51.825 1.018.79.614.938.34.122.737-.294 1.362-.652.804-.686.698-1.295.854-.963 1.29-1.17.838-.76.252-2.2.437-.896-.235.294-.757-.673-.677.858-1.695-.197-.35-1.645-.988-.84-1.19-1.965-1.102-1.333-.525-.69-.564-2.153.778-.778 1.001-.745-.168-.955-.833-.58-.122-1.333.282-1.253-.303-.417.13-.265.127-.025.433.374.66-.218.446-1.725 1.354-.698.03-.021-1.04-.278-1.072.295-1.232-.063-.601-.698-.703-2.284-1.177-2.902 7.04 1.043 1.884.584.37.244-.673.551-.525 3.264-1.775.53-.093.778-.538.475-.227.152.214-.009.072-.84.4-.426.672-.03.11-.348-.223-.947.412-1.337 1.056-.143.315-.833-.19-.441.346-.333 1.32.11.648 1.106 1.893 1.337 1.32.471-.223 1.266-.563 1.25.172.31-1.329.484-.904-.008-.16.168-.126v.004l.16.05-.097.06-.1.799-.472.954.42.896.804.265.686-.113.664-1.338.673.042.08-.105v.004l1.258.648.47.282.08.202-.5-.143.114.323.042.556-.56-.148.408-.281-.138-.564-.472-.303-1.316-.122-.252.06.038.685-.232.475-.984.828.42-.664-.752.063-.883-.231-1.868-.282-.824.08-.05.353-.682.454-.53.703 1.165 1.665 1.279 1.098 2.54 1.106 2.14.122.01-.273-.501-.585-.4-1.22-.11-.189.03-.311.198-.05-.08.344.42.926.35-.253h.151l-.03.093-.399.454.11.21 1.114.471.24-.088.694-2.019.353-.614.404-.26-.27-.14 1.346.051.202.063.442-.193.193-.476.312-.16.47.072.4.383.257-.278.038.097-.05.315-.375.017-.58-.395-.425.706-.665.333-.761-.05.092.36-.403-.411-.556.151-.23 1.27.113.556.244.454.189.303 1.413.458-.126.337-.652-.472-.273.152-.013.294-.03.093-.206.054.135-.618-.13-.05-.181-.143-.19-.194-.189.202-.311.21-.151.223-.333.05-.47.24.382.194.862-.042-1.249.404-.168.265-.42-.677-.253.02-.118-.008-1.064.063-.492.265-.03-.164-.29-.03-.172-.13-.282.093-.349-.18.021 1.025.803 3.21-.1.698.874.95.862-.37 1.115-.072-.374-.567-.038-.472.063-.1.21-1.001.122-.013-.063.252.063.173-.219 1.131.37.231-.041.644-.337.13.883.883 1.22.699 1.283.298 1.131.673.42.463.976-.168.396.155 3.146-1.724 1.102.177 1.388-.69.622-1.292.315-.21.888.539.416.698.795.282.972-.261.517-.837 1.266.1.681-.235 1.19-.656-.109-.971.152-.4.618.034.332.252.888-.219.845-1.724 1.152-.206 1.468.185 2.137-.921.504-.358-.323-1.038-.24-.438.088-.185 1.48-.761.08-2.23.295-.622.862-.597.374-.736.345-1.337-.458-1.49.097-.146.424-.493.808-1.64.143-1.106.74-1.972 1.052-1.914.16-2.528.533-1.535-.496-1.573z"/></g><g><path fill="#fff5e8" d="M134.458 190.822l-.071.382.273.648 1.686 1.548.75.311.592-.248.417-.862.525-3.462 1.451-.168 1.241.105.808-.391.744-1.211 1.434-.156.43-.971.74.546.353 1.792.715.955.206 1.215.837 1.102 1.135.787.21.719.539.47-.042.817.218.155.173.631.58.42.101.442-.349.715-.92.156-.695.686.004.673.783 1.093-.009.589-2.91 3.529-.337.618-.042 1.09-.286.966-.353.383-.917-.53-.79.122-.118.551-.926.72-.908.323-.564.875-1.131-1.893-1.102.076-.955.454-.08.413.48.757-.034 1.017-.832.964-.143.567-.614.53.15 1.119-.983 1.308-.16 1.005-.564-.088-1.35-.98-.294-.438-.093-.92-.521-.783-5.926-.362-.395-.433-.021-.307.23-1.203-.029-1.833 1.527-.425.837.715.324.038.887 1.055.307.03.274-.606-.337-1.228-.063-1.11 1.123-1.148.337-.728-.417-2.793-.26-1.072-.455-.45.009-.518 1.152-2.57.004-2.447-.273-.484-.16-1.383-.622-2.061 2.712.231z"/></g><g><path fill="#fff5e8" d="M87.61 166.239l.324.269.736-.156.294.152.118.286-.16.374.193.273.917-.105.114.337-.404.778-.097.811.118.442.454.328.896.223 2.498-1.232.656.883.274-.03.53.594.231-.026.824.938.95-.08.312-.214 1.077.063.446.845.03.513.357.257.201.732.312.235-.101.215.277.685 1.578-.353.18.16.614-.417.787-.172.736.593.231.892.61.454.332.845.063 1.434-.13.808-.681 1.657.025 1.75-.803 2.027-.909 1.493.539.904-.392 2.322.375 1.093.593.846.433 2.536.03.122-.791.854-1.72-.16-1.57.34-3.444 2.15-3.091 1.303-1.695 1.906-.273.016-1.086-1.657-.424-.172-.698-.135-.753.67-.375.849-.063.996.169.316.614.34.227 2.028.853 1.505.825 1.018.79.614.938.34.118.733-.29 1.362-.652.804-.681.698-1.296.854-.967 1.29-1.165.838-.761.252-2.204.437-.896-.24.294-.756-.672-.677.853-1.695-.197-.35-1.64-.988-.842-1.19-1.968-1.102-1.33-.526-.689-.563-2.153.778-.778 1-.745-.167-.954-.833-.58-.122-1.334.282-1.25-.303-.416.13-.269.126-.025.434.374.66-.218.446-1.72 1.358-.699.03-.02-1.04-.278-1.072.298-1.232-.063-.601-.698-.703-2.284-1.173.164-.488-.517-.95-.56-.438-.656-.038-.693-1.236-.816-.572-.295-.026-.185-.382.105-.248-.117.185.336-.295.404-1.526.244-.257 1.24-.366.354-1.573.731-.72.354-.823.147-.724-.24-.61-.589-.959-.517-.269v-1.194l.34-.412-.041-.934.206-.404.736-.681.19-.433.727-.337.332-.955.404-.29.038-.82.189-.328.925-.425.896.168.959-.16.706.152 2.793.046 1.384-.16.69.143.731.875-.845.95.883 2.297.311-.012 1.586-1.33.564.051.5.622.34.148 1.128-.43.635-1.425.4-2.086.105-.105.5.214.004-.685.37-.22-.063-.34-.496-.538.257-1.952.521-.698.64-.307.155-.357-.134-.354 1.358-2.897-.063-.585.198-.437.74-.77.904-.442.601-1.489-.18-.117-.324-1.043.366-1.216-.846-.345-.168-.353.076-.585.593-.723.656.059.374-.252z"/></g><g><path fill="#fff5e8" d="M62.505 154.303l.173-.072.256.702.433.207 1.885-.526.4.155.617.867.4.206.98-.097.967.26.82-.243.543.231.437-.908-.122-.265.345-.934 1.729-.563 2.422-.038-.458.176-.013 1.8.232.19 1.043-.597 1.543-.27.972.114.235.294-.118.577-.563.269-.963 1.266-.034.656.555 1.577.555.404.539.012.778.711 2.868 1.005-.639 1.01-.345.126-.63-.526-.783.164-.358.867-.916.61-1.01 1.042-.475.9-.72 3.407-.714 1.649-1.283 1.863-2.326 1.468-.955-.248-.458-1.127.067-.362-.437-1.342-.597-.933-.652-.22-2.932.131-3.272-.185-1.913.61-.35-.715-.353-1.594-1.198-2.57-.29-2.01.5-1.678-.34-1.182.05-.589.799-1.787.681-.631.917-.396.837-.69z"/></g><g><path fill="#fff5e8" d="M110.456 187.024l1.148-2.107.382.105.076.959.311.02.56.846.29.143.521-.139 2.09-2.267 2.516-1.623 2.6-3.12 1.025-.383.9-.884 1.392-.32 1.027.316.466.681-.054.223 1.152 2.738 1.216 1.41 1.505 1.16 1.228.64.884-.308.93-.887 1.181.147.64.484.597.9.378 2.364-.959 2.7-.753.151-2.712-.231.622 2.06.16 1.384.273.484-.004 2.448-1.152 2.57-.009.517.454.45.261 1.072.417 2.793-.337.728-1.123 1.148.063 1.11.337 1.228-.274.606-.307-.03-.887-1.055-.324-.038-.837-.715-1.527.425-.139-.614-.862-.564-1.14-.114-2.03.375-.253-.324-.35-.072.018-.227-.471-.31-.455-.039-.698.404-1.005-.589-.32-.412-.075-.635-.791-1.594.147-.904-.56-.265-.247-1.085-.257-.055-.795.475-.303-.311.21-.681-.172-.577.345-.121.126-.404-.55-.778-.564-1.531-.598-.757-1.619-.488-.164-.227.181-.989.26-.349-.1-.403.778-1.043.71-.48.316-.454.526-1.451-.152-.332-1.568-.715-.862-.034-1.027-.593-1.61.055-.038-1.523z"/></g><g><path fill="#fff5e8" d="M121 121.157l2.574-.265 1.345.134.64.358.475-.358.761-1.278.446-.227.45.18.618 1.308.396.13.496-.331-.03 1.026-.176.26-.433.03-.223.257-.888 2.742-.033 2.363.214.921-.231 2.944-.833 2.217-.64 3.344-.331.151-.455 1.43-.437.69-1.59 1.943-2.927 1.53-1.947.447-1.224.504-4.681.736-.59.194-3.137-.063-.77.088-.597-.198-.82-2.065.194-.576-.316-12.706.152-5.745.143-.16 1.127-.138 4.639-.198.74.265 3.865 3.407.396-.101z"/></g><g><path fill="#fff5e8" d="M217.422 68.643l.383-.37 1.753-.635 1.7.071 1.253.425.917.543 3.57 2.632 1.998 2.692 1.439 1.506-.421.648.665-.43 1.547 1.422.282 2.048-.505 4.984.324 2.713.126.214 2.852-.004.568 1.388-.261 1.27-2.179 3.18.341 1.19 1.022 1.476.77.766 2.38.984 1.317 2.595.76.673 1.645.925-.286 4.303.219 1.556-.463.98-2.418 1.682-3.954 2.38-1.417.602-2.607.383-2.68.197-5.24-.008-2.481.252-1.502-.298.244-.067.055-.4-.711-.892-1.085-2.22-.257-2.604-.517-1.594-3.848-2.982-1.052-.593-1.804-1.842-.139-.681.551-.803.837-.387 1.64-.265.35-.74-.169-1.203.202-3.63-.875-2.078-3.028-1.102-.37-.483-.366-3.007-.48-.72-3.103-1.257.084-.58 1.518-2.133 1.098-3.125.408-2.078.58-.853.606-.572 1.644-.37.627-.32.845-.736 1.081-1.556 2.54-1.38 1.14-1.581z"/></g><g><path fill="#fff5e8" d="M119.418 209.138l.846.71 2.245.75.438.61.197.567.16 3.562-.517.324.635 1.026-.118.862.152 1.452-.181.845-.374.378-.497 1.279-.765.707-.883 1.627-1.3 4.311-1.08.4-1.902-.476-.896.017-1.745.446-1.973-.467-2.826.06-.9-.173-.908-.694-.724-1.43-.774-.547-.11-.576.46-1.161.218-1.947-.19-.698-.89-.324-1.456.282-.635-.186 1.157-5.505.879-.35 1.261-1.61.682-.336 1.896.807 1.128-.113.996-1.94.391-1.492.75-.438 2.653-.488 2.263.526z"/></g><g><path fill="#fff5e8" d="M182.556 28.208l.753.497 2.523.307 1.32-.757.884-1.679 2.237-1.089 1.33-.265 1.186-.576 2.662-.824.93.525.895 2.01.29 1.83.614 1.064.471-.302 2.465-.783 2.099.934.853-.257.779.37.929 1.43.74 4.85.366 1.22-4.651 2.914-.05-.584-.35-.69-.416-.345-1.464.231-1.91.82-2.822 8.66.24.79.013.947-.5.395-2.62 1.056-4.602 1.569-2.3 1.278-2.591.194-1.355 1.91-.206 1.791.568.265 1.098-.017.891-.433 1.157-.114.761.21.614 1.86.219 1.817-1.056 2.102.232.732.496.467 1.615-.395.198 1.08.441 1.052 2.23 3.12 1.257.779 2.687.324 2.406.534 3.73.235.438.614-.463 1.144-.778.585-.605.328-1.7.416-1.064.572-.643.804-.017.757.467 1.442-.782.24-1.035-.26-.782-.573-.656-.071-2.356.585-2.397-.501-.568-.572-.34-.862.349-3.302-.227-.904-1.123-2.06-.48-.127-1.501.383-3.239.202-1.316-.089-.749-1.543-.967-.307-1.41.614-3.124-1.014-2.524-.462-.42.08-.034-.943.454-1.564 2.995-2.894-.374-.483-.88-.223-1.19-1.11-.622-1.157-.21-.841-.459-.417-2.128.063-.084-.824.21-.88 1.413-1.972.08-.862.446-.774-.08-1.034-.959-3.02-.526.223-.618.736-.976.597-.765.076-.576-.105-.004-1.081-.24-.606-1.32.105-.8.5v-.432l-.694-.303.223-.724.496-.584.034-2.36-.336-1.236-.387-.34-.778-.236-2.288-.236-.35-.177-.428-.584.24-.846-.463-1.295-1.603-.892-.475-.58-.19-2.49-3.271-.85-1.586.148-1.678.812-.728.567-.26 1.094-.787 1.518-.45-.47-.042-.825-1.476-2.642-.522-1.101-.349-.295-2.078-.05-1.202-.391-.249-.303-.029-1.62.315-1.43-.008-1.13.194-.127 4.37-.58 2.258.416 3.878-.328.492.517.593 1.969.286.395 1.118.702.837.219 1.102-.635.27.656.626.294 1.548-.23 1.758-.733 1.342-1.085.433-1.106.244-.315.84-.37.005-.362.534-.164 4.231.185 3.794.597 2.204-.315 2.548.328 4.219.189z"/></g><g><path fill="#fff5e8" d="M133.117 66.944l1.3.008 1.025-.282 1.758-1.61 2.02-1.195h.693l1.716-.521.513.08.475.344.135.526-.887 1.69.222 1.082.438.496 1.484.77 1.578.517 1.476 1.737.643.231 1.17-.012 1.03.248 2.263 1.863 1.51 2.7.16 1.632-.425 1.026-.425 2.065.505 2.545-.084.727-.303.463-1.493.404-.232.332.253.875.446.45 2.952.408.833 1.156.673.442 1.261.27.442-.123-.223 1.666-.988 1.766.113.307 1.174.736 1.064 1.14-.156.122-.088 1.22-.232.601-.555.656-.92.307-.8.59-.896 2.09-.092 1.14.572 1.185.315 1.48-1.005.83-.143.462.076.828-.295 3.285.223.883-.176.45-.804.652-.168 1.296-.74.538.088 1.994-.441.588.042.488 1.37 2.22 1.082 1.296.719.51.42.878.05 1.434-.702 1.657-.458.24-1.114 2.36-1.393 2.27-.345.304-.677.176-1.038-.054-.253-.8-2.246-2.485-1.602-.101-.631-.526-.56-.092-.542.412-.374.799-1.75 1.998-.988.673-.484.088-.564-.404-.168-.55.021-4.08-.433-.678-1.775-1.026-.134-1.367-1.233-1.123-.462-.164-.425.148-.694.891-.395 1.068-.972.884h-.463l-.736-.446-.563.105-1.026-.753-.391-.059-.631.257-.295-.332-.252-.791-.316-.046-.563.429-.496.332-.396-.13-.618-1.309-.45-.18-.446.227-.761 1.278-.475.358-.64-.358-1.345-.134-2.574.265-.518-.177-1.034.252.58-1.737-1.426-1.169.038-.976.236-.39 1.03-.543.332-.366.253-1.174 1.3-1.333-.245-.79-1.261-.682.349-1.27-1.523-.572-.475-.324-.072-.383.122-.269.37-.176 1.359-.173.265-.635-.042-1.3-.387-1.631-.067-2.129-.14-.424-.575-.282-5.413.034-2.805-1.048-.72-.698-.433-.833.383-.521.913-.572.68-.707.358-.622 1.784-1.094.429-.753.13-.832-1.359-.736-2.03-.698.567-1.742.02-1.08-.832-1.599-.677-.185-.946.282-.585-.059-.118-1.893-.202-.807-.256-.214-1.99-.21-.496.504.282 1.005-.27.412-1.669-.235-3.209 1.203-.437-1.12-.43-.42-1.223.055-.883.257-1.035.63-2.351 1.893-2.263 2.948-.593.375-.601-.253-.513-1.48-1.283-.841-.093-.577.14-.971.773-.757-.1-1.603.31-.84-.059-.623-.605-1.001.168-2.015 1.279-2.262.706-.05.539-.32 1.202-1.75L95.87 76.1l2.372-.4 3.34.24 1.98-.26.98-.636 1.279-1.304.635-1.358.269-1.493.72-1.434.357-.48 1.156-.744.984-1.001.425.012 1.855.37.816-.075.572.378.332.732-.097.45-1.215 1.132-.164.555 2.67.811 1.788 1.805.736.097 1.131-.64.58-.803-.76-1.413-.05-.858 1.45-.459.82.047 1.165.462.59-.038.243-.227-.004-.584.505-1.25 1.287-1.089.584-.118 2.852.964.862.727.408.665.66.328 2.364-.942.353-.862z"/></g><g><path fill="#fff5e8" d="M38.158 17.87l2.784-.058.782.31 1.948-.664.32.13.693.892 1.342.766.446.462 4.02 1.313 1.241.87 1.287.286.766-.18.265-.236 1.047-1.552.488-.13.454.37.168.525-.681 1.653.038 1.01-.598 1.253-.176 1.556.782.904.757 1.8-.076 1.397-.546 2.549.016.858.707 2.321-.1 3.373-.27.656-.43.017-1.332-.858-1.127.009-1.662.496-.538.622-.425 1.59-.059 4.18.332 5.49-.891 4.117-1.098 2.368-.488 2.006 1.073 1.535.32.214 1.169.122.719-.567 1.01-1.262 5.046-2.292.71-.05.796.36.858-.302.324.736.395.03.681-.408.362-.202h.765l1.73.946 2.666-.614.344-.976.446-.26.332-.064.383.27.88.13 1.518-.274.454.24.71 1.388 1.208.046 1.535 1.014 2.3-.32 1.594.21 1.048-.247.513-.341 2.04.26 1.829.745.593.904-.004 1.04-.862 2.729v.504l2.262 1.14.812 1.266.58 3.188.089 2.305L87 73.02l-.778-.151-1.439 1.16-.538.926-1.653.172-5.089 2.137-4.488.29-.69-.526-.15-1.69.155-2.023-.202-.749-1.577-1.039-.34-.53-.413-2.738-.71-.673-1.195-.298-1.531-.017-4.147.669-3.31.77-1.863.68-2.04 1.09-.576.87.067.648.366.53 1.527.846 2.27.92 2.255.224.442.845.719-.013.328.312.471 2.759-.105.45-.917.61-.265.618.206.61 1.153.685.492.572-.03.87-.425.627-1.598.408-2.195 1.11-2.103-.218-.652.177-.379.315-.016 4.033-.19.577.526 1.19.761.828.783 1.275.315 1.026-.118.643-.744.896-1.11.66-1.422.11-3.12 1.051-.211 2.46-.236.203-1.816-.194-.598-.416-.008-.96.433-1.379.122-1.657-1.232-1.119-.471-1.013.075-2.658.615-1.371.773-.841.623-.425 1.649-.606 1.943-1.863 1.022-4.504.084-1.704-.215-.311-1.215-.446-.665.042-3.533-2.397-2.203-.71-1.237.029-1.893.357-2.603-.151-5.118.34-.783-.122-1.468-.597-4.643-2.557-1.215-.151-.375.218-.542-.004-5.102-4.323 1.821-8.576.892-1.981 2.057-1.758-.345-1.371-1.018-.766-.24-2.048 1.333-1.615-.992-3.684.164-2.196.534-1.808-.391-6.666 4.55-3.924 3.252-2.545 4.008-6.149.875-4.05z"/></g><g><path fill="#fff5e8" d="M146.306 34.933l1.476 2.642.042.824.45.471.787-1.518.26-1.094.728-.568 1.678-.811 1.586-.147 3.272.85.19 2.489.474.58 1.603.892.462 1.295-.24.846.43.584.349.177 2.288.236.778.235.387.34.336 1.237-.033 2.36-.497.584-.223.724.694.303v.433l.8-.5 1.32-.106.24.606.004 1.08.576.106.766-.076.975-.597.619-.736.525-.223.96 3.02.08 1.034-.447.774-.08.862-1.413 1.973-.21.879.084.824 2.128-.063.459.417.21.84.623 1.157 1.19 1.11.879.224.374.483-2.994 2.894-.455 1.564.034.942-2.322.913-.48-.038-.479-.45-.71.126-1.043.66-.282.463-1.994 1.754-1.114 1.729-1.153 1.35-.858.214-1.135-.067-.43.18-.672 1.923-.19 1.472.169 2.898.19.837 1.623 1.82.323.703.034.841-.56 1.62-1.089 1.72-.416.235-.442.122-1.261-.269-.673-.441-.833-1.157-2.952-.408-.446-.45-.253-.875.232-.332 1.493-.404.303-.463.084-.727-.505-2.545.425-2.065.425-1.026-.16-1.632-1.51-2.7-2.263-1.863-1.03-.248-1.17.012-.643-.23-1.476-1.738-1.577-.517-1.485-.77-.437-.496-.223-1.081.887-1.69-.135-.527-.475-.344-.513-.08-1.716.521h-.694L137.2 65.06l-1.758 1.61-1.026.282-1.3-.008-1.514-1.127-.466-.95-.328-1.52.639-1.122.03-.93.765-.685 1.577-.433 1.03-.715 1.14-.03.4-.244-1.321-3.28.282-1.708-.88-1.926.362-2.662-.294-5.182.114-1.215.916-.96 1.788-.996 3.213-1.001 1.548-.812.328-.357.475-1.847.9-1.938.539-.22z"/></g><g><path fill="#fff5e8" d="M92.362 136.138l.926.24 1.165.664 1.48 1.367 1.165 1.817 1.072 3.47 1.56.967 1.14 1.131 2.301 3.058 1.144 1.068.686.105.138-.147.261-1.215.522-1.064.08-.11.416.37.194-.038.025-1.249 1.501-.731.471-1.367 3.138.063.589-.194-.253 1.11-.652 1.12v.361l.345.71.921 1.12.227 2.595-.492 1.98-.016 1.973-.678.702-.357.892-.072 1.573.29.236 1.792-1.241 3.895-1.712 5.215-1.417 2.974-.295 1.505.286 3.239.24-.135 1.194.227 2.47.79 1.354 1.137 1.097.307.778.004 2.902.24 2.865.521 2.325.534.442 1.392-.135.623.198-.152.761-.517.51-.198.542-.176 1.653-.816 2.452-1.388 1.308-2.709 1.312-.403.605-.143 1.86h-.74l-.568-.442-.345.042-1.418-1.384-.353-.244-.172.21-.467-.68-1.026-.316-1.393.32-.9.883-1.026.382-2.599 3.121-2.515 1.624-2.09 2.266-.522.14-.29-.144-.56-.845-.31-.021-.076-.96-.383-.104-1.148 2.107-.564.786-.648.362-.942.972-.521 1.732-.025 1.149-.774 1.055-.602.375-1.51-.278-.702.324-.433-2.536-.593-.846-.375-1.093.392-2.322-.539-.904.909-1.493.803-2.027-.025-1.75.681-1.657.13-.808-.063-1.434-.332-.845-.61-.454-.231-.892-.736-.593-.787.172-.614.417-.18-.16-1.578.353-.277-.685.1-.215-.31-.235-.202-.732-.358-.257-.03-.513-.445-.845-1.077-.063-.311.214-.95.08-.825-.938-.231.026-.53-.593-.273.029-.657-.883-2.498 1.232-.896-.223-.454-.328-.118-.441.097-.812.404-.778-.114-.337-.917.105-.193-.273.16-.374-.118-.286-.294-.152-.736.156-.324-.27-.097-.327-1.994-1.754-.858-1.136.3-1.741-1.057-.18-1.943.37-2.868-1.006-.778-.71-.538-.013-.556-.404-.555-1.577.034-.656.963-1.266.564-.27.117-.576-.235-.294-.972-.114-1.543.27-1.043.597-.232-.19.013-1.8.458-.176.316-.606-.345-1.013-2.002-1.086-.055-.248-1.017-.761-.03-.282-1.014-1.03-.807-1.556.071-.417.9-1.022.964-1.644 1.56-1.7 1.514-.962.745 1.102.912.74 2.961 1.266.774.033 1.16.455 1.561-.089.896.29 1.649-.05 2.65.64 1.274-.211.66-1.581.27-2.73.97-3.276z"/></g><g><path fill="#fff5e8" d="M135.686 14.682l3.853.568 2.183.58 1.505.817 1.228 1.051 1.149.307 4.16 4.054 1.383-.37 1.228.16 1.274.652.963.736.779.888.437 1.026 1.245.576 2.212.534 5.093 1.649-.004.361-.841.37-.244.316-.433 1.106-1.342 1.085-1.758.732-1.548.231-.626-.294-.27-.656-1.101.635-.837-.219-1.119-.702-.286-.396-.593-1.968-.492-.517-3.878.328-2.258-.416-4.37.58-.194.126.009 1.131-.316 1.43.03 1.62.248.302 1.203.392 2.077.05.35.294.521 1.102-1.947.152-.539.219-.9 1.938-.475 1.847-.328.357-1.548.812-3.213 1-1.788.998-.916.959-.114 1.215.294 5.182-.361 2.662.879 1.926-.282 1.708 1.32 3.28-.399.244-1.14.03-1.03.715-1.577.433-.766.685-.03.93-.638 1.123.328 1.518.466.95 1.515 1.128-.417.462-.353.863-2.364.942-.66-.328-.408-.665-.862-.727-2.852-.964-.584.118-1.287 1.09-.505 1.249.004.584-.244.227-.589.038-1.165-.462-.82-.047-1.45.459.05.858.76 1.413-.58.803-1.13.64-.737-.097-1.787-1.805-2.671-.811.164-.555 1.216-1.132.096-.45-.332-.732-.572-.378-.816.075-1.855-.37.009-.98.525-2.565-.378-1.552-.803-.8-.068-.45.19-1.58.656-1.742.273-1.682.631-.353 2.78-.055.538.366 2.053-1.67.231-1.346 1.405.341.795-.681-.21-.82-.488-.602-1.128-.963-1.064-.488-.53-.509.766-1.527.458-2.17-.4-1.039.055-.706-.29-1.283-1.051-2.187.168-1.501-.551-1.35-.164-1.998-.42-2.175.029-2.544-.416-2.595.605-4.55 2.044-.661 2.22-2.254 3.66.328 1.506-.312 9.841-5.95.538-.14z"/></g><g><path fill="#fff5e8" d="M26.21 99.312l2.262-.387 4.76-.147 1.523.39 5.88 6.671.837 1.304 2.36 2.725.963.665.715-.076.437.202.113 1.236-.307 1.956.026 2.263.37 1.548.547.164 3.183-.333.354.312.18.68-.08 1.444.148.588.277.43 1.35 1.013 1.279.164.45.231.379.888.31 2.292.796.555.84-.004 3.853-1.497 1.014-.068 2.67 1.266.598.463 2.67 3.04.947.29 1.665-.487 1.901.34 1.57.678.268-.114 4.95 3.079 2.183 1.543.391.627.615.299.773.252 2.07.135 1.425-.383 3.163-.13 3.474.719-1.034 1.409-.972 3.276-.27 2.73-.66 1.581-1.274.21-2.65-.639-1.648.05-.896-.29-1.56.089-1.161-.455-.774-.033-2.96-1.266-.914-.74-.744-1.102-1.514.963-1.56 1.699-.964 1.644-.9 1.022-.071.417.807 1.556 1.014 1.03.03.282 1.017.761.055.249 2.002 1.085.345 1.013-.316.606-2.422.038-1.729.563-.345.934.122.265-.437.908-.543-.23-.82.243-.967-.26-.98.096-.4-.206-.618-.866-.4-.156-1.884.526-.433-.206-.256-.703-.173.072-.164-.227-.702.336-1.468.055-.623-1.334-.916-.243-1.994.715-1.114-.16.033.37-.076-.358-.15.038-1.494.677-1.094.13-3.478-.092-.206-.277-.61-.03-.298-.395-.8-2.023-.163-1.165-.328-.278-.013-.336-1.455-.947-1.241-1.783-.513-1.447-.038-.883-.332-1.165-.829-1.106-1.261-2.99-.699-.804-.555-2.225-.34-.664.433-1.893.875-.652.147-.672.24-.249 1.328-.879.985-1.329-.068-.546-.55-.328-1.19.757-.93.033-1.611-.454-.463.055-1.01-.648-2.396-.732-1.367-1.018-.711-.858-.227-1.043-1.716-1.034-.858.038-1.607.874-.71 1.56-.01 1.115-.188.467-1.86 1.443-2.792 1.228-2.435 1.388-1.047.816-.476.109-1.266.93-2.944 1.37-.39.064-.224-.316-.189.046-.383-.475-.29-.08-1.08.114-2.915 2.326-.699.277-1.644 1.447-.08.416-.63.333-1.717.303-1.333.008-1.342 1.17.236-.75-.248-.572-.004-1.488-.3-.379.102-.606.231-.584-.164-1.14-.408-.753.311-.589.602-.382-.168-1.405.29-.097.143-.723-.084-.26.008-.371.29-.69.181-.656-.172-.32-.114-.323-.147-.328.055-.493.105-.727.067-.29 2.259.075.298-.067.442-.496 1.493-.236.277.345.522.19.627-.043 2.081-.727.106-.74.82-1.632.071-1.573.804-.791-.143-2.448-.539-1.686.13-.597.488-.791 1.04-.58.344-.77 1.09-1.523.357-1.304.437-.248.9.105.88-.727.041-.513-.563-1.077-.135-.812.156-.563.467-.513 2.839-1.136 1.425.101.48-.126.85-.867.05-.546.993-1.09.24-1.013.104-2.09.358-.463.875-.362z"/></g><g><path fill="#fff5e8" d="M1.416 194.906l.526.168 1.434-.181.816.374 1.455-1.026v-.677l.172-.046 1.493.223 5.767-.08.445-.425.324-1.661.875-.694.038-.989.572-1.056.778.106 1.434.601.505.337.34.601 1.923-.202-.215-.61.669-.446 15.805.164.45.089.227.378-1.148 1.212-.097.395.307.521.017.614.921.459 1.355-.909 1.45-.172.446.623.05.4-.47.445-1.178.55-.235.434.092.294.387.312 1.165.324.475.55.244.06.471-.245 2.217.274.147.526-.151.992-4.009-.484-.92-.281-5.056-.774-3.613-.194-4.168.396-6.355.067-.24.13-.08.555-.222-.042.1.143-2.279-.344-2.532.004-9.084.307-3.992.462-.151-1.308z"/></g><g><path fill="#fff5e8" d="M129.2 120.808l.564-.43.316.047.252.79.295.333.63-.257.392.06 1.026.752.563-.105.736.446h.463l.972-.884.395-1.068.694-.891.425-.148.462.164 1.233 1.123.134 1.367 1.775 1.026.433.678-.02 4.08.168.55.563.404.484-.088.988-.673 1.75-1.998.374-.8.543-.411.559.092.63.526 1.603.1 2.246 2.486.252.8 1.04.054.676-.176.345-.303 1.392-2.271 1.115-2.36.458-.24.711.694 1.018.047.875.357.265 1.884.812 1.434.908.413 2.237.235h1.557l1.165-.568.437.236.845.93-.332 1.232-1.135 1.686-.888.833-.593.084-.614.442-.652 1.203-.652.572-.134.946.269.723.879 1.022.134.522-.126 2.275.606.87 2.166 1.14 1.54.547 3.444-.063 4.105-1.173 4.357 1.82 1.06.871.614 1.128-1.085 1.547-1.153.345-1.897-.4-.138-.172-.64.097-.42-.45-.728-.379h-.782l-.538.362-.56.9-.307 1.203.72.572.853 1.056.147 1.21-.227.274.42 1.127-.045.5-4.724 3.033-.508.585-4.959-3.756-.004.295-1.666.092-2.052-.172-2.885-.652-4.244-1.565-1.127-.185-1.09.076-.58.118-1.661.925-.522.593-.429 1.203.034 1.06 1.977 4.895-.038.572-.48.463-2.241-.938-1.397-1.178-.45.06-2.208-.417-2.069-1.186-3.663-1.493-3.58-.526-3.84-1.043-3.238-.24-1.505-.286-2.974.295-5.215 1.417-3.895 1.712-1.791 1.24-.29-.235.07-1.573.358-.892.678-.702.016-1.973.492-1.98-.227-2.595-.92-1.12-.346-.71v-.362l.652-1.118.253-1.11 4.68-.737 1.225-.504 1.947-.446 2.927-1.531 1.59-1.943.437-.69.455-1.43.332-.151.64-3.344.832-2.217.231-2.944-.214-.92.033-2.364.888-2.742.223-.257.433-.03.176-.26z"/></g><g><path fill="#fff5e8" d="M27.32 73.042l.374-.218 1.215.151 4.643 2.557 1.468.597.783.122 5.118-.34 2.603.151 1.893-.357 1.236-.03 2.204.71 3.533 2.398.665-.042 1.215.446.215.311-.084 1.704-1.022 4.504-1.943 1.863-1.65.606-.622.425-.774.84-.614 1.372-.075 2.658.47 1.013 1.233 1.12-.122 1.656-.433 1.38.008.959.598.416 1.816.194.236-.202.21-2.46 3.121-1.052 1.422-.11 1.11-.66.744-.896.118-.643-.315-1.026-.783-1.275-.76-.828-.527-1.19.19-.577.016-4.033.379-.316.652-.176 2.103.219 2.195-1.11 1.598-.409.425-.626.03-.871-.492-.572-1.153-.686-.206-.61.265-.618.917-.61.105-.45-.471-2.759-.328-.31-.72.012-.44-.846-2.255-.222-2.271-.921-1.527-.846-.366-.53-.067-.647.576-.871 2.04-1.09 1.863-.68 3.31-.77 4.147-.67 1.53.018 1.195.298.711.673.412 2.738.34.53 1.578 1.039.202.749-.156 2.023.152 1.69.69.526 4.487-.29 5.09-2.137 1.652-.172.538-.925 1.439-1.161.778.151.572.463 1.396 1.85 1.598 2.793.67 1.72-.03.354-1.279 2.262-.168 2.015.605 1 .06.623-.312.841.101 1.603-.774.757-.139.971.093.577 1.283.84.513 1.481.601.253.593-.375 2.263-2.948 2.351-1.893 1.035-.63.883-.257 1.224-.055.429.42.437 1.12 3.21-1.203 1.669.235.27-.412-.283-1.005.497-.505 1.989.21.256.215.202.808.118 1.892.585.059.946-.282.677.185.833 1.599-.021 1.08-.568 1.742 2.032.698 1.358.736-.13.833-.43.752-1.783 1.094-.357.622-.681.707-.913.572-.383.521.433.833.72.698 2.805 1.048 5.413-.034.576.282.139.425.067 2.128.387 1.631.042 1.3-.265.635-1.359.173-.37.176-.122.27.072.382.475.324 1.523.572-.35 1.27 1.262.681.244.791-1.3 1.333-.252 1.174-.332.366-1.03.542-.236.391-.038.976 1.426 1.17-.58 1.736 1.034-.252.518.177-3.638 5.19-.396.1-3.865-3.406-.74-.265-4.64.198-1.126.138-.143.16-.152 5.745.316 12.706-.194.576.82 2.065.598.198.77-.088-.472 1.367-1.501.731-.025 1.25-.194.037-.416-.37-.08.11-.522 1.064-.26 1.215-.14.147-.685-.105-1.144-1.068-2.3-3.058-1.14-1.131-1.56-.967-1.073-3.47-1.165-1.817-1.48-1.367-1.166-.665-.925-.24-3.474-.718-3.163.13-1.425.383-2.07-.135-.773-.252-.615-.299-.39-.627-2.183-1.543-4.95-3.079-.27.114-1.569-.677-1.9-.341-1.666.488-.946-.29-2.671-3.041-.597-.463-2.671-1.266-1.014.068-3.852 1.497-.841.004-.795-.555-.311-2.292-.379-.888-.45-.231-1.279-.164-1.35-1.014-.277-.429-.147-.588.08-1.443-.181-.681-.354-.312-3.183.333-.547-.164-.37-1.548-.026-2.263.307-1.956-.113-1.236-.437-.202-.715.076-.964-.665-2.359-2.725-.837-1.304-5.88-6.67-1.522-.391-4.761.147-2.263.387.206-1.27-.824-.295-.883-.85-.736-1.488 1.295-2.932-.059-.71.374-.48 1.086-.56 2.557 1.342.42-1.312.105-1.258 1.186-2.704-.277-2.607-1.131-.8-1.25-2.355.51-1.934.054-.858-.517-2.124-.896-.345.176-.82-.117-.82.214-.82z"/></g><g><path fill="#fff5e8" d="M.385 157.785l2.511-1.804 1.468-.089.8.392.52.752.173.602.063 2.725.236.993.55.912.354.055.395-2.338.24-.526.198-.19h.576l.37.257.227.736-.067 1.3-.732 2.515-.172-.101-.215.24.219 1.539.892 1.056 1.282 1.039.43 1.278 1.345 1.897 1.266.993.984.475 1.704.117.731-.206 1.17-1.67.48-1.783.68-.622 1.094.122.736 1.825.669.476.429-.11.475-.467 1.039-.252 2.607.093.492.794.14 2.38.172.3 1.253.513.27.462-.043.934.463 1.136.172 1.207-1.67 1.686-.138.475.155.118 2.562-.105 1.135-.244 1.279.055 1.337-.522.635-.576 2.478-.37 1.152-.454.589-.467.395.164.219.353.248 1.8.828-.004 1.62-.833 1.425.248 1.25 2.99 1.287-.824.462-.008.484.29.891-.387 1.75-.109.13.055-.126.424-.315 2.314-.446 1.37-.988.884-.867.408-1.526 1.38-1.254 2.069.013 1.434.845.828 2.023.341.77-.055.597-.445.694-.955.74-.215.274.328-.009 1.88.358 1.502-.303.761-1.026.278-.324.48-.471.285-1.01.046-.555.564.412.18 1.174-.104 1.388.732.088.454-.345.723-1.686-.118-2.103-.942-1.842-.39.151-.993-.147-.526-2.217-.273-.47.243-.245-.058-.475-.551-1.165-.324-.387-.311-.092-.295.235-.433 1.178-.551.47-.446-.05-.4-.445-.622-1.451.173-1.355.908-.92-.458-.018-.614-.307-.522.097-.395 1.148-1.212-.227-.378-.45-.088-15.805-.164-.669.445.215.61-1.922.202-.341-.601-.505-.337-1.434-.601-.778-.105-.572 1.055-.038.989-.875.694-.324 1.66-.445.426-5.767.08-1.493-.223-.172.046v.677l-1.455 1.026-.816-.374-1.434.18-.526-.167.176-1.38.476-.496.265-.648-.564-1.573.547-.908.887-.757.084-1.153-.088-.404-.9-.117-.328-.164-.172-.362-.072-.765.505-.8-.143-.45.202-1.455-.093-.412-.547-.059-.227-.256.063-1.203.59-.677 1.286-.75-1.034-.937-.202-.404.786-.925.248-.808-.277-1.96-.644-.698-.05-4.075.997-.034.344-.202.017-.302-.176-1.472-1.128-.858-.092-.74-.412-.64-.126-1.766.105-3.769-.126-.4-.345-.146-.408-1.086-.711-.912z"/></g><g><path fill="#fff5e8" d="M81.961 161.47l1.943-.37 1.056.18-.299 1.741.858 1.136 1.994 1.754.097.328-1.03 1.468-.38.252-.655-.059-.593.723-.076.58.168.354.85.345-.37 1.215.323 1.048.177.117-.601 1.49-.905.44-.74.77-.198.438.064.585-1.359 2.897.135.35-.156.357-.635.307-.522.702-.26 1.948.496.538.067.345-.37.214-.004.686-.5-.215-.106.106-.4 2.086-.634 1.425-1.127.434-.341-.152-.5-.622-.564-.05-1.586 1.328-.311.013-.883-2.296.845-.947-.732-.879-.69-.143-1.383.164-2.793-.046-.706-.151-.96.16-.89-.165-.926.425-.194.328-.038.825-.399.286-.332.954-.728.337-.19.437-.74.677-.205.404.037.934-.336.416v1.195l.517.269.585.959.244.61-.152.723-.349.824-.732.72-.357 1.572-1.237.362-.243.26-.404 1.523-.337.295.118-.185-.105.252.185.383.294.02.816.573.694 1.236.656.042.56.438.521.95-.164.488-2.902 7.04-2.044-2.498-3.857-3.886-6.233-5.03-1.135-.698 1.682.118.35-.728-.089-.45-1.388-.732-1.173.105-.413-.18.556-.568 1.01-.042.466-.286.328-.48 1.026-.277.303-.766-.353-1.501.004-1.88-.27-.328-.744.214-.694.955-.597.446-.77.054-2.018-.34-.846-.825-.012-1.434 1.253-2.069 1.527-1.38.866-.403.988-.884.45-1.366.312-2.318 1.123-.597.904-2.09 1.804-1.447.976-.009 1.056.522 1.224.934.76.012.27-.53-.097-.685.173-.888-.194-1.674.656-2.75.354-.24 2.464-.669-.26-1.009 1.913-.61 3.272.181 2.932-.13.651.223.598.929.433 1.342-.067.361.458 1.132.959.248 2.326-1.472 1.278-1.863.72-1.649.715-3.407.475-.9 1.01-1.043.916-.61.358-.866.782-.16.63.522.346-.127.626-1.026z"/></g><g><path fill="#fff5e8" d="M49.265 154.21l3.479.093 1.093-.13 1.493-.678.152-.038.075.358-.033-.37 1.114.16 1.994-.716.916.244.623 1.334 1.468-.055.702-.336.164.227-.64 2.229-.836.69-.917.395-.681.63-.8 1.788-.05.589.34 1.182-.5 1.678.29 2.01 1.2 2.57.353 1.594.349.715.26 1.014-2.464.664-.354.244-.656 2.75.194 1.675-.168.887.096.686-.269.53-.761-.013-1.224-.934-1.056-.521-.975.004-1.8 1.45-.905 2.087-1.123.601.126-.424-.13-.055-1.75.11-.891.386-.484-.29-.462.008-1.287.825-1.25-2.99-1.425-.249-1.62.833-.828.004-.248-1.8-.219-.353-.395-.164-.59.467-1.151.454.984-4.139.18-2.224.703-3.668-.366-.206-1.283-2.052-1.308-.98-.113-.392-.06-.37.484-.458.328-.74.366-3.9.253-.117 1.808.564.976-.316.328-.416.055-.967.446-.24 1.181-1.396 1.266.773 1.51 2.339.896-.391.273-.602.863-.488.412-.584.118.164.77-.635.962-.32.105.16.417-.564.13-.538z"/></g><g><path fill="#fff5e8" d="M2.244 141.172l1.342-1.17 1.333-.008 1.716-.302.631-.333.08-.416 1.645-1.447.698-.277 2.914-2.326 1.081-.114.29.08.383.475.19-.046.222.316.391-.064 2.944-1.37 1.266-.93.476-.11 1.047-.815 2.435-1.388 2.793-1.228 1.859-1.443.189-.467.008-1.114.711-1.56 1.607-.875.858-.038 1.716 1.034.227 1.043.71.858 1.368 1.018 2.397.732 1.01.648.462-.055 1.61.454.93-.033 1.19-.757.551.328.068.546-.984 1.33-1.33.878-.24.249-.146.672-.875.652-.433 1.893.34.664.555 2.225.699.804 1.261 2.99.829 1.106.332 1.165.038.883.513 1.447 1.24 1.783 1.456.947.013.336.328.278.164 1.165.799 2.023.298.395.61.03.206.277.223 1.346-.13.538-.417.564-.105-.16-.963.32-.77.635-.117-.164-.412.584-.863.488-.273.602-.896.39-1.51-2.338-1.266-.773-1.181 1.396-.446.24-.055.967-.328.416-.976.316-1.808-.564-.253.118-.365 3.899-.329.74-.483.458.059.37.113.392 1.308.98 1.283 2.052.366.206-.702 3.667-.181 2.225-.984 4.139-2.478.37-.635.576-1.337.522-1.279-.055-1.135.244-2.562.105-.155-.118.139-.475 1.67-1.686-.173-1.207-.463-1.136.042-.934-.269-.462-1.253-.514-.173-.298-.139-2.38-.492-.796-2.607-.092-1.04.252-.474.467-.43.11-.668-.476-.736-1.825-1.094-.122-.68.622-.48 1.784-1.17 1.67-.731.206-1.704-.118-.984-.476-1.266-.992-1.346-1.897-.429-1.278-1.282-1.04-.892-1.055-.219-1.54.215-.24.172.102.732-2.515.067-1.3-.227-.736-.37-.256h-.576l-.198.189-.24.526-.395 2.338-.353-.055-.551-.912-.236-.993-.063-2.725-.172-.602-.522-.752-.799-.392-1.468.089-2.51 1.804.45-.875.307-1.808.559-1.746-.126-.47.155-1.136.476-.95.151-1.216-1.026-1.287-.492-1.678.033-.85.442-.786-.185-.863.202-.294.525-.126.577-1.212-.181-.185.307-.407.004-.45z"/></g><g><path fill="#fff5e8" d="M159.382 93.903l.643-.206 1.338.034 1.169.37 1.098 1.75.328 2.018-.017 5.207 4.614-.921.445.088.757.808.408 1.316.11 2.498-.097.492-1 1.88-.039.711.253.358 1.648.597.333.299.378.487.694 1.712.656.564.635.223 2.019.113 2.3.623 4.223-.248 1.847-.593 1.215-2.192 2.002-.546.21-.703-.113-.732-1.333-1.707.126-.606 1.274-.748 3.196 1.66 1.081.215 3.895 2.074 4.656 1.993 2.599 1.7 2.675 1.442.656 1.657.088.904-.214 1.716.32 2.507.967 1.624.441 2.531-.231.56.126.946h.181l.088 2.33-.748 1.295-5.123 2.465-.799-.046-4.004.883-1.047.606-.867 1.762-1.993 2.406-2.99 1.581-3.23 3.217-1.023.5-1.854.426-1.729.227-1.62-.105-.613-1.127-1.06-.871-4.357-1.821-4.105 1.173-3.445.063-1.539-.546-2.166-1.14-.606-.87.127-2.276-.135-.522-.88-1.022-.268-.723.134-.946.652-.572.652-1.203.614-.442.593-.084.888-.833 1.135-1.686.332-1.233-.845-.929-.437-.236-1.165.568h-1.556l-2.238-.235-.908-.412-.812-1.435-.265-1.884-.875-.357-1.018-.047-.71-.694.702-1.657-.05-1.434-.421-.879-.72-.509-1.08-1.295-1.371-2.22-.042-.489.441-.588-.088-1.994.74-.538.168-1.296.804-.652.176-.45-.223-.883.295-3.285-.076-.828.143-.463 1.005-.828-.315-1.48-.572-1.187.092-1.14.896-2.09.8-.589.92-.307.556-.656.23-.601.09-1.22z"/></g><g><path fill="#fff5e8" d="M108.08 238.747l.386-.332.034-.472.542.379.673.265-.403.492.18.778.114.135-.013.244-.252.395.093.27.424.13.53.567.87 1.834-.39.257-.177.353.063.383 1.325.778.252 1.22.37.555-.05.584.202.677.622.476-.47.584-.404.152-.362-.21-.252.172-2.684-.585-.34-1.068.222-.261-.252.008-.572-1.636-.34-.799.041-.866.686-.656-.071-.568-.762-.698-.71-.484-.32-1.707-.122-.244.008-.766-.324-.454.522-.311.37.265h.282l.126.235zm20.14 7.671l-.218.488.08.513-2.494.059-1.758.387-2.3-.324.29-1.01.18-.062.774-.312-.025-.092-.45-.013-.143-.118-.067.169-.353-.13-.152-.577-.097-.282-.492-.45-.038-.033h-.723l.009-.333.096-.243.202-.101.564.037.382.194.526.143-.008.177.433-.009.521-.143.038.34.223.131.265.265.181.097.193-.017.56.021.517-.366.11-.118.584-.004.072.215.151.143.437.378.379-.223.37.627-.147.227.135.055.176-.194.168.152.009.008.37.151.18.013.29.164zm-9.05-1.813l-.997-.68-.652-.99-.012-.113-.202-.715-.202.181-.168-.151.18-.282-.012-.627-.05-.03-.24.779-.947-.295-.222-.042-.37-.454-.03-.64-.151-.121-.03-.194-.11-.071-.062-.273.21-.333-.412-.513-.34.223-.144.374.274.648-.867.324-.172.151-.391.16-.22.021-.42.324-.193.26-.038-.634-.244.311-.092.214.42.694.231 1.03-.55.19-.223.088-.58-.677-.3-.799-.61-1.013-.63-.215.235-.652-.286-.933.413-.341.147-.202-.223-.282-.761-.1-.762-.468-.117.67-.375.239-.139-.324-.534-.059-.143-.143-.269.08-.324.013-.26-.366-.08-.06-.232.173.08.417-.059.139.194.13.534.534-.05.644.412 1.951 1.354 1.392.008.496-.76.614-.043.245.766 2.758.23 1.397 1.014 1.043-.122.139-3.045.29-.942-.316-.038-1.14-.1-1.068.058-.193-.012-.072-.194-1.14-.08-.315.816-1.543-.08-1.123-.281.063-.286.042-1.666-1.094-.505-1.842-.58-.786-.837-.009-2.75 1.069-.438-.11-.147-.816.177-.614-1.393-.605-.21-.35.03-1.825.799-1.123.32-.862.012-.534-.543.067-.353-.328.56-1.867 1.888-3.298 1.165.072.231-.21.316-1.048.647-.332-.096-.761.664-.45.4-.623-.013-.816-.265-.647-.32-.244-.807-.35-1.237.207-.437-.118-.24-.437.089-.185 1.48-.762.08-2.229.294-.622.863-.597.374-.736.345-1.338-.459-1.489.097-.147.467.538 1.01.089-1.157 5.5.635.186 1.46-.282.89.328.186.698-.219 1.943-.458 1.161.11.576.773.547.723 1.434.909.694.9.173 2.826-.06 1.977.472 1.745-.45.896-.013 1.897.476 1.08-.4.232.021.278.723.025 1.17-1.01 1.762-1.434 1.82-.576 1.561-.067.459.252.467.61.593.757.113 1.317-.248.466-.27 1.174-.05 1.38.513.76-.176 1.237.589.988.752.82 1.468.266.968-.404 1.795.244 1.914-.215.135-.017.269.257.492-.513.324-.353-.303-.072-.412-.513-.114-.231-.11-.11.194-.584.497-.244-.101-.11-.152-.16-.008-.298.164-.63-.993-.535.404-.391-.151-.673-.21-.274-.434-.281.08-.312-.361-.26.214-.08.332-.374.139.142.454.114.434.101.252.328.252.324-.1.24.033.361-.13-.071.735-.745.072-.605.223-.311-.505-.043-.139-.441-.492-.063-.395.046-.092zm-6.86-.82l-.109.627.151.063.122 1.413-.433-.959-.605-.454-.48-.168.118-.555.47-.223zm7.609 2.524l1.287-.156.26.232-.782.626-.454-.454-.492.21-.093-.26h-.32l-.16-.383-.34.1-.332-.332.55-.685.876 1.102zm-2.49-2.574l.084.362-.282.593-.383-.072-.542-.505-.05-.807-.22-.391.097-.194-.058-.088-.551-.475-.274-.038.353-.274.114.05.686.342.42.294.606 1.203zm-3.028-4.097l.248-.244.122.8-.219-.08-.151-.476zm-.535 1.035zm0 0l.286-.156.711-.126.173.13-.08.383-.917-.038zm1.599 4.315l.488.85-.282.656-.013.938-.736-.206-.055.244-.168.189-.866.18-.324-.193.1-.092-.491-1.7.059-.534-.45-1.463.189-.265.202.097-.173-.858-.21-.442-.24-.433.08-.345.404-.063.114-.152.361.362-.059.194.114.071.299.715.092-.067.383.071.24.341.029.442-.13.273.13.282-.362.332.089.29.231-.063.231-.063.724.412zm1.32.774zm-.614.585l.009.324-.261-.101.092-.598.606-.344.168.134z"/></g><g><path fill="#fff5e8" d="M75.026 0l5.417 2.389 8.635 3.05 1.682.987L92.71 5.8l1.535-.009 3.592 1.733 6.679 6.544 2.515 4.383-1.274 1.093-2.986 1.683-4-.539-.8-.277-.714-.862-.955-.286-2.09-.08-.248 2.304-.307.795-.21.093-1.136-.606h-1.174l-2.04.656-.887.766-.046.294.328 2.162.03 3.55-.568.42-1.7.69-4.214.332-2.561.4-2.452 3.608-.79.787-1.292.803.025 1.212.602 1.951.273 1.787-.311 1.275-1.035.715-2.57.223-.538-.122-2.019.269-1.11-.13-1.88.138-3.924-.702-.387.252-.391 1.897.042 7.659-.278 5.796-.681.407-.395-.029-.324-.736-.858.303-.795-.362-.71.05-5.048 2.293-1.01 1.262-.718.567-1.17-.122-.32-.214-1.072-1.535.488-2.006 1.098-2.368.891-4.118-.332-5.488.06-4.181.424-1.59.538-.622 1.661-.497 1.128-.008 1.333.858.429-.017.269-.656.101-3.373-.707-2.322-.016-.858.546-2.548.076-1.397-.757-1.8-.782-.904.176-1.556.598-1.253-.038-1.01.681-1.653-.168-.525-.454-.37-.488.13-1.047 1.552-.265.235-.766.181-1.287-.286-1.24-.87-4.021-1.313-.446-.462-1.342-.766-.694-.891-.32-.13-1.947.664-.782-.311-2.784.058.038-6.914 1.74-.008 6.966-6.132 10.565-2.107 1.013.9 2.402.201 2.712-.302 2.04.235 2.242-.067 2.208-2.633"/></g><g><path fill="#fff5e8" d="M205.608 115.933l1.93-1.114 2.46.328 4.455-2.04 2.708.458 1.678.013 1.502.298 2.481-.252 5.24.008 2.68-.197 2.292 4.281.614.808 1.956.454.874.543 2.213 4.13-.194.912.143 1.615 1.119 1.237 1.741.618.85 1.615.11.761-.421 1.523-2.52 4.811.16 2.431-.185.875-2.574 2.196-3.63 4.845-2.136 2.304-1.598 1.355-1.741 2.01-.345.665 1.06 2.83 1.223 1.977 1.14 1.03 1.144-.837 1.19-1.686.69-.16.597.18.64.472 1.051 1.325 1.817 1.615.904 1.093.438.85-.244 2.309.311.727.16 1.49.816 1.942-.021.657.513.37-2.078 2.304-.458.816-.375 1.228.16 2.49.387 1.397.56.891-.076.543-.412.307-1.7-.147-.286.193-.866.025-.076.69-.723.315-.648.812-.803.181-.458 1.77-.892.274-.576 1.144.025.21.395-.02.194.184.038.745.37.046.08.374-.417.181-.26.484.395.64-.034.437-.807.466-.093 1.355-.614.605-.24.804-.76.328-.745-.35-.253.228-.521.063-.194.269.194.37-.076.728-.185.21-1.577.286-.177.093-.084.576-.576-.076-1.274-.854-.947.425-.281-.294-1.266-.278-.598-.513-.244.021-.513.593-.853-.034.1-3.671-.853-.909-.942-.046-.993.9-1.194-.202-.783-.357-.601-1.422-.496-.921-.514-.34-.492-.03-.55-.888-.051-.307.698-2.014-1.119-.774-.626-.084-.253.311-.71-.904-.434-.034-.63-.677-.324-.03-.152-.639-.525-.265-.169.194-.618-.152-.778-.664.219-.812-.169-.879-.693-.55-.32 2.001.034 1.216-.585 2.532-.37.42-.703.24-.143.366-.269.046-.395-.408-6.599.64-1.11-1.296.26-.736-.357-.866-.08-.497.03-.34-.375-.135-3.449 3.112-.269.471-1.026.724-.471.774-1.943 1.947-.564-.303-.925-.042-.673-.092-.336-.257-.379.896.126.332-.32.408-.16.757.152.854-.118.45-.252.156-.429 1.186-.568 2.258-.21.164-.286-.143-.555.156-.433-.556-.185.194.799-3.445.012-3.684.139-.454-.257-.307.888-4.837 1.392-2.59 1.447-1.367 1.3-.816.386-.602-.122-2.49 1.001-2.477.248-1.358-.235-.749.11-.437-.493-.572.06-.274-3.521-3.184-1.867-2.376-2.162-2.06-3.146-.745-3.44-.202-3.142.4-2.574 1.106-.8-.24 1.595-2.51.509-.586 4.723-3.032.046-.5-.42-1.128.226-.273-.147-1.211-.853-1.056-.72-.572.307-1.203.56-.9.538-.361h.782l.728.378.42.45.64-.097.139.173 1.896.4 1.153-.346 1.085-1.547 1.62.105 1.728-.227 1.854-.425 1.022-.5 3.23-3.218 2.99-1.581 1.994-2.406.867-1.762 1.047-.606 4.004-.883.799.046 5.123-2.465.748-1.295-.088-2.33h-.18l-.127-.946.231-.56-.441-2.532-.968-1.623-.32-2.507.215-1.716-.088-.904z"/></g><g><path fill="#fff5e8" d="M221.384 13.551l5.236.08 4.02.505 4.526 1.758 4.917 1.072 1.148.635 2.561 2.175 2.01 1.261.665.06.126-.346.42-.117.695.273.26-.219-.23-.496.626.067.715.396.698-.177.35.299.264.45.438-.261 1.198.257.311.21.392.05.416-.004-.034 1.77-.626 3.374.517 1.619.61.765 2.019 1.616.201 1.572-.773 1.771-.997 1.296-2.97 2.653-.23.926.722 1.61-.02 2.436-1.069 6.85-.054 1.473.71 3.129-1.985 3.844.063.816.27.151 2.065-.088 1.316 1.577.353 1.4-.416.888-1.91 1.863-1.387 2.482-1.216 1.409-.378 1.203.016 1.249.32 1.745-.101 1.237-.879 1.295-2.57 1.535-4.714 1.27-1.12.808-.723 1.19-.256 1.165.118 3.529-1.434 1.905-1.28.29-2.85.004-.127-.214-.324-2.713.505-4.984-.282-2.048-1.547-1.421-.665.429.42-.648L228.997 74l-1.998-2.692-3.57-2.632-.917-.543-1.253-.425-1.7-.071-1.753.635-.383.37-1.279-.156-.685-.643.416-2.852.442-1.144.096-2.069-3.511-8.794-.084-1.628-.4-1.14-.139-1.135-.088-2.835-1.33-1.96.08-.761-.323-2.978-.48-1.232-3.255-2.604-.366-1.22-.74-4.848-.93-1.43-.778-.37-.853.256-2.099-.934-2.465.783-.47.302-.615-1.064-.29-1.83-.896-2.01-.93-.525-2.661.824-1.187.576-1.329.265-2.237 1.09-.883 1.678-1.32.757-2.524-.307-.753-.497 3.104-3.154 1.367-1.935 1.716-1.476 2.182-2.46 1.674-1.069 3.807-1.707 6.754-.395 5.278-1.977 8.235-.45z"/></g><g><path fill="#fff5e8" d="M108.74 21.046l2.292 2.742 2.136-.046 1.405-.257-.606 4.55.417 2.596-.03 2.544.42 2.175.165 1.998.551 1.35-.168 1.501 1.051 2.187.29 1.283-.054.706.4 1.04-.46 2.17-.765 1.526.53.51 1.064.487 1.128.963.487.602.21.82-.794.681-1.405-.34-.231 1.345-2.053 1.67-.538-.366-2.78.055-.631.353-.273 1.682-.656 1.742-.19 1.58.068.45.803.8.378 1.552-.525 2.566-.009.98-.424-.013-.985 1-1.156.745-.358.48-.719 1.434-.27 1.493-.634 1.358-1.279 1.304-.98.635-1.98.261-3.34-.24-2.372.4-2.217 1.98-1.202 1.75-.539.32-.706.05.03-.353-.67-1.72-1.598-2.793-1.396-1.85-.089-2.305-.58-3.188-.812-1.266-2.262-1.14v-.504l.862-2.73.004-1.039-.593-.904-1.83-.744-2.04-.261-.512.34-1.048.249-1.594-.21-2.3.319-1.535-1.014-1.207-.046-.711-1.388-.454-.24-1.519.274-.879-.13-.383-.27-.332.063-.446.261-.344.976-2.667.614-1.729-.946h-.765l-.362.202.278-5.796-.042-7.659.391-1.897.387-.252 3.924.702 1.88-.138 1.11.13 2.02-.27.537.123 2.57-.223 1.035-.715.311-1.275-.273-1.787-.602-1.952-.025-1.21 1.291-.804.79-.787 2.453-3.608 2.561-.4 4.214-.332 1.7-.69.567-.42-.03-3.55-.327-2.162.046-.294.888-.766 2.04-.656h1.173l1.135.606.21-.093.308-.795.248-2.304 2.09.08.955.286.715.862.799.277 4 .539 2.986-1.683 1.274-1.093z"/></g></g></g></svg>