<svg xmlns="http://www.w3.org/2000/svg" width="508.509" height="508.635" viewBox="0 0 508.509 508.635"><defs><style>.a{fill:#fcc777;}</style></defs><g transform="translate(-5753.466 -9722.418)"><g transform="translate(5753.466 9722.418)"><g transform="translate(194.61 149.89)"><path class="a" d="M255.587,150.881a59.626,59.626,0,1,0,59.626,59.626A59.684,59.684,0,0,0,255.587,150.881Z" transform="translate(-195.961 -150.881)"/></g><g transform="translate(209.518 0)"><path class="a" d="M296.039,35.005,266.226,4.2c-6.343-6.343-16.276-4.8-21.079,0L215.334,35.005a14.9,14.9,0,0,0,21.079,21.079l4.367-4.367V90.264a14.857,14.857,0,1,0,29.714,0V51.717l4.367,4.367a14.94,14.94,0,0,0,21.179-21.079Z" transform="translate(-210.967 0)"/></g><g transform="translate(209.518 403.299)"><path class="a" d="M296.037,455.053a15.022,15.022,0,0,0-21.178,0l-4.367,4.367V420.874a14.856,14.856,0,1,0-29.712,0v38.547l-4.367-4.367a14.9,14.9,0,0,0-21.079,21.078l29.813,30.806a14.909,14.909,0,0,0,21.079,0l29.813-30.806A14.9,14.9,0,0,0,296.037,455.053Z" transform="translate(-210.967 -405.967)"/></g><g transform="translate(0 209.515)"><path class="a" d="M90.329,240.714H51.782l4.367-4.367A14.9,14.9,0,1,0,35.07,215.268L4.264,245.081c-6.345,6.345-4.8,16.275,0,21.079L35.07,295.972a14.9,14.9,0,0,0,21.079-21.079l-4.367-4.367H90.329a14.906,14.906,0,0,0,0-29.813Z" transform="translate(-0.063 -210.901)"/></g><g transform="translate(403.302 209.516)"><path class="a" d="M507,245.082,476.2,215.269a14.9,14.9,0,0,0-21.079,21.079l4.367,4.367H420.939a14.906,14.906,0,0,0,0,29.813h38.547l-4.367,4.367A14.9,14.9,0,0,0,476.2,295.973L507,266.16C512.137,261.026,513.145,251.222,507,245.082Z" transform="translate(-406.033 -210.902)"/></g><g transform="translate(69.397 356.566)"><path class="a" d="M148.06,363.291a14.9,14.9,0,0,0-21.079,0l-27.25,27.251V384.37a14.906,14.906,0,1,0-29.813,0v42.157a14.813,14.813,0,0,0,1.121,5.563c2.118,5.25,8.384,9.343,13.786,9.343h42.157a14.906,14.906,0,0,0,0-29.813H120.81l27.251-27.251A14.9,14.9,0,0,0,148.06,363.291Z" transform="translate(-69.919 -358.924)"/></g><g transform="translate(356.567 69.395)"><path class="a" d="M426.592,69.854H384.435a14.906,14.906,0,0,0,0,29.813h6.172l-27.251,27.251A14.9,14.9,0,0,0,384.435,148l27.251-27.251v6.172a14.906,14.906,0,0,0,29.813,0V84.76C441.5,77.477,435.271,69.854,426.592,69.854Z" transform="translate(-358.989 -69.854)"/></g><g transform="translate(356.567 356.566)"><path class="a" d="M426.592,369.463a14.9,14.9,0,0,0-14.906,14.906v6.172l-27.251-27.251a14.9,14.9,0,0,0-21.078,21.078l27.251,27.251h-6.172a14.906,14.906,0,1,0,0,29.813h42.157c7.284,0,14.906-6.229,14.906-14.906V384.37A14.9,14.9,0,0,0,426.592,369.463Z" transform="translate(-358.989 -358.924)"/></g><g transform="translate(69.397 69.395)"><path class="a" d="M148.06,126.918,120.809,99.667h6.172a14.906,14.906,0,1,0,0-29.813H84.825c-8.967,0-14.906,8.09-14.906,14.906v42.157a14.906,14.906,0,1,0,29.813,0v-6.172L126.983,148a14.9,14.9,0,1,0,21.078-21.079Z" transform="translate(-69.919 -69.854)"/></g><g transform="translate(164.798 269.142)"><path class="a" d="M321.567,270.922a88.353,88.353,0,0,1-132.353,0,88.752,88.752,0,0,0-23.262,59.626v14.906a14.9,14.9,0,0,0,14.906,14.906H329.922a14.813,14.813,0,0,0,14.807-14.906V330.548A88.676,88.676,0,0,0,321.567,270.922Z" transform="translate(-165.952 -270.922)"/></g></g></g></svg>