<svg xmlns="http://www.w3.org/2000/svg" width="121.441" height="121.471" viewBox="0 0 121.441 121.471"><g transform="translate(46.476 35.796)"><path d="M210.2,150.881a14.24,14.24,0,1,0,14.24,14.24A14.254,14.254,0,0,0,210.2,150.881Z" transform="translate(-195.961 -150.881)" fill="#ffac79"/></g><g transform="translate(50.037 0)"><path d="M231.284,8.36,224.164,1a3.666,3.666,0,0,0-5.034,0L212.01,8.36a3.56,3.56,0,0,0,5.034,5.034l1.043-1.043v9.206a3.548,3.548,0,1,0,7.1,0V12.351l1.043,1.043a3.568,3.568,0,0,0,5.058-5.034Z" transform="translate(-210.967 0)" fill="#ffac79"/></g><g transform="translate(50.037 96.315)"><path d="M231.283,417.69a3.587,3.587,0,0,0-5.058,0l-1.043,1.043v-9.206a3.548,3.548,0,1,0-7.1,0v9.206l-1.043-1.043a3.56,3.56,0,1,0-5.034,5.034l7.12,7.357a3.561,3.561,0,0,0,5.034,0l7.12-7.357A3.559,3.559,0,0,0,231.283,417.69Z" transform="translate(-210.967 -405.967)" fill="#ffac79"/></g><g transform="translate(0 50.036)"><path d="M21.62,218.021H12.415l1.043-1.043a3.56,3.56,0,0,0-5.034-5.034l-7.357,7.12a3.665,3.665,0,0,0,0,5.034l7.357,7.12a3.56,3.56,0,1,0,5.034-5.034l-1.043-1.043H21.62a3.56,3.56,0,0,0,0-7.12Z" transform="translate(-0.063 -210.901)" fill="#ffac79"/></g><g transform="translate(96.315 50.036)"><path d="M430.147,219.065l-7.357-7.12a3.56,3.56,0,0,0-5.034,5.034l1.043,1.043h-9.206a3.56,3.56,0,1,0,0,7.12H418.8l-1.043,1.043a3.56,3.56,0,0,0,5.034,5.034l7.357-7.12A3.639,3.639,0,0,0,430.147,219.065Z" transform="translate(-406.033 -210.902)" fill="#ffac79"/></g><g transform="translate(16.573 85.154)"><path d="M88.58,359.967a3.559,3.559,0,0,0-5.034,0l-6.508,6.508V365a3.56,3.56,0,0,0-7.12,0v10.068a3.537,3.537,0,0,0,.268,1.329,3.844,3.844,0,0,0,3.292,2.231H83.547a3.56,3.56,0,0,0,0-7.12H82.073L88.581,365A3.559,3.559,0,0,0,88.58,359.967Z" transform="translate(-69.919 -358.924)" fill="#ffac79"/></g><g transform="translate(85.154 16.573)"><path d="M375.133,69.854H365.065a3.56,3.56,0,0,0,0,7.12h1.474l-6.508,6.508a3.56,3.56,0,0,0,5.034,5.034l6.508-6.508v1.474a3.56,3.56,0,0,0,7.12,0V73.414A3.637,3.637,0,0,0,375.133,69.854Z" transform="translate(-358.989 -69.854)" fill="#ffac79"/></g><g transform="translate(85.154 85.154)"><path d="M375.134,361.441a3.558,3.558,0,0,0-3.56,3.56v1.474l-6.508-6.508A3.56,3.56,0,0,0,360.032,365l6.508,6.508h-1.474a3.56,3.56,0,1,0,0,7.12h10.068a3.637,3.637,0,0,0,3.56-3.56V365A3.558,3.558,0,0,0,375.134,361.441Z" transform="translate(-358.989 -358.924)" fill="#ffac79"/></g><g transform="translate(16.573 16.573)"><path d="M88.58,83.482l-6.508-6.508h1.474a3.56,3.56,0,1,0,0-7.12H73.479a3.663,3.663,0,0,0-3.56,3.56V83.482a3.56,3.56,0,0,0,7.12,0V82.008l6.508,6.508a3.559,3.559,0,0,0,5.034-5.034Z" transform="translate(-69.919 -69.854)" fill="#ffac79"/></g><g transform="translate(39.357 64.276)"><path d="M203.116,270.922a21.1,21.1,0,0,1-31.608,0,21.2,21.2,0,0,0-5.555,14.24v3.56a3.558,3.558,0,0,0,3.56,3.56h35.6a3.538,3.538,0,0,0,3.536-3.56v-3.56A21.177,21.177,0,0,0,203.116,270.922Z" transform="translate(-165.952 -270.922)" fill="#ffac79"/></g></svg>