<svg xmlns="http://www.w3.org/2000/svg" width="79.598" height="103.264" viewBox="0 0 79.598 103.264"><g transform="translate(-2.94)"><path d="M16.5,34.247c-.708-2.4-1.388-4.8-1.9-7.1a11.418,11.418,0,1,1,16.858-7.28A55.767,55.767,0,0,1,34.2,27.719a17.323,17.323,0,1,0-17.7,6.527Z" transform="translate(0.191)" fill="#ffac79"/><path d="M4.7,63.459c4.278-4.624,9.079-2.813,15.506-1.835,5.521.849,10.958-.7,10.6-3.682-.571-4.825-1.376-6.982-3.207-13.232-1.461-4.97-4.234-13.928-6.757-22.492C17.46,10.76,16.482,5.44,20.981,4.112,25.83,2.7,28.611,9.589,31.13,19.143,34,30.017,35.509,34.818,36.354,34.564c1.489-.427-.547-5.079,3.348-6.226,4.869-1.417,5.811,2.39,7.175,2.008,1.364-.41.9-4.266,4.785-5.4,3.9-1.127,5.863,3.678,7.473,3.2,1.594-.471,1.557-2.205,3.964-2.893,2.411-.716,11.481,3.344,16.673,21.079,6.515,22.3-.825,26.444,1.4,33.993L52.089,91.383c-2.354-5.662-9.646-6.081-16.1-9.691-6.5-3.658-10.914-10.785-27.852-10.439C1.769,71.382,2.071,66.3,4.7,63.459Z" transform="translate(0 11.88)" fill="#ffac79"/></g></svg>