<svg xmlns="http://www.w3.org/2000/svg" width="251" height="182" viewBox="0 0 251 182"><g><g><g><path fill="#fff5e8" d="M38.58 32.236h.001l.01-.008z"/></g><g><path fill="#fff5e8" d="M59.183 174.187l-.001-.001z"/></g><g><path fill="#fff5e8" d="M21.668 136.375a1.8 1.8 0 0 1-.094.098c.082.719.555.714 1.092.589l-.614-.586-.384-.1z"/></g><g><path fill="#fff5e8" d="M155.025 165.928c.004-.063.01-.127.02-.19l-.288.095.268.095z"/></g><g><path fill="#fff5e8" d="M246.65 62.91zm.466-.254zm-.371.189zm-2.218 8.18l-.95-.008.95.008c.311-.397.622-.794.931-1.191l-.93 1.191.417 1.276-.418-1.276zm.418 1.276l.043.133-.043-.133zm.303 1.559l-.323.343.323-.343zm-.846-7.75c.042-.02.085-.04.128-.056m-16.749 45.606l-.065.04.065-.04.094-.056zm.094-.056l.183-.107-.182.107zm-3.368 2.593l.954-.843-.954.843zM170.3 149.013l-.157.158m-4.007 3.067v-.001zm-6.399 7.314zm-3.52 2.843v-.002.001zm-.47-.473l-.003-.002zm-.71-.712l.002.002M140.2 138.508l.053.566-.053-.566zm.423 4.486c-.118-.334-.274-.664-.37-1.002.096.338.252.667.37 1.002l-.006-.064.006.064zm-.006-.064zm-20.058 12.732l.372-.274m-3.551-.122h-.001zm.329-.009zm-.446.04zm-.244.195a.095.095 0 0 1-.008.006m-7.327-24.95c-.52.153-.922.387-1.176.7.254-.313.656-.547 1.176-.7 1.374.059 2.749.131 4.123.183-1.374-.052-2.749-.124-4.123-.182zm-.776 42.02l-1.752-1.69c-.113-.001-.265.014-.398.02.133-.006.284-.021.398-.02l1.753 1.69c.201 1.913.01 2.535-1.209 2.587 1.218-.052 1.41-.674 1.208-2.588zm-2.15-1.67l-.013.002.013-.001zm-.03.002a1.168 1.168 0 0 1-.174-.002m-33.408 10.187c.004.01.012.017.015.027-.003-.01-.011-.018-.015-.027zm-12.558-21.994zm-.129-.086l-.575-.385.575.385zm.129.086zm.349.343a.995.995 0 0 1 0 0zm-20.432-20.751c.204-.048.408-.084.613-.109m-14.813.337a2.713 2.713 0 0 1-.461-.003m-1.65-1.54zm1.442 1.51c-.738-.146-1.193-.672-1.442-1.51.25.838.704 1.364 1.442 1.51zm-1.54-1.693l.149-1.99-.149 1.99zm-5.054-4.786l.086.063-.086-.063zm.086.063l.633.453-.633-.453zm-2.377-1.29zm-.246-.95l-.443-.632m-9.67-8.755l-.105.012m-.297.023H6m-2.31-1.25zm1.403.277l-1.404-.276 1.404.276zm-.94-1.195l-.305.604.304-.604zm.048-.034zm8.633-8.264c.16-1.053.871-1.338 1.756-1.377-.885.04-1.595.324-1.755 1.378l-7.168.065 7.167-.066zm5.837-10.339zm5.321-10.633l-.106-.212.106.212zm6.138 22.668l-.473-.472.473.472zM65.401 1.718zm-.108.464zm.054-.326zm1.37 67.04c.534-.495 1.055-1.005 1.593-1.493-.538.488-1.059.998-1.592 1.493l-.94 1.183.94-1.183zm0 0zM67.94 2.88h-.01m3.916 61.01a14.453 14.453 0 0 0 0 0zm2.435-1.617c.08-.233.159-.466.237-.7-.078.234-.158.467-.237.7-.633.1-1.13.38-1.564.742.434-.362.93-.642 1.564-.742zM98.12 113.27c-.149.302-.377.6-.494.904.117-.305.345-.602.494-.904l.85-.939-.85.939zm.85-.939zm4.916-22.093l-.019.13m5.173-1.374v.728-.728zm0 2.665l-.009.526.01-.527-.605-.135.604.135v-1.936zm35.372 5.088l-.061.006.06-.006c.665-.015 1.33-.03 1.994-.047l-1.993.047zm2.595-.056c1.495-.098 2.988-.21 4.483-.299-1.495.09-2.988.201-4.483.3zM162.25 72.67c-.038 0-.078 0-.118-.002.04.002.08.001.118.002zm4.19-4.06l-.07.047zm4.547-.829c-.057.13-.092.275-.144.41l-.227.95.041-.017a2.754 2.754 0 0 1-.041.018l.227-.951c.052-.135.087-.279.144-.41zm-10.994 89.432c.38-.344.694-.429.944-.274-.25-.155-.564-.07-.944.275l-.565.57.565-.57zm-5.9 3.056l-.002-.001zm-.692-.475zm-2.103-2.124l.01.494-.01-.494zm-.102-1.595l.046.41-.046-.41-.214-.525.214.525zm-7.03-20.114c.395-.084.791-.171 1.187-.248-.396.077-.792.164-1.187.248zm-3.518 7.116l.453.917-.453-.916zm-19.113 9.043zm.015.09zm.011-.033zm-2.78-.86c.033.007.07.022.108.044m4.516-21.056l.27.046-.27-.046-13.704-.002 13.704.002zm.27.046l.162.028-.162-.028zm1.106-.251zm-.944.28v-.001zm-25.142 26.58a1.966 1.966 0 0 1-.618-.134m-2.326-1.476l-.882 1.127.882-1.127zm-29.037 3.01l-.083-.266.083.266zm-4.6 1.14a3.357 3.357 0 0 1-.273.071m-1.727-.973zm-11.634-2.17zm.32-.15zm.323-.38zm-.323.38zm-.23.244zm-.324.144l.116-.118-.116.12c-.466.304-.931.61-1.398.916l1.398-.918zm0 .001zm-24.553-30.991l-3.475.84 3.475-.84zm-6.083 2.951l.052-.119-.052.12-.63 1.164.63-1.165zM16.007 105.558c-.122 0-.245-.004-.368-.012m-3.591-.775c-.08-.104-.116-.242-.083-.431m11.416-2.664c.165.054.323.117.458.213M35.563 118zm4.251-51.826l-.003.94c.168-.061.357-.097.518-.169-.16.072-.35.108-.518.17l-1.211-.4 1.21.4zm23.79 8.075c.092.017.183.036.27.057m-.737-.121l.048.005m1.867-4.221c.033.001.068.005.106.01m2.206-.443a.382.382 0 0 1-.163-.044m10.395-5.802l-.251.734.251-.734zm3.488-38.867zm.778-1.382c0 .103-.01.201-.022.297M97.1 113.393c.013.011.027.026.04.039m.134-.024l-.168-.015.17.015zm.864-.117a.382.382 0 0 1 .023.026m3.107-.563a1.088 1.088 0 0 0-.1.091c.546.21 1.081.474 1.63.67-.549-.196-1.084-.46-1.63-.67-.824-.341-1.583-.272-2.301.06.718-.332 1.477-.402 2.302-.06.03-.033.065-.063.1-.091zm1.53.76zm-1.072-1.19zm-.624.066c.205-.03.417-.042.624-.067-.207.025-.418.038-.624.067zm2.465-19.938l-.007-.001m.22-1.534c.01-.095.026-.191.043-.288m3.85 1.785l-.238-.01zm.384-.151l.159-.014-.16.014zm.159-.014l.453-.04zm11.446 9.763l-.31.139c-1.28.467-2.565.916-3.83 1.42 1.265-.504 2.55-.953 3.83-1.42l.31-.14zm-.212.261zm-.062-.08zm7.81-3.187c.418.035.837.108 1.255.203m.497-1.284c.069-.04.136-.084.206-.122m9.644-.088h-.014.013a21037.41 21037.41 0 0 1 .001 0zm23.097-13.472l-.021-5.124m-11.978 77.623c-.786-.062-1.034.32-1.007.997-.027-.677.221-1.06.949-1.01-.038-1.534-.058-3.07-1.709-3.91 1.65.84 1.671 2.376 1.767 3.923.02.029.038.06.058.09v3.422c0-1.247 0-2.386-.058-3.512zm-.326-21.347zm-1.648-.291c-.023.203-.134.36-.471.353.337.008.448-.15.471-.353zm.227-2.658zm-22.405 22.87c.202-.014.484.019.689.006m-2.817-3.083l.126 3.058m-2.075-3.7c.019-.068.04-.134.066-.196m-.128.441l.02-.088m3.424-21l-.014-.005m-15.748 10.399zM97.45 156.342c.105-.167.219-.33.32-.498-.101.169-.215.331-.32.499-.116-.18-.23-.36-.387-.607l.387.606zm-12.644-.129l-1.313.519 1.313-.519zm-3.904 3.538c-.153.105-.313.205-.475.304m-.717.45c.077-.052.156-.103.235-.154m-7.075 8.89c.69.05 1.101.188 1.378.446-.277-.258-.687-.395-1.378-.447zm-.003-.001zm1.38.447zm-.454 2.306c.005.2.002.4-.007.6m-6.83-9.723c.415-1.392.69-2.791.194-4.225l-.326-.199.326.199c.496 1.434.22 2.833-.193 4.225l3.746 3.594h-.001l-3.745-3.594-.297.645c.1-.215.198-.43.296-.645zm-.132-4.424zm-1.538-2.404l.7.572.896-.11-.896.11-.7-.572zm-2.575.804c-.067.766-.445 1.284-1.14 1.561m-4.525-8.76a205.718 205.718 0 0 1-.001 0l.236-.003-.235.002zm.399.61l.004.004a1.372 1.372 0 0 0-.004-.005zm.258.282a70.007 70.007 0 0 0-.254-.278l.254.278zm-8.132-.363zm-.034-.025zm-4.967-11.66l-.027.038m-12.587 5.395l.17.15-.17-.15zm9.014-77.322a.585.585 0 0 1 .171-.013m.106.021c.039.012.077.029.113.05m7.912-2.892l-.712-.018.712.018zm1.706.244l-.09-.029m2.279.13l-.362-.178.362.179zm.6.298l.227-.54-.227.54zm3.551-.144l-.043-.308.043.308zm25.698-12.14zm.258-1.716v-.025.024l.244 3.296-.244-3.295-.014.096.014-.096zm-.025-3.245l.012 1.628-.012-1.628zm-.233 4.961c-.731.556-1.512 1.074-2.163 1.688.65-.614 1.432-1.132 2.163-1.688zm.244-1.62l-.177 1.174.177-1.174zm.001-1.713l.013 1.592zm-.187-2.79c.062.388.123.775.182 1.163m5.608 41.787c-.02-.054-.047-.106-.054-.162.007.055.034.108.054.162zm6.66 51.715l-.167-.124.168.124zm-.66-.488l-2.166-1.397 2.167 1.397zm-2.406-1.876l.16.319-.16-.32zm.16.319zm-7.904 15.28c.002-.11.009-.218.022-.322m.876-.81l1.097.086-1.097-.086c-.565.075-.77.337-.849.665.08-.328.284-.59.849-.665zM83.4 155.36l.359.047-.36-.047zm.359.047l.448.058-.448-.058zm-.275 1.315zm0-.01l.002-.066-.002.066zm-14.373-.701zm-.308.282zm-3.516-.252v.005zm-4.115-36.41zm-5.501 29.854l.336-.044-.335.044c-.758.047-1.53.023-2.274.13.745-.107 1.516-.083 2.273-.13zm-5.51-2.726a12.194 12.194 0 0 1-.1-.543m-15.876-24.098zm3.982-1.754zm7.982-53.654a.187.187 0 0 1 .05-.02m1.694-1.128l.01-1.83-.01 1.83zm6.049 31.165c-.182.003-.364 0-.545-.006m.054-28.915l.026-.047a2.568 2.568 0 0 1-.026.047zm3.365-.798l-.075-.111m2.18 27.717a.758.758 0 0 1 .054-.278m-.035.532a1.242 1.242 0 0 1-.02-.247m3.544-17.797a4.392 4.392 0 0 0 0 0zm-.279.039c-.112.104-.227.207-.34.31.113-.103.228-.206.34-.31zm.615.287c-.088-.086-.184-.176-.272-.263m18.526-14.895c.116.06.234.129.35.192m2.321-1.553c-.578-.6-1.167-1.19-1.747-1.79.58.6 1.17 1.19 1.747 1.79zm-.409-7.071a.807.807 0 0 1-.05.319m-1.23 8.681zm9.722 74.34l-.013-.025.013.025zm-.013-.025c-.076-.15-.15-.301-.227-.452l.227.452zm-22.9 15.374l-1.137-.365 1.137.365zm-1.356-5.811l-.285.376c.094-.126.19-.25.285-.376zm-3.624-20.854l-.032.029m15.208 28.358l-.276-.774.276.774zm-.276-.774l-1.65-.245 1.65.245zm-1.883-.203zm4.484.395c-.148.233-.343.456-.49.69.147-.234.342-.457.49-.69zm-2.334 1.878l.003-.378-.003.378zm-4.189 2.065zm-4.802-9.595zm-3.006-14.599c.096.726.447 1.364 1.1 1.885.267.265.566.507.815.783-.249-.276-.548-.518-.815-.783-.654-.52-1.004-1.159-1.1-1.885zm-1.345-4.35c-.143.094-.345.162-.436.278.09-.116.293-.184.435-.278.336-.48.395-.857.247-1.18.148.323.09.7-.246 1.18zm.246-1.18zm2.098 6.73c.474-.05.95-.133 1.424-.19-.475.057-.95.14-1.424.19zm1.424-.19zm9.966.385l.054-.81c-.02.295-.035.552-.053.81zm8.366.03c-.1.061-.21.121-.333.181m1.071-2.628v.001l-.59 1.869.59-1.87zm-6.926 12.57zm-1.181-.945zm-9.24.406c.846-.405 1.61-.415 2.408-.07-.797-.345-1.562-.335-2.408.07zm.075-8.147l-.055-.065.055.065zm.739-.662zm-.066-.087zm1.777 8.88c.105.05.21.105.318.167m-4.779-1.727a4.47 4.47 0 0 1-.136.001m.441-4.984zm-.47.473l.06.496-.06-.496.166-.164zm.166-.164l.062-.062-.062.062zm1.696-1.257l-.917.678-.01.027.01-.027.917-.678zm-1.063.776l-.333.173.333-.173zm.189 4.096zm.2.105zm4.53 8.422c.023.06.04.128.05.206m4.918-16.088zm-.28 1.333c-.526.306-1.065.594-1.586.908.521-.314 1.06-.602 1.586-.908zm2.776-.38c-.087-.373-.361-.734-.53-1.102h.001c.168.368.442.729.529 1.102zm.374 7.042c.05.022.107.064.152.076-.045-.012-.102-.054-.152-.075zm1.481-5.54a3.933 3.933 0 0 1-.214-.03m-15.504 5.223l.448.752-.448-.752zm-.055-1.893zm.055 1.806v0zm0 0c0-.599-.055-1.207-.055-1.805 0 .598.055 1.207.055 1.805zm1.83 5.323v.004m1.586 2.393c-.128.193-.245.543-.383.552.138-.009.255-.359.382-.552l-1.516-1.24c.505.413 1.01.827 1.517 1.24zm1.054-.022zm.944.225l-.683-.163.683.163zm.545.046a.779.779 0 0 0 0 0zm3.116 4.206l-.807.943-.262.276.235.617-.157.169.157-.17-.235-.616-.927.184.927-.184.262-.276-1.009-.93 1.01.93.806-.943zm-.991 2.005l-.158.169.158-.17zm-.825-1.991zm1.816-.014l.04-.104zm.332-.485l-.157.118.157-.118zm-.203.153zm-.016 1.993l.432.126zm2.35-1.413l.005.094-.004-.094-.744-.266.744.266zm-.038.7l-.277 1.118m-1.209-1.553c-.007.213-.012.426-.018.64l-.086.145c.028-.05.057-.097.086-.146l.017-.64-.502-.816.503.817zm-.503-.817l-.073-.12.073.12zm-14.637-30.3a9.22 9.22 0 0 1 0 0zm.154 1.086l.49 1.162-.49-1.161zm8.478 26.533l-2.235-.763 2.235.763zm14.183-15.152c.24.035.48.091.72.116-.24-.025-.48-.081-.72-.116zm-.135.101l-.006.004.006-.004zm.135-.1l-.135.1.135-.1zm-42.46-4.937c-.658.56-.726 1.272-.72 2.003-.006-.731.062-1.443.72-2.003l.401-.012zm1.927.335c-.01.435-.039.872-.041 1.307.002-.435.031-.872.04-1.308.509-.292.738-.18.813.218-.075-.397-.304-.51-.812-.217zm1.522 2.42l.075-2.498-.075 2.499zm-5.517-13.724c.2 0 .4.007.6.018m1.898-24.06c-.115.016-.251.018-.383.023.132-.005.268-.007.383-.024zm.02-.22l.04-.44-.04.44zm0 0zm2.365-28.836c.044.028.094.065.146.11m.745-.081c-.007-.174-.055-.371-.062-.546m1.38-.535l-.007-.05.008.05zm.018.102l-.03 1.006.029-1.007zM54.784 132.51l-.022.006-.448 1.4.447-1.401.023-.005c.16-.371.264-.79.48-1.113-.216.323-.32.742-.48 1.113zm1.248 1.405l.122.068m.169.092a5.144 5.144 0 0 1-.088-.046m-3.179.343l.43.005-.43-.004-1.229-.116 1.23.115zm.645.007l.318-.014.642-.04-.642.04-.318.014h-.04.04zm-.04 0l-.175-.002zm-9.642-18.88l-.21-.313.21.313zm.042-19.686l.067.032-.067-.032zm.5 2.299c.35-.218.789-.295 1.191-.43-.402.135-.84.212-1.19.43zm-.558 17.457l.002.002m3.995 5.88v.003m-1.32-.1l-.495-.278.496.278zm-.476.465a3.846 3.846 0 0 0 0 0zm4.901 9.827l.708-.606m.773-.026c-.008.41-.028.82-.039 1.229.011-.41.03-.82.04-1.229zm.251-.046zm.01-.002c.489-.123 1.02-.39 1.336.055m-5.677.07l-.143.22m3.492-.074l.026.378-.026-.378zm.047.68l-.001-.02zm-.001-.02l-.02-.282.02.282zm-4.91 2.571zm-4.085-.903l.51.924-.51-.924zm.008-.004l.007-.004m13.918-36.136c-.06 0-.122-.003-.186-.008m2.369-1.525c.07-.076.14-.153.214-.222m-.803.586v.002m-18.272 15.678l-.322-.526.322.526zm29.625 43.398l-.308-.027.31.027zm12.991 1.2v-.065.065zm.003.433zm1.747-1.874zm-.001-.183c.038.043.049.085.035.127.014-.042.002-.085-.035-.127zm.035.127zm7.907-16.716zm-.718-1.427c.2.395.399.792.597 1.188l-.597-1.188zm-6.389-68.571zm-.729-6.032l-.42-.005.421.005c.187 1.575.386 3.149.574 4.723-.188-1.574-.387-3.148-.575-4.723zm-35.707 2.308l.683.363.054.342-.054-.342-.683-.363zm21.785 101.97zm13.146-10.669c.008.117-.081.244-.354.392.273-.148.362-.275.354-.392zm27.94-50.65c.095.01.193.023.293.04m11.777-4.045l.237-.236-.237.236zm-15.824 32.13a4.451 4.451 0 0 1-.119-.477m.123 8.958l.316.16-.316-.16zm1.286.217a.22.22 0 0 1-.095.118m-.545 6.714l-.548-.672m-1.748-8.734l.854 1.283-.854-1.283zm.854 1.283l.092.137-.092-.137zm-2.046-29.39l.005.005m7.713 8.31l.873-.617-.873.617c-.687-.454-1.373-.925-2.05-.53.677-.395 1.363.076 2.05.53zm-2.05-.53zm-1.827 23.053c-.125-.005-.295-.048-.53-.142m22.259-41.165c.023-.056.074-.123.076-.17-.002.047-.053.114-.076.17zm.076-.17zm30.779-16.746c-.173-.328-.436-.649-.574-.98.138.331.401.652.575.98l.05.275-.051-.275zm.96-6.614zm6.843 64.222c.36-.286.734-.56 1.105-.836-.37.277-.746.55-1.105.836zm-19.084 3.824c.3-.276.845-.301 1.616-.062l1.34-.748.66-1.667c-.22.556-.44 1.112-.658 1.668l-1.342.747c-.771-.24-1.316-.214-1.616.062zm3.615-2.477zm-15.162-13.796l-.024-.023.024.023 1.11-1.024-1.109 1.025-.272.201c.09-.068.182-.134.271-.202zm-.024-.023a10.413 10.413 0 0 1-.049-.047zm1.134-1.001l.24-.223-.24.223zm4.878-1.03c-1.533.511-3.13.242-4.603.599.035.06.036.115.004.165.032-.05.03-.105-.005-.166 1.475-.356 3.071-.087 4.604-.598zm-4.63.579l.026.02-.025-.02zm-8.012-23.153l-.08.065zm-.228-1.16l.185.483a98.886 98.886 0 0 1-.186-.483 130.55 130.55 0 0 1-.078-.447zm-.059-1.984a.19.19 0 0 1-.008-.063m6.822-2.503l.042.035m14.26 22zm1.847 1.063zm.077.703l.135-.135-.135.135zm0 0l-1.925-1.765 1.925 1.765zm5.201-43.927c-.184.19-.398.352-.626.496m.279 1.266zm1.182-1.181l.357-.531zm1.178 31.882l-.73 1.905m-4.595 12.215zm-.11-.647l.11.647-.11-.647zm-1.413-1.44l.905.522-.905-.522 1.413 1.44-1.413-1.44zm4.647-42.636c.037.021.074.042.109.064m-11.717 41.87l.065.001m.03 0h.001l.005-.089-.005.09zm.073-1.427h.002l-.07 1.338.068-1.338zm2.736 14.04l-.425.37c.142-.124.284-.247.424-.371l.062-1.376zm1.025-2.688l-.886-.446.886.446zm-.886-.446l-.078 1.757zm-1.376-11.341c.157-.06.314-.12.472-.174m.295 11.52l-.231-.408m-17.213-1.23c.244-.177.478-.371.726-.54m-1.934-7.314a2.695 2.695 0 0 1-.404-.05m-1.235-.215l.308.024-.308-.024zm-1.402-3.19a.88.88 0 0 1 .128-.002m1.062.424l.08-.077-.08.077zm.08-.077zm-.448 1.682c.24.285.384.47.471.613m.109.55zm.013-.18zm16.538.473l.038-.048-.038.048zm-.304-.425a8.5 8.5 0 0 1-.083-.114m-9.267-8.174c-.157-.508-.084-.965.215-1.31m.433-.339zm.004-.49zm1.231 4.207l-.012.011m6.804 5.129a1.952 1.952 0 0 1-.105-.317m-4.857-3.34c.633.797 1.418 1.071 2.247.857-.83.214-1.614-.06-2.248-.856l-1.499-1.145 1.5 1.144zm-1.5-1.144l-.113-.086.113.086zm-.113-.086l-.06-.057.06.057zm-7.372-12.226c.841.53 1.696 1.041 2.51 1.61-.814-.569-1.668-1.08-2.51-1.61zm1.941 45.991l-.427-.58.427.58.496 1.9-.496-1.9zm-.434 3.454c-.013.148-.029.296-.044.445m.31 2.628a.135.135 0 0 0-.026-.055c-.413-.733-.39-1.499-.315-2.266-.074.767-.098 1.533.315 2.266a.14.14 0 0 1 .026.055zm.117-7.078l.054.071-.054-.07zm14.506-26.608zm12.65 30.722l.522-.266-.522.266zm1.283-1.164zm-.21.05c-.263.107-.454.382-.551.848.097-.466.288-.74.551-.848zm-24.259-54.936l-.195-.085.195.085zm-15.225 3.203l-2.813 1.395zm1.169-.765c1.524-.327 3.052-.47 4.583-.356-1.531-.114-3.059.029-4.583.356zm-4.015 2.125l-.025-.029m-25.23 19.637zm.004-.003l.866-.474-.866.474zm-8.335-48.16l.366-1.393-.366 1.393zm-.127-.757h-.001c-.298-2.733-.612-5.464-.9-8.197.288 2.733.602 5.464.9 8.197zm-3.014-28.98l.121.904-.121-.904zM71.68 73.848zm0 0c-.2.289-.379.607-.563.918.184-.311.363-.63.563-.918zm-33.797 45.9a.82.82 0 0 0-.171-.018l-2.627-.282 2.627.281c.057 0 .114.006.17.019zm-11.555 3.239c.5.28.63.66.615 1.05.015-.39-.116-.77-.615-1.05zm.615 1.05zM11.93 112.035l-.43.052.43-.052zm1.432-.173l-1.432.173zm-4.597.483c.128-.036.26-.063.396-.086m8.685-2.748l.05-.047m-.768-.546zm7.96-3.938a72.54 72.54 0 0 0-.001 0l.28.001-.279-.001zm-.32.076l-.08.02.08-.02zm-1.528 5.724a9.088 9.088 0 0 1-.403.007m-.188-8.154c0-.027.002-.05.005-.072m3.921 17.563l-.232.474-1.58.503 1.58-.503.232-.474zm-3.92-17.568c.032-.18.169-.172.498-.069m-9.611 2.518zM34.1 142.575l-.046-.109.046.11zm-.046-.109zm.869-2.24l-.78-.025.78.025zm13.83 2.581c-.484-.615-.967-1.23-1.452-1.843l1.452 1.843c.004.584-.016 1.17.025 1.75-.041-.58-.02-1.166-.025-1.75zm16.535 13.245c-.387.06-.772.118-1.157.176l-.664.494c-.026.203-.024.418-.065.615.041-.197.039-.412.065-.615l.664-.494 1.157-.176zm24.119-3.217l.25.887-.25-.887zm0 0c.22.168.478.31.684.487-.206-.178-.464-.319-.684-.487zm.684.487zm46.428-21.178c-.12.25-.24.5-.373.738.133-.239.253-.488.373-.738zm7.25 3.898c-.265.052-.53.101-.795.141m8.357 18.686c.038-.664-.046-1.314-.527-1.913.481.6.565 1.249.527 1.913zm11.563-80.38l-.535-1.817m-55.413 17.94a.315.315 0 0 1 .023-.017m10.807 63.449l-.396 1.222.396-1.222zm.162-.5l-.412-.301.412.301zm.058-.634zm.262.519l.608-1.417-.403-.208c.134.07.27.138.403.208l-.608 1.417v.019-.019l-.057-.112.057.112zm-.01.477c.004.22.01.44.013.66l-.013-.66zm.073 1.158l.296.005-.297-.005-.058-.471.059.47zm.296.005c.09 0 .179.002.268.004zm-.369-1.163l.01-.458-.01.458zm-.047-.589l-.15-.296.15.296zm.06 1.248v0zm24.875 2.37l.007-.002m53.186-16.145l-.002-.006m.012.033a.976.976 0 0 1 .043.253m-1.655-.09c.13.066.264.132.403.201m-7 .122c.018-.065.037-.129.063-.189m-.133.676c.003-.06.008-.12.015-.178m-.027.722c.001-.104.001-.209.003-.312m5.496-1.689c-.498-.199-1.001-.027-1.505.109.504-.136 1.007-.308 1.505-.109zm-.61-26.56zm-.447-.265zm2.481 1.627l.594.456h-.001l-.593-.455c-.636-.417-1.254-.869-1.895-1.275.641.406 1.26.858 1.895 1.274zM77.9 136.4zm106.873-21.95l.037.044zm10.968 26.39l.156 1.026c-.05-.342-.105-.684-.156-1.026.313-.223.478-.23.563-.1-.085-.129-.25-.122-.563.1zm13.601-62.747l.478.016-.478-.016-1.886.118 1.886-.118zm-2.125 1.73c0-.207.01-.413.01-.62 0 .207-.01.413-.01.62zm0 .085zm42.386-23.842l-.048-.08h-.001c-.234-.257-.454-.53-.705-.77-.772-.739-1.584-1.417-1.055-2.71.11-.27-.26-.735-.411-1.11h.008l-1.186-1.656.007.003-1.416-2.604.019-.013-1.396-9.44-.191-1.814c-1.392.809-2.604 1.435-3.733 2.187-1.253.835-2.111.876-3.296-.09-.516-.421-1.064-.835-1.47-1.352-1.762-2.246-4.195-3.144-6.884-3.638-1.63-.3-3.232-.74-4.848-1.118l-.002.015c-.379-.074-.756-.164-1.138-.22-.934-.134-1.767-.083-2.639.501-2.713 1.819-5.513 3.507-8.265 5.268-1.038.664-2.038 1.387-3.055 2.084-1.082.63-2.184 1.228-3.24 1.896-1.709 1.082-3.388 2.21-5.08 3.317l.028.092-.033-.09-2.115 1.396-.067.016v.001c-.28.175-.56.348-.841.522l-.001-.01v-.001h-.001c-2.493 1.528-4.985 3.054-7.479 4.58l-1.647 1.187-3.792 3.052-.48.486-7.383 7.235.007-.003-.268.227.022-.03-.437.302v-.002l-1.184.706-.002-.006c-1.04.328-2.06.745-3.121.966-2.487.52-4.992.944-7.49 1.408l-1.461.291-6.094 1.179c-2.359-.623-2.54-1.039-1.372-3.165.075-.137.143-.277.214-.415l-.928-2.916-.716-.858c-.51-.182-1.026-.35-1.53-.548-1.152-.451-2.429-.732-3.413-1.426-1.07-.756-2.186-1.078-3.399-1.403-.834-.222-1.568-.868-2.304-1.385-.587-.412-1.056-1.013-1.675-1.355-.951-.526-1.528-1.155-1.7-2.306-.108-.725-.55-1.597-1.122-2.022-3.64-2.697-7.369-5.274-11.044-7.922-1.018-.734-1.958-1.575-2.933-2.367-1.47-.938-2.977-1.823-4.404-2.822-7.47-5.234-14.912-10.503-22.38-15.74-1.18-.828-2.435-1.551-3.655-2.323l-.782-.78-1.795-1.27-.007-.009c-1.945-1.239-3.907-2.451-5.83-3.722-3.1-2.05-6.174-4.138-9.26-6.21l-7.036-4.504-1.893-1.21-.001.007-.463-.283.008.013h-.002l-1.806-1.31v10.673a.162.162 0 0 0-.14.124c-7.989 0-15.976.008-23.963-.016-.782-.002-1.097.152-1.092 1.037.034 6.295.015 12.59-.006 18.885-.002.455-.149.909-.229 1.363l-.5.195-.318.256c-2.522.42-4.759 1.47-6.641 3.19-.796.727-.897 1.677-.756 2.801.443 3.524.712 7.069 1.066 10.791h-2.517c-8.619.006-17.235.01-25.853.017-1.69.002-1.69.006-1.867 1.205l1.923 3.08.041.026.31.377v-.002l1.835.75c1.81 2.332 2.225 4.827.889 7.535a6.02 6.02 0 0 0-.457 1.201c-.029.124.166.303.272.46h-.002c-.147.29-.36.565-.425.872-.084.394-.223 1.04-.036 1.186 1.292 1 1.578 2.43 1.967 3.882 1.023 3.823 1.451 7.616-.08 11.41-.303.67-.642 1.325-.902 2.011-.921 2.439-1.961 4.856-1.662 7.564l-.25 2.334L0 102.501c1.045 1.13 1.86 2.469 2.788 3.71.316.42.687.797 1.121 1.297-.361.806-.24 1.167 1.195 2.967.019.208.04.415.06.623l-.674.87c-1.402-.076-1.713.606-1.037 2.267l-.058.455a.592.592 0 0 1 0 0c-.28 1.167-.641 2.325-.075 3.522.097.204.049.528-.035.76-.387 1.064.473 2.212 1.598 2.124.441-.035.888-.006 1.332-.006l-.214.36.93 1.34c.207 1.346.852 1.918 2.097 1.81.476-.042.95-.091 1.424-.14a.838.838 0 0 0 .25-.024c.706-.074 1.41-.15 2.11-.22-.17 1.379-.17 1.379 1.978 1.661-1.99 1.104-2.03 1.153-.929 3.263.245.469.79.78 1.193 1.167.297.286.712.528.855.879.265.651.494.915 1.201.48.214-.133.691.08 1.009.22.308.138.567.387.847.587l.24.245.342 1.098.178.487.663 1.005c-.012.802.39 1.183 1.185 1.165.033-.031.064-.064.094-.097l.384.1.615.586a.167.167 0 0 1 .144.07c.71.73 1.405 1.476 2.14 2.18.144.138.437.164.662.164.78 0 .958.276.874 1.098-.06.592.231 1.59.66 1.796 1.517.732 1.938 2.024 2.282 3.456.154.635.446 1.236.6 1.87.13.53.15 1.086.225 1.685l1.41-.347.1.33-2.085.835c.376 1.025.575 2.023 1.763 2.4.28.09.375.695.598 1.034.277.421.597.813.9 1.218l.01.011.288 1.672-.474.224-.237.63c1.127.138 2.026 1.376 3.325.694l-.003.004.42.286.008.003c.36.85 1.129.706 1.82.75l.044.014 1.496.613a.198.198 0 0 1 .171.05l.342.157a.15.15 0 0 1 .134.068l.945.478.47.251c-.026 1.158.941.951 1.602 1.165a.785.785 0 0 1 .074.208l.879.759.273.228.26.209-.005-.004 3.775 2.838c.405.803.885 1.467 1.844 1.751.895.266 1.73.74 2.59 1.122l.024.014.253.197.92.725.01.008 1.643 1.408.012.008.239.214.007.007.64.486c.057.03.094.077.108.14l.42.32.007.006.236.224.004.004.241.222.004.004.246.224v-.002l1.178.946.354.281c.07.028.116.076.143.146l.654.54.245.25.253.207c.076.004.145.029.206.075.167.28.265.676.512.822a68.127 68.127 0 0 0 3.832 2.108c.35.18.8.164 1.204.237a.156.156 0 0 1 .14.07c.105.558.326.9.94.5l.467.232c.739.432 1.441.954 2.227 1.266.626.25 1.355.24 2.038.346h.448c.114-.015.226-.029.34-.042l.066-.023.07.004c.707-.104 1.603.031 2.092-.353 2.249-1.764 5.037-2.14 7.582-3.114 1.615-.62 3.425-.73 5.047-1.34 1.82-.686 3.53-1.585 5.553-.824.344.13.806.117 1.164.008 2.596-.788 5.243-.539 7.883-.456l.107-.003.1.035.478.068 1.154.025.422-.153.041-.022 1.427-.413.022.045.275.383.017.017c.19.27.333.714.578.78 1.514.413 3.052.741 4.581 1.098l.024.012 1.4.678.031.017c1.346.858 2.15.715 3.721-.662.062-.034.118-.075.171-.122l.194-.16.07-.04 1.677-.846.031-.012.693-.213 5.288-1.849 4.614-2.388.674-.27.762-.263.734-.196.456-.06 2.936-.166 2.244-1.249.182-.206.032-.036.22-.209.013-.01.266-.191h-.001l1.408-.88 3.301-.752.478-.02.47-.01 3.78-.75 2.565-.266 3.55.031.73.019a.72.72 0 0 1 .198-.085l.288-.095 1.604-1.079 1.689-.503.12.297-1.31.898.064.412c.909 0 1.817.007 2.727-.001 1.865-.018 3.661.258 5.25 1.315.379.251.689.607 1.03.915a.22.22 0 0 1 .126.126c.778.803 1.562 1.6 2.33 2.41.412.433.67 1.052 1.503.578.418-.238 1.015.463.882.945-.385.202-.77.404-1.157.605.446.107.886.243 1.338.307.168.024.36-.12.541-.187.188.671.182.684-.73 1.319a.275.275 0 0 1-.127.15c.333 1.19.467 2.49 1.054 3.54.629 1.123 1.574 2.14 2.575 2.968 1.42 1.174 1.509 1.082 2.972-.07.232.978.885.918 1.608.65l.042-.026.563-.906c.544.54.99 1.237 1.744.445l.034-.407c.7.094 1.527.457 1.94.186.395-.258.36-1.174.472-1.63 1.241.258 2.612.706 4.004.792 1.528.094 3.074-.144 4.702-.242l-.177-2.326 2.192.972c.843-2.11 1.841-4.172 2.489-6.34.786-2.63 2.54-4.477 4.436-6.252a97.567 97.567 0 0 1 4.612-4.022c.208-.171.798-.118 1.06.056 1.074.717 1.768.65 2.385-.43.402-.704.95-.6 1.355-.19.875.885 1.611 1.908 2.48 2.803.478.493 1.093 1.15 1.673 1.179.858.04 1.496-.61 1.884-1.52.35-.824.933-1.575 1.522-2.263.454-.53 1.058-.871.76-1.757-.1-.292.19-.734.342-1.09.832-1.935 1.78-3.828 2.486-5.808.665-1.865 1.087-3.728 3.345-4.47.622-.203 1.242-1.257 1.355-1.998.284-1.86.702-3.462 2.477-4.55.58-.356.835-1.39 1.047-2.167.818-3.001 1.729-5.977 3.551-8.53.647-.905 1.634-1.724 2.646-2.182 3.067-1.387 4.154-2.992 3.931-6.383-.065-.984-.64-1.635-1.547-1.864-1.564-.394-2.205-1.465-2.214-2.932-.013-2.489-1.295-4.351-2.814-6.125-.438-.614-1.042-1.172-1.273-1.855-.327-.972-.362-2.04-.557-3.059-.235-1.225-.217-2.374.574-3.444.434-.587.732-1.274 1.092-1.915l-.008-.002.468-.725-.017-.006h.001c.128-.143.294-.266.382-.43 2.083-3.908 5.047-7.13 7.994-10.375 1.119-1.232 2.112-2.577 3.162-3.871h-.002c.988-1.052 1.295-2.37 1.414-3.743.21-2.416.395-4.833.57-7.252.191-2.643.36-5.288.538-7.932l.061-1.622.095-.964.16-.943-.065-.458.5-2.114 1.001-1.43c.058-.303.074-.623.182-.907.34-.896.334-1.682-.58-2.244z"/></g></g></g></svg>