<svg xmlns="http://www.w3.org/2000/svg" width="55" height="40" viewBox="0 0 55 40"><g><g><g><path fill="#d55b0f" d="M38.233 36.782h-.11a13.209 13.209 0 0 1-4.081-.666c-4.974-1.735-8.678-6.622-8.718-11.982v-.175c.077-5.319 3.755-10.159 8.69-11.893a13.21 13.21 0 0 1 4.11-.674h.108c1.421.006 2.806.242 4.11.674 4.935 1.734 8.613 6.574 8.69 11.893v.175c-.04 5.36-3.744 10.248-8.718 11.982-1.295.427-2.67.66-4.081.666zm16.284-12.68v-.174c.006-.863-.291-1.733-.894-2.631a11.199 11.199 0 0 1-.201-.31c-.628-1.125-1.032-2.3-1.083-3.681-.087-2.22-1.088-3.97-3.418-4.688-.05-.015-.1-.033-.15-.05-.873-.468-1.7-.993-2.466-1.606a19.499 19.499 0 0 1-1.055-1.13 5.05 5.05 0 0 0-1.15-1.003c-.782-.618-1.771-.808-2.878-.528-1.003.255-2.025.39-3.044.397a12.726 12.726 0 0 1-3.044-.397c-1.107-.28-2.097-.09-2.877.528a5.053 5.053 0 0 0-1.15 1.003c-.341.388-.688.772-1.056 1.13a16.08 16.08 0 0 1-2.466 1.606c-.05.017-.1.035-.15.05-2.33.719-3.331 2.468-3.418 4.688-.05 1.38-.455 2.556-1.083 3.681-.065.104-.132.207-.2.31-.604.898-.9 1.768-.894 2.63a3.936 3.936 0 0 0 0 .175c-.001.045-.002.09 0 .134-.01.866.287 1.733.892 2.641l.149.227c.654 1.15 1.078 2.35 1.13 3.764.086 2.22 1.088 3.97 3.417 4.688.062.019.123.04.184.061.835.45 1.627.95 2.366 1.531.392.376.761.782 1.122 1.194.377.435.775.779 1.201 1.033.775.594 1.75.774 2.84.498 1-.254 2.02-.388 3.037-.397 1.017.009 2.037.143 3.037.397 1.09.276 2.065.096 2.84-.498.426-.254.824-.599 1.2-1.033.362-.411.73-.818 1.123-1.194a16.166 16.166 0 0 1 2.366-1.53c.061-.022.121-.043.184-.062 2.329-.719 3.33-2.468 3.417-4.688.052-1.414.476-2.613 1.13-3.764.049-.076.098-.152.149-.227.605-.908.902-1.775.893-2.641v-.134z"/></g><g><path fill="#d55b0f" d="M45.482 30.042c0-.522.007-.98 0-1.43-.044-1.937-.646-2.582-2.518-2.778a1.464 1.464 0 0 0-.182-.015c-.551-.044-1.204-.174-1.589-.523-.71-.638-.98-1.494-.508-2.474.363-.754.632-1.553.973-2.322.805-1.821.087-3.36-1.074-4.651-.668-.748-1.444-1.081-2.206-1.06-.762-.022-1.538.312-2.206 1.06-1.16 1.291-1.88 2.83-1.074 4.65.341.77.61 1.568.973 2.323.471.973.203 1.836-.508 2.474-.385.341-1.038.472-1.59.523-.065.007-.123.015-.18.015-1.866.196-2.475.848-2.519 2.779-.007.457-.007.921 0 1.451v.435H45.497c-.015-.16-.015-.312-.015-.457z"/></g><g><path fill="#d55b0f" d="M20.817 37.029v-2.032h2.032v2.032z"/></g><g><path fill="#d55b0f" d="M21.733 17.222c.063-1.6.49-2.983 1.268-4.117.873-1.272 2.138-2.17 3.76-2.67l.01-.004c.97-.294 1.758-1.126 2.614-2.102a7.466 7.466 0 0 1 1.469-1.313l.189-.26C28.917 4.475 26.849 2.277 24.715 0 23.097 1.74 13.94 12.35 12.256 13.612v-2.96H6.27v9.745c-.058.08-4.79 5.66-6.27 7.547h6.06v10.935c.275-.247.522-.464.74-.71 4.027-4.45 8.163-8.796 11.994-13.41.28-.337.534-.697.769-1.072.064-1.14.445-2.284 1.137-3.407.687-1.11.995-2.023 1.033-3.058z"/></g><g><path fill="#d55b0f" d="M20.83 28.145a8.532 8.532 0 0 1-.686-1.232L9.486 38.879h4.3l7.926-8.856a6.504 6.504 0 0 0-.876-1.87z"/></g><g><path fill="#d55b0f" d="M20.795 32.05v2.033h1.622a5.844 5.844 0 0 1-.486-2.032z"/></g><g><path fill="#d55b0f" d="M24.445 37.029h.88a6.976 6.976 0 0 1-.88-.522z"/></g></g></g></svg>