<svg xmlns="http://www.w3.org/2000/svg" width="40" height="41" viewBox="0 0 40 41"><g><g><g><g><path fill="#d55b0f" d="M36.735 37.67h-17.96v-2.45h17.96zM40 37.465v-2.653c0-1.803-1.054-2.857-2.857-2.857h-17.96c-2.423 0-3.673 1.148-3.673 2.857v3.444c0 1.786 1.2 2.679 3.674 2.679h17.959c1.803 0 2.857-1.2 2.857-3.47z"/></g><g><path fill="#d55b0f" d="M35.102 21.343h-5.714v-4.898h5.714zM18.81 25.527l2.414-5.204L23.188 23zM17.7 23.743l-1.423-2.511 3.532-2.522zm-4.366-7.762l2.95-2.022-1.68 4.5zm.27-6.203l1.757 2.56-2.64 1.692zm-3.387.165l2.381-1.549-.932 4.241zm-.25-5.905l1.565 2.716-2.527 1.628zM8.056 6.49L6.648 3.815 8.845 2.37zm-.71 8.321H6.53V5.808l.816 1.54zm11.714 2.613l.01.014-3.33 2.167 1.712-4.394zm7.061-4.245v7.814l1.04 2.798h-1.75L8.336 0 4.574 2.27l1.14 1.999v10.543H4.51l.81 5.715h.395v1.726c-.735.334-1.55 1.05-1.55 2.338 0 .865.336 1.496.83 1.917L.565 30.323h1.251l3.92-3.38c.356.14.736.216 1.111.216.377 0 .752-.1 1.09-.282l4.25 3.446h1.275l.009-.012-4.89-3.963c.331-.4.551-.935.551-1.62a.816.816 0 1 0-1.633 0c0 .293-.079.477-.182.595l-.224-.18a.408.408 0 0 0-.523.007l-.306.264c-.265-.122-.469-.362-.469-.822 0-.738.732-.917.87-.943a.818.818 0 0 0 .681-.806v-2.316h.906l1.142-5.715H8.163V8.887L17.96 27.74v.95h3.265v1.633H33.47V28.69h4.898V13.18z"/></g><g><path fill="#d55b0f" d="M.816 35.22H0v1.633H13.06v-1.632h-1.633v-2.449h1.633v-1.633H0v1.633h1.633v2.449z"/></g></g></g></g></svg>