<svg xmlns="http://www.w3.org/2000/svg" width="34" height="45" viewBox="0 0 34 45"><g><g><g><g><g><path fill="#d55b0f" d="M22.5 0v11.25h11.25z"/></g></g></g><g><g><g><path fill="#d55b0f" d="M27.984 28.125h-11.11v-11.11c.465-.064.926-.14 1.407-.14 5.437 0 9.844 4.407 9.844 9.844 0 .48-.076.942-.14 1.406zm-12.516 11.25c-5.436 0-9.843-4.407-9.843-9.844 0-4.955 3.673-9.014 8.437-9.703v11.11h11.11c-.69 4.764-4.748 8.437-9.704 8.437zM22.5 14.062a2.817 2.817 0 0 1-2.813-2.812V0H2.812A2.817 2.817 0 0 0 0 2.813v39.374A2.815 2.815 0 0 0 2.812 45h28.125a2.814 2.814 0 0 0 2.813-2.813V14.064z"/></g></g></g></g></g></svg>