<svg xmlns="http://www.w3.org/2000/svg" width="40" height="40" viewBox="0 0 40 40"><g><g><g><path fill="#d55b0f" d="M1.508 12.524l9.13 3.764a1.35 1.35 0 0 0 1.675-.557l4.11-6.923 7.51-3.696.232 3.414a.243.243 0 1 0 .436.13l6.292-8.2A.269.269 0 0 0 30.92.17a.269.269 0 0 0-.242-.152L20.34 0a.244.244 0 0 0-.162.425l2.564 2.268-7.869 3.872c-.235.116-.43.297-.565.521l-3.72 6.265-8.05-3.32a1.347 1.347 0 1 0-1.03 2.493z"/></g><g><path fill="#d55b0f" d="M37.978 36.052H2.023a2.022 2.022 0 1 0 0 4.045h35.955a2.022 2.022 0 0 0 0-4.045z"/></g><g><path fill="#d55b0f" d="M4.02 19.592a.817.817 0 0 0-.816.817v12.13c0 .45.366.817.816.817h4.77a.818.818 0 0 0 .818-.817v-12.13a.818.818 0 0 0-.817-.817z"/></g><g><path fill="#d55b0f" d="M30.394 6.645V32.54c0 .45.366.817.816.817h4.772c.45 0 .816-.366.816-.817V6.645a.817.817 0 0 0-.816-.817H31.21a.817.817 0 0 0-.816.817z"/></g><g><path fill="#d55b0f" d="M22.147 13.047a.818.818 0 0 0-.818.817V32.54c0 .45.367.817.818.817h4.77c.45 0 .817-.366.817-.817V13.864a.817.817 0 0 0-.816-.817z"/></g><g><path fill="#d55b0f" d="M13.084 23.202a.817.817 0 0 0-.817.817v8.52c0 .45.366.817.817.817h4.77a.818.818 0 0 0 .817-.817v-8.52a.818.818 0 0 0-.818-.817z"/></g></g></g></svg>