<svg xmlns="http://www.w3.org/2000/svg" xmlns:xlink="http://www.w3.org/1999/xlink" width="445.2" height="324.512" viewBox="0 0 445.2 324.512"><defs><linearGradient id="a" x1="0.5" y1="1" x2="0.5" gradientUnits="objectBoundingBox"><stop offset="0" stop-color="gray" stop-opacity="0.251"/><stop offset="0.54" stop-color="gray" stop-opacity="0.122"/><stop offset="1" stop-color="gray" stop-opacity="0.102"/></linearGradient></defs><g transform="translate(0.03 0.01)"><path d="M974.618,150.984s-6.216-2.526-25.991,6.53-22.244,7.918-27.366,6.53-7.971-1.718-13.469-9.293c0,0-3.869-20.979-7.616-24.232s-19.664,1.853-19.664,1.853-19.081,4.379-22.717-21.113c0,0,2.579-19.228-.935-25.125,0,0,7.094,3.057,18.8-1.882s21.081,5.306,21.081,5.306,2.951,7.645,2.641,12.2,1.563,6.269,7.147,4.081c0,0,2.743-3.9-1.143-10.351s-6.657-11.253-5.571-16.265,4.2-11.95,14.216-15.424,23.619-4.143,30.15-6.861,8.11-4.49,8.11-4.49-4.016,4.024,5.449,21.093,3.432,24.489,3.432,24.489-5.036,12-27.268,11.02c0,0-21.424.784-9.742,9.869,0,0,7.477-1.522,18.66-5.077s19.256,11.114,21.26,21.321S974.618,150.984,974.618,150.984Z" transform="translate(-529.448 -52.46)" fill="#ff9350"/><path d="M1050.351,84.129l.114-.029c.861,3.265-8.714,16.326-16.9,26.746l-.1-.073C1045.016,96.1,1051.012,86.635,1050.351,84.129Z" transform="translate(-633.975 -71.192)" fill="#444053"/><path d="M1000.06,148.92l.049.135c-6.53,8.31-14.763,18.228-21.342,25.574-.624.7-1.249,1.437-1.849,2.188l-.188-.151c.6-.755,1.224-1.494,1.857-2.2C985.166,167.127,993.525,157.23,1000.06,148.92Z" transform="translate(-600.393 -109.556)" fill="#444053"/><path d="M955.091,216.41l.131.224c-11.975,14.95-12.767,38.166-12.8,38.366l-2.526-2.914C939.941,251.882,943.031,231.466,955.091,216.41Z" transform="translate(-578.595 -149.501)" fill="#444053"/><path d="M976.182,202.942s-14.122-7.347-25.125-4.706-35.782-9.31-35.782-9.31-10.518-4.273-12.652-9.147c0,0-7.22-7.628-7.632-11.583s-7.436-13.877-12.02-14.257" transform="translate(-544.901 -112.527)" fill="none" stroke="#444053" stroke-miterlimit="10" stroke-width="1"/><path d="M1097.129,276.275s-7.11-4.792-6.285-10.375" transform="translate(-667.893 -178.792)" fill="none" stroke="#444053" stroke-miterlimit="10" stroke-width="1"/><path d="M1063.381,280.131s-10.167-3.694-11.191-18.171" transform="translate(-645.055 -176.46)" fill="none" stroke="#444053" stroke-miterlimit="10" stroke-width="1"/><path d="M1029.033,283.534a22.767,22.767,0,0,1-6.494-22.154" transform="translate(-627.118 -176.116)" fill="none" stroke="#444053" stroke-miterlimit="10" stroke-width="1"/><path d="M986.591,273.513s-6.477-13.571-.714-22.4" transform="translate(-604.393 -170.038)" fill="none" stroke="#444053" stroke-miterlimit="10" stroke-width="1"/><path d="M1103.056,252.08s-7.347,2.335-5.775,6.2" transform="translate(-671.612 -170.612)" fill="none" stroke="#444053" stroke-miterlimit="10" stroke-width="1"/><path d="M1075.393,219.37s-9.84,3.122-10.073,17.044" transform="translate(-652.826 -151.252)" fill="none" stroke="#444053" stroke-miterlimit="10" stroke-width="1"/><path d="M1044.292,211.5s-8.955,11.057-8.3,21.105" transform="translate(-635.447 -146.595)" fill="none" stroke="#444053" stroke-miterlimit="10" stroke-width="1"/><path d="M1006.608,222.12s-8.9,8.506-7.755,13.236" transform="translate(-613.427 -152.88)" fill="none" stroke="#444053" stroke-miterlimit="10" stroke-width="1"/><path d="M991.01,212.984s-8.343,1.5-9.51-1.224" transform="translate(-603.217 -146.748)" fill="none" stroke="#444053" stroke-miterlimit="10" stroke-width="1"/><path d="M978.24,190.08s4.216,5.583,5.306,4.334" transform="translate(-601.287 -133.917)" fill="none" stroke="#444053" stroke-miterlimit="10" stroke-width="1"/><path d="M1043.221,174.452s-21.032,1.526-25.791-4.812" transform="translate(-624.482 -121.82)" fill="none" stroke="#444053" stroke-miterlimit="10" stroke-width="1"/><path d="M967.4,121.16s9.869,21.183,17.032,23.881" transform="translate(-594.872 -93.126)" fill="none" stroke="#444053" stroke-miterlimit="10" stroke-width="1"/><path d="M992.76,96.44s6.061,19.485,13.571,25.566" transform="translate(-609.881 -78.496)" fill="none" stroke="#444053" stroke-miterlimit="10" stroke-width="1"/><path d="M1065.185,141.888s-15.991,6.865-25.595-.078" transform="translate(-637.598 -105.348)" fill="none" stroke="#444053" stroke-miterlimit="10" stroke-width="0.75"/><path d="M1027.67,86.26s3.653,14.326,8.571,17.783" transform="translate(-630.543 -72.471)" fill="none" stroke="#444053" stroke-miterlimit="10" stroke-width="0.75"/><path d="M1078.486,102.73s-8.979,3.4-12.346.816" transform="translate(-653.311 -82.218)" fill="none" stroke="#444053" stroke-miterlimit="10" stroke-width="0.75"/><path d="M954.444,201.55s-.025,12.485-3.4,13.371" transform="translate(-585.189 -140.706)" fill="none" stroke="#444053" stroke-miterlimit="10" stroke-width="1"/><path d="M891.3,232.787s13.5,1.151,19.722-5.787" transform="translate(-549.831 -155.768)" fill="none" stroke="#444053" stroke-miterlimit="10" stroke-width="1"/><path d="M933.037,165.41s-3.265,12.652-12.277,16.073" transform="translate(-567.267 -119.316)" fill="none" stroke="#444053" stroke-miterlimit="10" stroke-width="1"/><path d="M871.46,201.049s9.555,3.322,17.771-5.139" transform="translate(-538.089 -137.368)" fill="none" stroke="#444053" stroke-miterlimit="10" stroke-width="1"/><path d="M915.027,138.74s-.9,10.755-6.747,15.787" transform="translate(-559.881 -103.531)" fill="none" stroke="#444053" stroke-miterlimit="10" stroke-width="1"/><path d="M872.35,164.681s7.93.053,9.8-2.531" transform="translate(-538.616 -117.387)" fill="none" stroke="#444053" stroke-miterlimit="10" stroke-width="1"/><path d="M242.53,792.244s5.432-3.583,10.816-1.033c0,0-1.657,3.192-8.473,2.89Z" transform="translate(-165.853 -489.157)" fill="#ff9350"/><path d="M240.428,795.54s-1.653,6.31,2.49,10.575c0,0,2.494-2.6.02-8.951Z" transform="translate(-164.416 -492.262)" fill="#ff9350"/><path d="M224.3,775.026s.408-5.355,12.489-3.579c0,0,.057,3.453-4.188,5.09S226.418,776.794,224.3,775.026Z" transform="translate(-155.064 -477.789)" fill="#ff9350"/><path d="M218.935,780.65s-5.11,1.633-.555,12.975c0,0,3.371-.751,3.967-5.261S221.151,782.291,218.935,780.65Z" transform="translate(-150.441 -483.449)" fill="#ff9350"/><path d="M205.7,750.447s-.69-8.808,11.661-7.9c0,0,.878,7.971-9.477,10.02Z" transform="translate(-144.051 -460.858)" fill="#ff9350"/><path d="M185.72,726.72s1.69-9.979,14.036-7c0,0,.049,8.628-12.024,9.387Z" transform="translate(-132.23 -447.057)" fill="#ff9350"/><path d="M171.1,701.823s2.857-9.747,15.069-6.812c0,0-2.91,8.742-14.256,8.608Z" transform="translate(-123.577 -432.437)" fill="#ff9350"/><path d="M157.22,676.839s2.771-10.089,14.579-7.061c0,0-3.943,9.587-13.8,8.779Z" transform="translate(-115.362 -417.493)" fill="#ff9350"/><path d="M148.27,650.026s2.131-12.338,13.142-9.608c0,0-3.2,11.224-12.33,11.4Z" transform="translate(-110.065 -400.219)" fill="#ff9350"/><path d="M139.88,622.554s2.559-12.436,13.689-8.82c0,0-4.371,11.755-12.914,10.538Z" transform="translate(-105.099 -384.269)" fill="#ff9350"/><path d="M134.69,592.442s4.057-12.44,12.673-12.1c0,0-4.151,13.138-11.955,14.6Z" transform="translate(-102.028 -364.891)" fill="#ff9350"/><path d="M131.39,564.263s4.416-14.975,11.428-13.816c0,0-3.057,11.428-11.179,16.15Z" transform="translate(-100.074 -347.164)" fill="#ff9350"/><path d="M129.51,534.967S133.653,522.49,140.575,522c0,0-2.82,12.277-10.91,16.216Z" transform="translate(-98.962 -330.366)" fill="#ff9350"/><path d="M127.46,506.735s5.167-12.493,9.738-12.775c0,0-2.241,12.3-9.281,14.824Z" transform="translate(-97.748 -313.77)" fill="#ff9350"/><path d="M126.05,477.4s3.175-13.567,7.755-14.693c0,0-.624,11.093-7.285,15.705Z" transform="translate(-96.914 -295.275)" fill="#ff9350"/><path d="M121.85,445.931s3.339-10.812,7.036-12.461c0,0-.731,12.746-6.179,15.1Z" transform="translate(-94.428 -277.969)" fill="#ff9350"/><path d="M117.363,413.494l-.673-19.064s6.906,14.391,1.184,22.428Z" transform="translate(-91.374 -254.863)" fill="#ff9350"/><path d="M96.305,373.413s-4.979-13.922-6.175-14.693c0,0,9.767,9.032,8.812,20.652Z" transform="translate(-75.655 -233.728)" fill="#ff9350"/><path d="M192.559,761.849s-8.759-1.147-8.5,11.232c0,0,7.918,1.29,10.5-8.947Z" transform="translate(-131.245 -472.305)" fill="#ff9350"/><path d="M171.148,736.87s-10.122-.037-9.3,12.652c0,0,8.493,1.518,11.3-10.244Z" transform="translate(-118.075 -457.538)" fill="#ff9350"/><path d="M149.009,713.328s-9.187-4.29-15.069,6.812c0,0,8.489,3.588,15.881-5.016Z" transform="translate(-101.584 -443.122)" fill="#ff9350"/><path d="M135.064,686.736s-9.408-4.588-14.934,6.281c0,0,9.8,3.371,15.709-4.563Z" transform="translate(-93.41 -427.297)" fill="#ff9350"/><path d="M124.951,659.655s-9.053-8.653-16.281.1c0,0,9.253,7.118,16.7,1.828Z" transform="translate(-86.628 -409.579)" fill="#ff9350"/><path d="M117.531,630.049s-9.11-8.849-16.281.408c0,0,10.228,7.257,16.6,1.449Z" transform="translate(-82.236 -392.057)" fill="#ff9350"/><path d="M114.841,596.216s-7.016-11.02-15.281-8.571c0,0,7.281,11.7,15.2,11.175Z" transform="translate(-81.236 -369.008)" fill="#ff9350"/><path d="M111.943,567.139s-7.081-13.914-13.763-11.5c0,0,5.1,10.693,13.942,13.836Z" transform="translate(-80.419 -350.11)" fill="#ff9350"/><path d="M110.281,537.891s-7.269-10.955-14.081-9.616c0,0,5.943,11.106,14.787,12.783Z" transform="translate(-79.247 -334.013)" fill="#ff9350"/><path d="M114.544,506.685s-5.632-12.289-10.2-12.4c0,0,2.706,12.2,9.836,14.461Z" transform="translate(-84.065 -313.965)" fill="#ff9350"/><path d="M110.7,479.969S104.436,467.524,99.73,467.5c0,0,3.208,10.64,10.759,13.567Z" transform="translate(-81.336 -298.11)" fill="#ff9350"/><path d="M111.871,449.209s-4.685-10.3-8.571-11.469c0,0,2.343,12.555,8.049,14.2Z" transform="translate(-83.449 -280.496)" fill="#ff9350"/><path d="M101.807,417.136,91.33,401.19s2.682,15.73,12,18.987Z" transform="translate(-76.365 -258.864)" fill="#ff9350"/><path d="M81.088,383.742S68.921,375.343,68.48,374c0,0,6.208,11.767,17.681,13.84Z" transform="translate(-62.841 -242.771)" fill="#ff9350"/><path d="M72.14,369.156S58.169,355.728,54.59,355.74c0,0,11.522.526,17.873,12.7Z" transform="translate(-54.62 -231.964)" fill="#ff9350"/><path d="M107.629,420.525l-.51.065c-2.624-20.55-6.453-32.692-10.779-34.194l.171-.486C101.1,387.5,104.927,399.473,107.629,420.525Z" transform="translate(-79.33 -249.82)" fill="#444053"/><path d="M126.892,517.645l-.767.065c-.163-1.918-.286-3.881-.371-5.836-.731-17.011-1.869-32.627-3.363-44.337l.445-.547c1.5,11.726,2.955,27.819,3.673,44.847C126.61,513.784,126.72,515.735,126.892,517.645Z" transform="translate(-94.748 -297.808)" fill="#444053"/><path d="M191.015,681.985c-.135-.061-13.669-6.1-27.721-20.521a111.644,111.644,0,0,1-20.264-28.709c-6.494-13.216-10.453-29.464-11.779-45.255l.816.375c2.984,35.443,19.117,59.675,31.95,72.854,13.914,14.285,27.3,20.273,27.431,20.33Z" transform="translate(-99.992 -369.132)" fill="#444053"/><path d="M523.667,164.192V411.055c0,7.347-7.081,13.31-15.828,13.31H172.9c-8.742,0-15.824-5.971-15.824-13.31V164.192c0-7.347,7.081-14.852,15.824-14.852l334.919.816C516.566,150.152,523.667,156.838,523.667,164.192Z" transform="translate(-115.279 -109.805)" fill="#e8eaf2"/><path d="M523.667,164.266v11.428H157.08V164.266a14.926,14.926,0,0,1,14.926-14.926H508.725a14.93,14.93,0,0,1,14.942,14.926Z" transform="translate(-115.279 -109.805)" fill="#65617d"/><circle cx="5.273" cy="5.273" r="5.273" transform="translate(54.286 47.437)" fill="#fa5959" opacity="0.8"/><circle cx="5.273" cy="5.273" r="5.273" transform="translate(69.636 47.437)" fill="#fed253" opacity="0.8"/><circle cx="5.273" cy="5.273" r="5.273" transform="translate(84.982 47.437)" fill="#8ccf4d" opacity="0.8"/><path d="M930.267,706.993l-8.91-12.91s-.167-3.2-.751-3.943-.122-2.412-.122-2.412.625-.914.082-1-.082-2.118-.082-2.118l-.045-3.241s.5-3.114.086-3.861a1.224,1.224,0,0,1,.041-1.326s.5-1.788,0-2.245-.375-3.241-.249-5.441a8.257,8.257,0,0,0-.873-3.779c0-.335-3.29-3.571-3.29-3.861s-2.082-1.5-3.33-1.828-1.873-.58-1.833-.747-1.955-.816-1.955-.816a3.925,3.925,0,0,1-2.416-1c-.665-.873-2.7-1.122-2.759-1.13s-.029-.118-.041-.176l-.037-.188a9.133,9.133,0,0,0,.433-.816l.118-.253a3.551,3.551,0,0,0,2.041-.637,2.8,2.8,0,0,0,1-1.992,4.356,4.356,0,0,0-.486-2.212,3.75,3.75,0,0,1-.718-2.335,10.492,10.492,0,0,1,.408-1,2.653,2.653,0,0,0-.3-1.967c-.318-.6-.755-1.135-1.106-1.718a6.742,6.742,0,0,1-.882-2.449,3.79,3.79,0,0,0-.322-1.322,2.52,2.52,0,0,0-.731-.739,7.285,7.285,0,0,0-4.49-1.355,22.058,22.058,0,0,1-3.392.2,11.925,11.925,0,0,1-1.975-.518,5.131,5.131,0,0,0-4.224.216c-1.216.8-1.7,2.371-2.522,3.6a29.092,29.092,0,0,0-2.351,3.151v-.065a3.91,3.91,0,0,0-.31.841,6,6,0,0,0,.184,2.751,1.935,1.935,0,0,0,.673,1.224,3.976,3.976,0,0,0,1.457.286,1.324,1.324,0,0,1-.057.237,9.5,9.5,0,0,0,6.6,11.089v.253a5.712,5.712,0,0,1-.045.714h0s-4.183-.861-5.306-.278-3.33,1.037-3.673,1.371-1.167.082-1.918,2.041-.816,3.947-1.788,4.861-1.457,1.535-1.5,2.2.122.816-.253,1.037-.914,1.082-.747,1.412a1.188,1.188,0,0,1-.457,1.249,1.375,1.375,0,0,0-.584,1.224s-.249.914-.816,1.122-.959,1.575-.959,1.575l-1.886,2.171-3.743-4.139a1.583,1.583,0,0,0-2.228-.114l-1.837,1.633a3.64,3.64,0,0,0-1.837,1.094,4.817,4.817,0,0,0-.955,1.416l-1,.906a2.555,2.555,0,0,0-.257,2.824l2.4,2.649v.025a4.232,4.232,0,0,0-2.269.984c-3.579,3.155-3.624,6.065-3.081,7.391s5.077,6.441,5.077,6.441a20.323,20.323,0,0,0,6.441,5.249h0l-.029.029c-.073.082-.151.167-.224.261l-.061.078a.983.983,0,0,1-.057.082l-.065.1-.053.082-.073.122-.045.078-.086.163a.449.449,0,0,0-.029.053c-.008.02-.069.147-.1.224a.727.727,0,0,0-.033.086c-.024.053-.045.11-.065.163l-.037.11a.609.609,0,0,1-.053.159l-.037.118-.049.184a.378.378,0,0,1-.033.11c-.012.037-.045.2-.065.3a1.01,1.01,0,0,1-.02.118l-.037.216a.4.4,0,0,1-.02.151l-.025.2v.951c-.086,4.861.2,5.567.2,5.567a2.694,2.694,0,0,0,2.208,1.657,2.884,2.884,0,0,0,.714-.037c2.163-.375,7.24-1.249,9.032-.914a15.53,15.53,0,0,0,4.49-.363l.375-.073.261.816.816-.224.7.408c.184.11.335.2.441.253.816,2.788,4.155,1.837,4.155,1.837l.792.457,8.032.208a16.291,16.291,0,0,0,2.857,1.363,2.613,2.613,0,0,0,.408.09,18.8,18.8,0,0,0,2.241.041c.616,0,1.09-.041,1.09-.041s-.082-2.184-.2-4.624a65.444,65.444,0,0,0,7.44-.608c4.29-.755,6.081-4.657,6.739-6.743a19.425,19.425,0,0,1,.408,2.588,19.273,19.273,0,0,0,.665,2.245,7.58,7.58,0,0,0,.918,1.661c3.163-1.082,1.249-2.7.584-3.408s.457-1.286.457-1.286.873-.584.792-1.122-.127-1.122,2.706-1.078S930.267,706.993,930.267,706.993Zm-43.961-26.529a19.483,19.483,0,0,0,.788,3.469,4.434,4.434,0,0,1,.094,1.371c-1.677-.135-3.424-.208-3.424-.208a.408.408,0,0,1,.09.216l-.261-.061-.384-.094,3.09-4.7Zm-6.122,9.742,2.906.457.241.041a10.281,10.281,0,0,0-.151,1.371c0,.041.069.094.159.155a3.677,3.677,0,0,0-.053.686,8.021,8.021,0,0,0,2.959,1.139c-.02.086-.041.163-.065.237h0c-1.375-.722-3.539-1.061-3.788-1.6s-7.62-3.1-7.62-3.1-.269-.143-.735-.367l1.943.367.531-.053a28.81,28.81,0,0,0,3.673.673Z" transform="translate(-530.022 -397.556)" fill="url(#a)"/><path d="M936.036,792.413s-1.155,6.975-7.016,8-25.415.816-25.415.816-11.179-1.633-15.224-11.061-6.641-13.2-3.175-13.367,22.154,6.314,23.228,6.4S937.069,768.855,936.036,792.413Z" transform="translate(-545.268 -481.172)" fill="#65617d"/><path d="M936.036,792.413s-1.155,6.975-7.016,8-25.415.816-25.415.816-11.179-1.633-15.224-11.061-6.641-13.2-3.175-13.367,22.154,6.314,23.228,6.4S937.069,768.855,936.036,792.413Z" transform="translate(-545.268 -481.172)" opacity="0.05"/><path d="M883.308,818.743a2.674,2.674,0,0,0,2.188,1.633,2.825,2.825,0,0,0,.706-.037c2.147-.371,7.179-1.224,8.955-.906a15.366,15.366,0,0,0,4.445-.363c.935-.176,1.633-.339,1.633-.339s-1.653-5.49-1.857-5.653-7.428-4.49-7.428-4.49l-5.714-.408h0a3.029,3.029,0,0,0-1.939,1.139,6.084,6.084,0,0,0-1.155,3.894C883.026,818.041,883.308,818.743,883.308,818.743Z" transform="translate(-544.986 -499.743)" fill="#3f3d56"/><path d="M883.3,818.725a2.674,2.674,0,0,0,2.188,1.633,23.017,23.017,0,0,1-1.551-2.265l.029-4a7.053,7.053,0,0,1,2.245-5.943h0s-3.012.2-3.094,5.032S883.3,818.725,883.3,818.725Z" transform="translate(-544.979 -499.725)" opacity="0.05"/><path d="M939.507,794.472l5.306-4.167,8.375-8.253s-.9-.045-2.269-.1c-.339.216-1.29.9-1.326,1.722-.041,1.008-2.261.069-3.416.649s-6.808,7.812-7.8,7.755-1.775-.5-2.188.2l-.029.045Z" transform="translate(-576.382 -484.218)" opacity="0.1"/><path d="M885.93,809.367l.58.265c4.041,1.731,9.032,5.363,9.387,6.024.229.408,3.122,2.155,5.355,3.473.935-.176,1.633-.339,1.633-.339s-1.653-5.49-1.857-5.653-7.428-4.49-7.428-4.49l-5.714-.408h0A3.029,3.029,0,0,0,885.93,809.367Z" transform="translate(-546.653 -499.778)" opacity="0.1"/><path d="M858.057,769.888c.539,1.318,5.036,6.4,5.036,6.4a19.879,19.879,0,0,0,6.889,5.445c4.032,1.735,9.036,5.363,9.408,6.024.237.408,3.461,2.363,5.714,3.7l.51.3,1.127.653.6.343,2.755-2.224c1.359-1.1,2.71-2.212,2.73-2.273.041-.122.58-1.526.453-1.608-.061-.045-.347-.612-.869-1.278a5.791,5.791,0,0,0-2.1-1.735,5.988,5.988,0,0,1-2.722-2.857s-.18-.131-.453-.3a5.465,5.465,0,0,0-1.857-.816c-.906-.114-2.6-1.971-2.6-1.971a5.081,5.081,0,0,1-1.612-1.69c-.433-.906-6.832-5.306-7.424-5.714l15.509,9.963,3.71,2.384,5.306-4.167,8.379-8.249s-1.126-.057-2.767-.126c-4.081-.176-11.3-.453-12.212-.245a7.017,7.017,0,0,1-2.269.147,7.971,7.971,0,0,1-3.424-.629c-1.384-.722-3.506-1.053-3.755-1.588s-7.551-3.09-7.551-3.09-9.942-5.281-13.493-2.147S857.522,768.565,858.057,769.888Z" transform="translate(-530.004 -472.136)" fill="#65617d"/><path d="M937,690.042l1.278,4.249,1.633,9.571,6.065.408,1.755-2.91,1.751-2.906s1.094-3.869,1.877-7.608c.694-3.314,1.147-6.53.408-6.873-.669-.31-1.11-1.424-1.4-2.624-.037-.147-.069-.3-.1-.449a23.173,23.173,0,0,1-.408-3.077s-12.71-.657-10.934,4.583a8.29,8.29,0,0,1,.478,2.784,6.574,6.574,0,0,1-.041.71A5.942,5.942,0,0,1,937,690.042Z" transform="translate(-576.879 -422.574)" fill="#ee8e9e"/><path d="M930.51,701.12l.453,7.22L932,714.487l1.155,2.857,1.033,15.579s9.946,1.151,12.367-.02a1.078,1.078,0,0,0,.437-.343c2.906-4.424,1.967-17.187,1.967-17.187l1.114-8.249-.743-4.286-1.8-.188-1.384-.151s-.31.384-.759.98c-1.224,1.633-3.473,4.792-3.322,6.122.2,1.816-.249,3.673-.951,3.963s-1.278.784-1.4.286a2.249,2.249,0,0,1-.122-1.318,11,11,0,0,0-.535-2.857,11.944,11.944,0,0,1-1.033-3.588,4.234,4.234,0,0,0-.453-2.6c-.331-.29-.784-.58-.408-1.9s-1.633-3.89-1.633-3.89Z" transform="translate(-573.038 -434.355)" fill="#e3e8f4"/><path d="M962.685,712.417l.408,12.338,2.384,1.318a1.037,1.037,0,0,0,.437-.339c2.922-4.416,1.963-17.2,1.963-17.2l1.114-8.253-.743-4.281-1.792-.192c.694-3.31,1.147-6.53.408-6.873-.669-.31-1.11-1.424-1.4-2.62h0l-1.286,8.726s.106.788.143,1.6a4.487,4.487,0,0,1-.1,1.535,5.119,5.119,0,0,0-.082,2.065,16.687,16.687,0,0,0-1.3,6.081C962.591,709.454,962.685,712.417,962.685,712.417Z" transform="translate(-592.071 -427.619)" opacity="0.1"/><path d="M965.848,685.83s2.082.261,2.739,1.127a3.906,3.906,0,0,0,2.4.992,9.105,9.105,0,0,1,1.939.816c-.041.159.575.408,1.816.743s3.3,1.526,3.3,1.816,3.265,3.506,3.265,3.837a8.189,8.189,0,0,1,.865,3.755c-.127,2.188-.245,4.951.249,5.4s0,2.229,0,2.229a1.225,1.225,0,0,0-.041,1.318c.408.743-.082,3.837-.082,3.837l.041,3.22s-.453,2.041.082,2.1-.082.992-.082.992-.453,1.633.122,2.392.743,3.922.743,3.922l8.828,12.832s.127,2.351-2.682,2.31-2.763.535-2.682,1.073-.784,1.11-.784,1.11-1.114.58-.453,1.282,2.559,2.31-.58,3.384a7.581,7.581,0,0,1-.906-1.633,18.606,18.606,0,0,1-.661-2.224s-.29-3.139-.865-3.551-.482-2.4-.482-2.4.816-1.608-.331-2.269-17.909-9.942-17.909-9.942l-.408-12.338s-.286-9.118,1.445-12.171a5.2,5.2,0,0,1,.082-2.065,10.8,10.8,0,0,0-.041-3.135Z" transform="translate(-592.425 -427.329)" fill="#3f3d56"/><path d="M921.245,697.308s-4.147-.853-5.261-.278-3.3,1.033-3.633,1.363-1.155.082-1.9,2.041-.816,3.922-1.775,4.828-1.441,1.526-1.482,2.188.122.816-.249,1.033-.91,1.069-.743,1.4,8.571,7.591,8.571,7.591a19.343,19.343,0,0,0,.784,3.465c.375.7-.408,10.359-1.224,11.02s5.571.6,5.571.6.29-6.334.539-6.661-.167-7.1-.167-7.1-.041-5.775.494-7.306.478-6.6.478-6.6.473-3.045,1.049-3.755S921.245,697.308,921.245,697.308Z" transform="translate(-558.634 -433.841)" opacity="0.1"/><path d="M920.945,696.966s-4.151-.857-5.265-.278-3.3,1.033-3.628,1.363-1.155.082-1.9,2.02-.816,3.918-1.775,4.828-1.445,1.526-1.486,2.184.127.816-.245,1.033-.91,1.073-.743,1.4S914.5,717.1,914.5,717.1a19.421,19.421,0,0,0,.784,3.465c.375.7-.408,10.355-1.224,11.02s5.547.616,5.547.616.29-6.334.535-6.665-.163-7.1-.163-7.1-.041-5.775.494-7.3.478-6.6.478-6.6.473-3.045,1.049-3.755S920.945,696.966,920.945,696.966Z" transform="translate(-558.456 -433.637)" fill="#3f3d56"/><path d="M941.483,682.415a8.29,8.29,0,0,1,.478,2.784,9.461,9.461,0,0,0,10.861-4.29,23.163,23.163,0,0,1-.408-3.077S939.708,677.175,941.483,682.415Z" transform="translate(-579.432 -422.58)" opacity="0.1"/><path d="M926.37,659.418a9.436,9.436,0,1,0,.2-1.963A9.436,9.436,0,0,0,926.37,659.418Z" transform="translate(-570.588 -406.105)" fill="#ee8e9e"/><path d="M899.525,726.7l-2.249.7a1.176,1.176,0,0,1-.457,1.224,1.384,1.384,0,0,0-.576,1.224s-.249.91-.816,1.114-.951,1.571-.951,1.571l-1.9,2.184s-.7.58-.576.869-.743.371-.743.371l.453,7.347,3.918.743,2.449-.249,1.979-.743,1.731-1.029.788-2.041,3.465-5.281Z" transform="translate(-549.808 -451.518)" fill="#3f3d56"/><path d="M877.933,744.33s-5.032-7.261-8.787-3.343,1.526,10.273,2.763,10.069,7.138-.547,7.138-.547Z" transform="translate(-535.934 -459.288)" fill="#ee8e9e"/><rect width="26.346" height="20.456" rx="1.54" transform="translate(330.994 270.248) rotate(27.04)" fill="#3f3d56"/><rect width="22.146" height="16.689" transform="translate(332.043 272.856) rotate(27.04)" fill="#ff9350"/><circle cx="0.363" cy="0.363" r="0.363" transform="translate(327.147 279.52)" fill="#e6e8ec"/><circle cx="0.6" cy="0.6" r="0.6" transform="translate(348.26 290.222)" fill="#e6e8ec"/><path d="M884.62,750.9c-.041,5.449,11.22,6.6,11.22,6.6l2.857.457,1.29.2.539-5.306s-.592-.086-1.331-.257c-1.09-.257-2.5-.694-2.8-1.31C895.921,750.242,884.661,745.451,884.62,750.9Z" transform="translate(-545.878 -464.327)" fill="#ee8e9e"/><path d="M926.87,657.5a1.1,1.1,0,0,1,.69.31c.322.339.339.935.751,1.143a.816.816,0,0,0,.494.057c1.1-.155,1.73-1.392,2.784-1.735a2.857,2.857,0,0,1,1.849.159,1.368,1.368,0,0,1,.608.408c.355.457.106,1.13.269,1.682.229.767,1.143,1.069,1.935,1.171a3.391,3.391,0,0,1,2.212.751,2.016,2.016,0,0,1,.408,1.6,1.244,1.244,0,0,0,0,.588c.22.62,1.29.526,1.571.041.2-.355.139-.653.62-.751a2.066,2.066,0,0,1,1.012.176,7.379,7.379,0,0,0,2.612.408,9.449,9.449,0,1,0-17.8-5.983Z" transform="translate(-570.884 -406.153)" opacity="0.1"/><path d="M935.478,656.012a1.261,1.261,0,0,1,0-.592,2.012,2.012,0,0,0-.408-1.6,3.351,3.351,0,0,0-2.212-.755c-.792-.1-1.706-.408-1.935-1.171-.163-.551.086-1.224-.269-1.677a1.3,1.3,0,0,0-.608-.408,2.787,2.787,0,0,0-1.849-.159c-1.053.339-1.686,1.579-2.784,1.735a.886.886,0,0,1-.494-.057c-.408-.208-.433-.816-.751-1.147-.5-.531-1.449-.188-2.065-.58a1.91,1.91,0,0,1-.665-1.224,5.987,5.987,0,0,1-.184-2.735c.359-1.535,1.731-2.588,2.608-3.9.816-1.224,1.273-2.767,2.5-3.575a5.012,5.012,0,0,1,4.183-.216,12.233,12.233,0,0,0,1.959.514,21.607,21.607,0,0,0,3.359-.2,7.224,7.224,0,0,1,4.437,1.347,2.478,2.478,0,0,1,.722.735,3.748,3.748,0,0,1,.322,1.31,6.709,6.709,0,0,0,.869,2.416c.347.58.784,1.106,1.1,1.706a2.64,2.64,0,0,1,.294,1.955c-.106.339-.314.645-.408.992a3.7,3.7,0,0,0,.71,2.318,4.413,4.413,0,0,1,.482,2.2,2.772,2.772,0,0,1-.992,1.979,3.538,3.538,0,0,1-2.09.633,7.4,7.4,0,0,1-2.665-.408,2.106,2.106,0,0,0-1.008-.175c-.482.1-.408.408-.625.751C936.767,656.542,935.7,656.628,935.478,656.012Z" transform="translate(-567.512 -398.789)" fill="#3f3d56"/><path d="M938.346,795.042l5.306-4.167,8.379-8.249s-1.126-.057-2.767-.127a1.828,1.828,0,0,0-.584,1.126c-.041,1.008-2.261.069-3.416.649s-6.808,7.812-7.8,7.755-1.775-.5-2.188.2l-.029.045a1.184,1.184,0,0,1-.629.375Z" transform="translate(-575.47 -484.544)" opacity="0.1"/><path d="M917.47,790.594l2.665,8.534.408,1.343,1.273-.351,2.808-.771,12.506-3.432a10.868,10.868,0,0,0,4.49-1.224A13.641,13.641,0,0,1,949.375,793c1.633.155,3.49-.559,5.016-3.375,0,0,3.465-10.232-5.281-13.163s-9.167,1.559-9.167,1.559l-.118.073c-.339.216-1.29.9-1.326,1.722-.041,1.008-2.261.069-3.416.649s-6.808,7.812-7.8,7.755-1.775-.5-2.188.2l-.029.045c-.306.408-1.224.518-1.833.539h-.571l-.078.025-.637.188Z" transform="translate(-565.32 -480.382)" fill="#65617d"/><path d="M919.16,764.119l1.29.2.539-5.306s-.592-.086-1.331-.257C919.854,759.487,919.413,762.356,919.16,764.119Z" transform="translate(-566.32 -470.493)" opacity="0.1"/><path d="M953.185,710.811s3.837-1.114,2.886,9.8a30.4,30.4,0,0,1-8.045,17.783s-8.163,3.588-11.836,3.012-6.355-.7-6.355-.7a9.313,9.313,0,0,0-3.714-.992c-2.041-.082-6.4-1.359-6.477-1.775s1.073-6.477.575-6.938c0,0,5.779.237,6.355.657s1.4.118,2.041,0,2.514-1.771,6.269-.326a3.833,3.833,0,0,0,1.775-.2,1.775,1.775,0,0,1,1.29-.086,3.6,3.6,0,0,0,.9-.453c.122-.163,1.114,0,1.114,0a.437.437,0,0,0,.616-.29,2.727,2.727,0,0,1,.58-.906s1.114-6.273,3.216-8.624a1.334,1.334,0,0,0,.453-1.2C944.643,718.88,948.23,709.472,953.185,710.811Z" transform="translate(-566.604 -442.037)" opacity="0.1"/><path d="M952.935,708.725s3.837-1.114,2.886,9.8a30.4,30.4,0,0,1-8.045,17.783s-8.163,3.588-11.836,3.012-6.355-.7-6.355-.7a9.29,9.29,0,0,0-3.714-.992c-2.041-.082-6.4-1.359-6.477-1.775s1.073-6.477.58-6.938c0,0,5.775.237,6.351.657s1.4.118,2.041,0,2.514-1.771,6.269-.326a3.8,3.8,0,0,0,1.775-.208,1.788,1.788,0,0,1,1.29-.082,3.6,3.6,0,0,0,.9-.453c.122-.163,1.114,0,1.114,0a.437.437,0,0,0,.616-.29,2.724,2.724,0,0,1,.58-.906s1.114-6.273,3.216-8.624a1.343,1.343,0,0,0,.457-1.2C944.393,716.811,947.985,707.4,952.935,708.725Z" transform="translate(-566.456 -440.805)" fill="#3f3d56"/><path d="M928.56,808.928l5.453,6.6.033-.037c.041-.127.576-1.531.453-1.612a7.669,7.669,0,0,0-2.971-3.012,5.6,5.6,0,0,1-2.331-2.122Z" transform="translate(-571.884 -500.074)" opacity="0.1"/><path d="M928.578,826.6l.6.343,2.755-2.224c1.359-1.1,2.71-2.212,2.73-2.273.041-.122.58-1.526.453-1.608-.061-.045-.347-.612-.869-1.277-3.673-1.033-1.339,1.531-1.029,1.633a3.763,3.763,0,0,0-4.743,3.865,5.811,5.811,0,0,0,.106,1.543Z" transform="translate(-571.825 -506.331)" opacity="0.1"/><path d="M933.687,828.673l.784.453,7.963.2a16.126,16.126,0,0,0,2.82,1.359,2.446,2.446,0,0,0,.408.086,17.653,17.653,0,0,0,2.22.041c.608,0,1.082-.041,1.082-.041s-.38-10.04-.661-11.1c-.139-.506-.816-.408-1.461-.143a9.74,9.74,0,0,0-1.428.722,25.132,25.132,0,0,0-3.918.62c-.535.294-2.065-.167-3.012,0s-2.641-1.118-2.641-1.118c-4.62-1.526-2.041,1.322-1.694,1.445a3.763,3.763,0,0,0-4.743,3.865C929.152,829.967,933.687,828.673,933.687,828.673Z" transform="translate(-572.378 -506.331)" fill="#3f3d56"/><path d="M968.108,824.8c.09,2.082,1.71,4.661,2.677,6.024.608,0,1.082-.041,1.082-.041s-.38-10.04-.661-11.1c-.139-.506-.816-.408-1.461-.143A11.926,11.926,0,0,0,968.108,824.8Z" transform="translate(-595.289 -506.339)" fill="#565387"/><path d="M968.108,824.8c.09,2.082,1.71,4.661,2.677,6.024.608,0,1.082-.041,1.082-.041s-.38-10.04-.661-11.1c-.139-.506-.816-.408-1.461-.143A11.926,11.926,0,0,0,968.108,824.8Z" transform="translate(-595.289 -506.339)" opacity="0.1"/><path d="M964.585,825.078c.547,2.008.543,4.257,1.416,5.62a2.437,2.437,0,0,0,.408.086,17.641,17.641,0,0,0,2.22.041c.608,0,1.082-.041,1.082-.041s-.38-10.04-.661-11.1c-.139-.506-.816-.408-1.461-.143a9.74,9.74,0,0,0-1.428.722S963.883,822.507,964.585,825.078Z" transform="translate(-593.126 -506.339)" opacity="0.05"/><path d="M897.47,783.54a16.472,16.472,0,0,1,7.306,5.849Z" transform="translate(-553.483 -485.16)" opacity="0.1"/><g transform="translate(353.666 246.056)" opacity="0.1"><path d="M975.983,662.24l-.025.09a2.711,2.711,0,0,1-.139.343,2.763,2.763,0,0,1,.163-.433Z" transform="translate(-953.521 -659.424)"/><path d="M921.268,656.156a3.83,3.83,0,0,1,.306-.816,1.1,1.1,0,0,1-.057.212,5.9,5.9,0,0,0,.184,2.739,1.894,1.894,0,0,0,.665,1.224c.612.408,1.563.053,2.065.584.318.335.335.935.751,1.143a.849.849,0,0,0,.494.057c1.094-.155,1.731-1.4,2.784-1.735a2.775,2.775,0,0,1,1.845.159,1.4,1.4,0,0,1,.612.408c.351.457.106,1.126.269,1.682.224.763,1.139,1.069,1.93,1.167a3.391,3.391,0,0,1,2.216.755,2.041,2.041,0,0,1,.408,1.6,1.225,1.225,0,0,0,0,.592c.216.62,1.286.526,1.567.037.2-.355.143-.649.624-.747a2,2,0,0,1,1.008.175,7.5,7.5,0,0,0,2.665.408,3.584,3.584,0,0,0,2.094-.637,2.371,2.371,0,0,0,.641-.78,2.625,2.625,0,0,1-.89,1.4,3.547,3.547,0,0,1-2.09.633A7.4,7.4,0,0,1,938.7,666a2.115,2.115,0,0,0-1.012-.175c-.482.1-.408.408-.624.751-.278.49-1.347.58-1.567-.037a1.318,1.318,0,0,1,0-.592,2,2,0,0,0-.408-1.6,3.35,3.35,0,0,0-2.212-.755c-.792-.1-1.706-.408-1.935-1.171-.163-.551.086-1.224-.269-1.677a1.323,1.323,0,0,0-.608-.408,2.788,2.788,0,0,0-1.849-.159c-1.053.339-1.69,1.58-2.784,1.735a.886.886,0,0,1-.494-.057c-.408-.208-.433-.816-.751-1.147-.5-.531-1.449-.188-2.065-.58a1.894,1.894,0,0,1-.665-1.224A5.93,5.93,0,0,1,921.268,656.156Z" transform="translate(-921.185 -655.34)"/></g><path d="M973,735.383c-.759,1.02-1.633,1.963-2.29,3.045a5.779,5.779,0,0,0-1,3.6,9.4,9.4,0,0,0,1.449-2.579,36.318,36.318,0,0,1,2.775-4.175c.175-.265,1.314-1.8.739-1.865C974.192,733.346,973.257,735.036,973,735.383Z" transform="translate(-596.231 -455.487)" opacity="0.1"/><path d="M290.574,380.565H256.808a1.126,1.126,0,1,0,0,2.249h33.766a1.126,1.126,0,1,0,0-2.249Zm0,3.857H256.808a1.126,1.126,0,0,0,0,2.253h33.766a1.126,1.126,0,1,0,0-2.253ZM288.88,358.39H258.506a2.828,2.828,0,0,0-2.824,2.82V375.5a2.828,2.828,0,0,0,2.824,2.82H288.88a2.828,2.828,0,0,0,2.82-2.82V361.21A2.828,2.828,0,0,0,288.88,358.39Zm-26.607,17.367h-2.894a1.126,1.126,0,1,1,0-2.253h2.894a1.126,1.126,0,1,1,0,2.253Zm0-12.542h-2.894a1.126,1.126,0,1,1,0-2.253h2.894a1.126,1.126,0,1,1,0,2.253ZM273.7,374.789a6.436,6.436,0,1,0-.008,0Zm14.314.967h-2.894a1.126,1.126,0,0,1,0-2.253h2.894a1.126,1.126,0,1,1,0,2.253Zm0-12.542h-2.894a1.126,1.126,0,0,1,0-2.253h2.894a1.126,1.126,0,1,1,0,2.253Z" transform="translate(-173.597 -233.532)" fill="#fff"/><circle cx="4.261" cy="4.261" r="4.261" transform="translate(95.835 130.719)" fill="#fff"/><rect width="153.336" height="85.131" transform="translate(164.644 96.43)" fill="#ff9350" opacity="0.2"/><rect width="153.336" height="85.131" transform="translate(164.644 200.605)" fill="#ff9350" opacity="0.2"/><rect width="4.641" height="15.55" transform="translate(194.798 155.709)" fill="#fff"/><rect width="4.641" height="34.802" transform="translate(203.634 136.457)" fill="#fff"/><rect width="4.641" height="52.149" transform="translate(212.475 119.111)" fill="#dfe3ef"/><rect width="4.641" height="64.524" transform="translate(221.315 106.736)" fill="#fff"/><rect width="4.641" height="64.524" transform="translate(212.475 106.736)" fill="#ff9350"/><rect width="4.641" height="35.468" transform="translate(230.151 135.792)" fill="#ff9350"/><rect width="4.641" height="44.635" transform="translate(238.992 126.625)" fill="#ff9350" opacity="0.2"/><rect width="4.641" height="58.557" transform="translate(247.828 112.703)" fill="#ff9350"/><rect width="4.641" height="26.076" transform="translate(256.668 145.183)" fill="#ff9350" opacity="0.2"/><rect width="4.641" height="38.117" transform="translate(265.509 133.143)" fill="#ff9350"/><rect width="4.641" height="52.149" transform="translate(274.345 119.111)" fill="#ff9350" opacity="0.2"/><rect width="4.641" height="52.149" transform="translate(283.186 119.111)" fill="#ff9350"/><path d="M291.769,619.321a2.579,2.579,0,0,0-2.571-2.571h-30.86a2.584,2.584,0,0,0-2.575,2.571v3.861h36.007ZM255.75,639.9a2.583,2.583,0,0,0,2.575,2.575H289.2a2.579,2.579,0,0,0,2.571-2.575V627.056H255.762Zm11.428-3.857h13.187a1.126,1.126,0,1,1,0,2.249H267.178a1.126,1.126,0,0,1,0-2.249Zm-5.787,0h.963a1.126,1.126,0,1,1,0,2.249h-.963a1.126,1.126,0,1,1,0-2.249Z" transform="translate(-173.678 -386.444)" fill="#fff"/><rect width="4.641" height="15.55" transform="translate(194.798 259.88)" fill="#fff"/><rect width="4.641" height="34.802" transform="translate(203.634 240.628)" fill="#fff"/><rect width="4.641" height="52.149" transform="translate(212.475 223.282)" fill="#dfe3ef"/><rect width="4.641" height="64.524" transform="translate(221.315 210.907)" fill="#fff"/><rect width="4.641" height="64.524" transform="translate(212.475 210.907)" fill="#ff9350"/><rect width="4.641" height="35.468" transform="translate(230.151 239.963)" fill="#ff9350"/><rect width="4.641" height="44.635" transform="translate(238.992 230.796)" fill="#fff"/><rect width="4.641" height="58.557" transform="translate(247.828 216.874)" fill="#fff"/><rect width="4.641" height="26.076" transform="translate(256.668 249.354)" fill="#ff9350" opacity="0.2"/><rect width="4.641" height="38.117" transform="translate(265.509 237.314)" fill="#ff9350" opacity="0.2"/><rect width="4.641" height="52.149" transform="translate(274.345 223.282)" fill="#ff9350" opacity="0.2"/><rect width="4.641" height="52.149" transform="translate(283.186 223.282)" fill="#ff9350" opacity="0.2"/></g></svg>