<svg xmlns="http://www.w3.org/2000/svg" xmlns:xlink="http://www.w3.org/1999/xlink" width="383.375" height="277.084" viewBox="0 0 383.375 277.084"><defs><linearGradient id="a" x1="0.5" y1="1" x2="0.5" gradientUnits="objectBoundingBox"><stop offset="0" stop-color="gray" stop-opacity="0.251"/><stop offset="0.54" stop-color="gray" stop-opacity="0.122"/><stop offset="1" stop-color="gray" stop-opacity="0.102"/></linearGradient></defs><g transform="translate(-0.001 -35.922)"><path d="M257.751,102.951c-24.577-.872-47.988-9-70.339-17.894s-44.5-18.749-68.483-23.461c-15.43-3.03-33.076-3.457-45.507,5.015C61.454,74.753,57.59,88.847,55.513,101.9c-1.564,9.839-2.484,20.17,1.8,29.371,2.975,6.389,8.258,11.756,11.912,17.873,12.706,21.29,3.732,47.543-10.049,68.331-6.446,9.751-13.955,19.054-18.939,29.432s-7.291,22.274-2.931,32.863c4.326,10.5,14.626,18.379,25.785,23.923,22.667,11.264,49.379,14.487,75.425,16.313,57.657,4.041,115.623,2.29,173.432.539,21.395-.651,42.881-1.306,63.93-4.7,11.685-1.883,23.75-4.869,32.231-12.082,10.772-9.161,13.442-24.655,6.222-36.133-12.1-19.247-45.572-24.024-54.034-44.693-4.658-11.373.126-24.041,6.894-34.606,14.521-22.627,38.861-42.478,40.143-68.344.882-17.765-10.82-35.556-28.91-43.96-18.966-8.821-45.26-7.7-59.252,6.881C304.768,97.946,279.451,103.724,257.751,102.951Z" transform="translate(-35 -23.69)" fill="#ff9350" opacity="0.1"/><ellipse cx="31.4" cy="4.709" rx="31.4" ry="4.709" transform="translate(198.913 303.588)" fill="#ff9350" opacity="0.1"/><path d="M526.736,759.352l-60.456-.774.18-1.551,2.921-25.578h53.094l3.905,25.578.3,1.937Z" transform="translate(-308.081 -459.55)" fill="#d0d2d5"/><path d="M526.678,808.777H496.51l-30.23-.387.18-1.551h59.92Z" transform="translate(-308.081 -509.362)" opacity="0.1"/><rect width="80.222" height="1.937" transform="translate(148.123 297.865)" fill="#d0d2d5"/><path d="M477.775,292.462a5.045,5.045,0,0,0-5.021-5.072H248.721a5.048,5.048,0,0,0-5.021,5.072v135.8H477.775Z" transform="translate(-172.892 -174.188)" fill="#444053"/><path d="M243.7,698.6v15.905a5.021,5.021,0,0,0,5.021,5.021H472.754a5.018,5.018,0,0,0,5.021-5.021V698.6Z" transform="translate(-172.892 -445.883)" fill="#d0d2d5"/><rect width="215.859" height="122.076" transform="translate(80.498 121.728)" fill="#fff"/><path d="M581.99,722.2a5.236,5.236,0,0,0,4.116-2h0a5.184,5.184,0,0,0,.407-.6l-2.857-.475,3.1.024a5.238,5.238,0,0,0,.1-4.146l-4.163,2.161,3.841-2.823a5.232,5.232,0,1,0-8.648,5.856h0A5.235,5.235,0,0,0,581.99,722.2Z" transform="translate(-392.981 -454.591)" fill="#ff9350"/><path d="M572.51,736.59l24.119,24.221-3.7-24.221Z" transform="translate(-378.269 -462.946)" opacity="0.1"/><rect width="216.093" height="7.132" transform="translate(80.328 121.742)" fill="#444053" opacity="0.1"/><rect width="6.202" height="4.339" rx="0.78" transform="translate(81.567 122.984)" fill="#ff9350"/><rect width="65.108" height="4.339" rx="0.58" transform="translate(155.356 122.984)" fill="#ff9350" opacity="0.3"/><path d="M674.27,319.7h-.159l-.058-.047a1.337,1.337,0,0,0,.309-.845,1.286,1.286,0,1,0-1.279,1.293,1.357,1.357,0,0,0,.841-.309l.058.048V320l.994.994.3-.3Zm-1.187,0a.9.9,0,1,1,.892-.892.885.885,0,0,1-.892.892Z" transform="translate(-455.74 -194.102)" fill="#444053"/><circle cx="2.171" cy="2.171" r="2.171" transform="translate(291.149 122.98)" fill="#ff9350"/><path d="M531.333,413.74H432.4a6.008,6.008,0,0,0-6.205,5.788v54.461a6.008,6.008,0,0,0,6.205,5.788h98.937a6.008,6.008,0,0,0,6.205-5.788V419.528A6.008,6.008,0,0,0,531.333,413.74Z" transform="translate(-293.467 -257.67)" opacity="0.1"/><rect width="103.846" height="66.037" rx="18.67" transform="translate(136.506 152.969)" fill="#454b69"/><rect width="16.509" height="5.601" rx="2.801" transform="translate(147.414 190.113)" fill="#ff9350" opacity="0.3"/><rect width="16.509" height="5.601" rx="2.801" transform="translate(169.525 190.113)" fill="#ff9350" opacity="0.3"/><rect width="14.446" height="4.126" rx="2.063" transform="translate(178.661 201.611)" fill="#ff9350" opacity="0.3"/><rect width="16.509" height="5.601" rx="2.801" transform="translate(191.635 190.113)" fill="#ff9350" opacity="0.3"/><rect width="16.509" height="5.601" rx="2.801" transform="translate(213.746 190.113)" fill="#ff9350" opacity="0.3"/><rect width="11.203" height="11.203" rx="2.95" transform="translate(148.886 176.847)" fill="#ff9350"/><path d="M488.885,490.035H485.35V486.5h3.535Zm-3.393-.146h3.244v-3.243h-3.244Z" transform="translate(-332.555 -305.744)" fill="#454b69"/><rect width="0.146" height="3.98" transform="translate(154.488 176.847)" fill="#454b69"/><rect width="0.146" height="3.834" transform="translate(154.488 184.217)" fill="#454b69"/><rect width="3.98" height="0.146" transform="translate(148.886 182.374)" fill="#454b69"/><rect width="3.834" height="0.146" transform="translate(156.259 182.374)" fill="#454b69"/><path d="M442.759,460.649,441.6,459.5H438.83v-.149h2.833l1.2,1.194Z" transform="translate(-289.944 -279.768)" fill="#454b69"/><path d="M460.508,460.649l-.1-.109,1.347-1.191h2.534v.149h-2.477Z" transform="translate(-304.202 -279.768)" fill="#454b69"/><path d="M441.666,474.353H438.83V474.2H441.6l1.157-1.333.112.1Z" transform="translate(-289.944 -288.701)" fill="#454b69"/><path d="M464.285,474.346h-2.538l-1.347-1.381.105-.105,1.306,1.337h2.473Z" transform="translate(-304.196 -288.694)" fill="#454b69"/><rect width="31.397" height="5.601" rx="2.801" transform="translate(147.339 158.055)" fill="#ff9350"/><path d="M648.954,546.122c-.02-.584-.092-1.167-.163-1.747-.261-2.178-.529-4.356-.953-6.5a6.9,6.9,0,0,0-.339-1.228c-.153-.377-.363-.723-.522-1.1a.19.19,0,0,0,0-.041c.2-.095.39-.19.58-.292a2.91,2.91,0,0,0,.394-.241,1.113,1.113,0,0,0,.309-.339c.339-.6-.041-1.357-.214-2.036h0c-.183-.729-.142-1.6-.679-2.093-1.914-1.7-.964-5.157-1.92-7.586-.17-.424-.363-.841-.509-1.276-.112-.339-.19-.679-.271-1.018q-1.018-4.241-2.144-8.445c-.791-2.9-.706-5.931-1.7-8.767a9.428,9.428,0,0,0-.729-1.7,4.553,4.553,0,0,0-1.316-1.422,12.875,12.875,0,0,0-4.6-2.212,24.988,24.988,0,0,0-5.259-.3,5.571,5.571,0,0,0-2.456-1.917l-.031-.088a6.079,6.079,0,0,1-.319-1.062,7.24,7.24,0,0,1-.085-1.086c0-.39-.017-.784-.027-1.174l.1-.092a6.576,6.576,0,0,0,.624-.767,5.375,5.375,0,0,0,.475-.811,7.52,7.52,0,0,0,.387-.994,11.193,11.193,0,0,0,.417-2.107c.092-.838.119-1.7.142-2.534v-1.082a4.57,4.57,0,0,0-.631-2.47,5.113,5.113,0,0,0-2.68-1.724c-2.036-.706-4.272-1.171-6.283-.414-1.6.6-2.874,1.92-4.451,2.589h0a1.952,1.952,0,0,1,.1.187.2.2,0,0,1,0,.027c.027.061.051.119.071.18h0a2.232,2.232,0,0,1,.112.424h0a2.513,2.513,0,0,1,0,.828,2.83,2.83,0,0,1-1.52.224,4.833,4.833,0,0,0,.957,1.737c.139.176.285.339.424.526l.214.265a5.5,5.5,0,0,1,.879,1.422,2.771,2.771,0,0,1,.166.634c.064.431.047.926.105,1.357a2.064,2.064,0,0,0,.139.539,5.683,5.683,0,0,0,3.013,4.231,12.489,12.489,0,0,1,0,4.051,1.045,1.045,0,0,1-.044.224,19.9,19.9,0,0,1-2.945,3.3,10.717,10.717,0,0,1-1.652,1.065,4.536,4.536,0,0,1-1.089.451c-.427.1-.875.085-1.3.19a3.393,3.393,0,0,0-1.93,1.571,11.351,11.351,0,0,1-.712,1.147c-.238.3-.536.536-.787.818a7.251,7.251,0,0,0-1.357,3.868,17.707,17.707,0,0,1-2.317,2.141,3.393,3.393,0,0,1-.862.5,2.685,2.685,0,0,1-2.375-.59c-.7-.516-1.238-1.194-1.91-1.724l-.176.261a1.422,1.422,0,0,1-.139-.159,3.394,3.394,0,0,1-.56-1.3c-.244-1.252.217-2.592-.142-3.81-.132-.441-.451-.9-.892-.886s-.716.451-1.1.658a2.088,2.088,0,0,1-1.961-.305,2.65,2.65,0,0,0-1.954-.512,1.388,1.388,0,0,0,.505,1.154,3.077,3.077,0,0,1,.821.994,4.488,4.488,0,0,1,.112,1.286,5.094,5.094,0,0,0,1.269,2.616q1.1,1.408,2.3,2.735h0a.848.848,0,0,1-.427.37.9.9,0,0,0,0,.492,2,2,0,0,0,.129.322c.078.159.173.315.255.461l1.191,2.093.193.339c.081.142.163.278.248.417a7.683,7.683,0,0,0,.994,1.357,4.072,4.072,0,0,0,.624.536,3.235,3.235,0,0,0,.465.278,2.715,2.715,0,0,0,.719.248,2.252,2.252,0,0,0,.373.047,2.493,2.493,0,0,0,.39,0,5.2,5.2,0,0,0,1.143-.3,57.176,57.176,0,0,0,6.511-3.152,3.624,3.624,0,0,1,.947-.366,1.55,1.55,0,0,1,.339-.027,1.245,1.245,0,0,1,.339.058,1.224,1.224,0,0,1,.305.153.879.879,0,0,1,.37.55c.064.339.125.655.187.98s.129.651.2.977c.136.648.282,1.3.451,1.937.092.339.18.7.268,1.052.217.862.431,1.73.628,2.6.061.271.119.546.173.818a12.547,12.547,0,0,1,.217,1.462.132.132,0,0,1,0,.034c.034.427.037.852.041,1.279v1.34l.034,3.956a3.258,3.258,0,0,1-.546,1.439c-.047.105-.092.214-.129.322h0a3.661,3.661,0,0,0-.112.421.963.963,0,0,1-.027.136.659.659,0,0,1-.02.156c-.02.051,0,.1-.017.149a.441.441,0,0,0,0,.149v.6c0,.041.024.132.034.2l.02.1c.024.1.048.2.081.3.068.2.153.4.241.6s.176.4.251.6a4.063,4.063,0,0,1,.122.394.87.87,0,0,1,.02.092c.027.105.051.21.071.319v.075c.02.115.037.234.051.339a.168.168,0,0,1,0,.041c0,.132.027.265.034.4h0a13.071,13.071,0,0,1,0,1.459L614.9,545.4v.075h0a.424.424,0,0,0,.048.217.265.265,0,0,0,.227.122.862.862,0,0,0,.472-.183l1.079-.784h.068a10.528,10.528,0,0,0-1.666,4.57,14.592,14.592,0,0,0,.207,3.233c.994,7.125,3.335,14.314,2.843,21.507-.193,2.833.981,5.595.974,8.431,0,1.1-.187,2.2-.234,3.294-.207,4.723,2.2,9.5,1.221,14.114.339,1.147,1.625,1.757,1.988,2.9a4.641,4.641,0,0,1-.492,2.942,5.985,5.985,0,0,0-.3,1.018,8.221,8.221,0,0,0-2.741.3,4.075,4.075,0,0,0-.533.217,1.472,1.472,0,0,0-.265,1.958,16.021,16.021,0,0,0,3.169,2.833l1.381.679a8.284,8.284,0,0,0,2.375.9,8.123,8.123,0,0,0,2.107-.041,2.076,2.076,0,0,0,1.486-.587c.492-.624.241-1.639-.1-2.541a.906.906,0,0,0,.278-.377,3.013,3.013,0,0,0,.092-.723,5.431,5.431,0,0,1,.482-1.357,11.008,11.008,0,0,0,.509-4.438,51.49,51.49,0,0,0-.5-7.3c-.17-1.018-.4-2.036-.6-3.053a50.53,50.53,0,0,1-.926-11.2,8.962,8.962,0,0,0-.377-2.694,4.836,4.836,0,0,1-.088-1.537l.407-6.212a24.931,24.931,0,0,0,.058-3.8c-.058-.679-.17-1.357-.237-2.036a30.969,30.969,0,0,1-.064-3.888,7.171,7.171,0,0,1,.9-4.01.624.624,0,0,1,.38-.3c.163-.024.21.2.149.339.085.258.173.512.261.77.027.075.051.146.078.217.044.132.092.265.139.4s.068.183.1.275l.132.339c.037.1.078.2.115.3s.085.214.129.319.088.21.136.316.081.193.126.292l.163.339c.041.085.081.173.126.258s.132.248.2.37c.037.071.075.143.115.21.109.19.221.373.339.556h0c.231.339.478.679.679,1.042a3.445,3.445,0,0,1,.19.37,9.129,9.129,0,0,1,.444,1.445c.119.448.258.885.411,1.316s.339.862.505,1.282c.092.21.187.421.282.628.285.628.594,1.245.906,1.856a1.728,1.728,0,0,1,.129.339,1.578,1.578,0,0,1,.037.173,1.549,1.549,0,0,1,0,.339,1.426,1.426,0,0,1-.027.21,1.59,1.59,0,0,1-.092.305,4.561,4.561,0,0,0,.1,2.83,17.892,17.892,0,0,1,.231,2.986c0,.339,0,.679.031.994,0,.414,0,.824.024,1.238s0,.889.024,1.333a11.62,11.62,0,0,1-.054,1.333,3.022,3.022,0,0,1-.064.461c-.075.458-.18.913-.271,1.357a27,27,0,0,0-.468,5.428q0,1.1.071,2.2c.041.736.1,1.469.163,2.205.034.4.075.807.115,1.211.068.7.143,1.4.217,2.1s.156,1.469.227,2.2.136,1.459.187,2.185a1.829,1.829,0,0,1-.217,1.038,2.33,2.33,0,0,0-.17.394,2.114,2.114,0,0,0-.075.288,3.048,3.048,0,0,0-.041.339,3.87,3.87,0,0,0,.041.712q.027.177.061.339c.051.234.112.468.173.7a7.036,7.036,0,0,0,.679,1.832,2.71,2.71,0,0,0,.224.339c.024.034.051.064.078.1a2.424,2.424,0,0,1,.193.258.819.819,0,0,1,.071.132,1.041,1.041,0,0,1,.041.587c-.037.2-.109.407-.163.6h0l.176.024a2.331,2.331,0,0,0,.054,2.114,2.058,2.058,0,0,0,1.486.587,7.975,7.975,0,0,0,2.107.044,8.285,8.285,0,0,0,2.375-.9l1.381-.679a15.505,15.505,0,0,0,3.165-2.836,1.471,1.471,0,0,0-.261-1.954,3.833,3.833,0,0,0-.533-.221,7.8,7.8,0,0,0-2.521-.292c-.047-.339-.075-.709-.088-1.059a29.252,29.252,0,0,1,.075-3.895c.078-.919.2-1.835.187-2.755a34.226,34.226,0,0,0-.387-3.664c-.132-1.221-.146-2.416-.166-3.623a36.007,36.007,0,0,1,.719-5.228l.4-3.091a3.758,3.758,0,0,0,.027-1.137c-.061-.339-.217-.679-.282-1.018a7.466,7.466,0,0,1,.319-2.311,9.767,9.767,0,0,0-.193-2.694,35.041,35.041,0,0,1-.234-4.261c-.122-8.753-.37-17.7-3.328-25.894-.119-.339-.248-.679-.38-.994a1.778,1.778,0,0,0,.176-.058,1.192,1.192,0,0,0,.261-.136.714.714,0,0,0,.1-.075.784.784,0,0,0,.2-.339,1.28,1.28,0,0,0,.061-.383,2.731,2.731,0,0,0-.1-.679l-.041-.139c-.068-.231-.142-.458-.221-.679h0c-.075-.221-.156-.434-.241-.651a7.929,7.929,0,0,1-.427-1.245c-.207-.964,0-2.076-.58-2.86-1.283-1.757-.377-4.458-.913-6.6-.176-.679-.434-1.357-.6-2.036-.1-.434-.166-.879-.231-1.323a16.481,16.481,0,0,1-.251-2.911,12.439,12.439,0,0,1,.132-1.462l.407-3.366a10.043,10.043,0,0,1,.964,2.768c.031.139.058.275.088.414a48.975,48.975,0,0,0,1.357,4.913c.309.974.614,1.944.947,2.908.1.275.193.553.282.835a6.721,6.721,0,0,1,.2.858c.037.231.054.468.071.7s.031.475.054.709a6.677,6.677,0,0,0,.984,2.819c.017.022.033.044.048.068a.8.8,0,0,0,.414.36h0a.91.91,0,0,0,.37,0h.02c.18-.037.36-.078.536-.122a.688.688,0,0,0,.078-.02c.081,1.052.394,2.1.421,3.162a17.966,17.966,0,0,1-.892,4.519,28.8,28.8,0,0,0-.607,4.146,1.835,1.835,0,0,0,.051.828.587.587,0,0,0,.617.417.747.747,0,0,0,.438-.39,3.1,3.1,0,0,0,.377-2.236c.322.068.489.438.567.774a4.648,4.648,0,0,1-.143,2.626c-.2.563-.509,1.082-.679,1.662a.868.868,0,0,0,0,.556c.17.39.706.363,1.092.221a5.493,5.493,0,0,0,2.88-2.714A8.319,8.319,0,0,0,648.954,546.122Z" transform="translate(-403.387 -300.839)" fill="url(#a)"/><path d="M678.635,861.931a2.217,2.217,0,0,1-1.547.584,8.822,8.822,0,0,1-2.2.041,8.956,8.956,0,0,1-2.467-.889l-1.439-.679a16.064,16.064,0,0,1-3.294-2.823,1.413,1.413,0,0,1,.271-1.944,4.419,4.419,0,0,1,.556-.217c1.058-.421,3.2-.207,4.329-.37a3,3,0,0,1,1.6.377c1.113.492,3.074.882,3.559,2.134C678.388,859.108,679.419,860.977,678.635,861.931Z" transform="translate(-452.862 -549.636)" fill="#2f2e41"/><path d="M723.427,859.183a2.217,2.217,0,0,0,1.547.583,6.622,6.622,0,0,0,4.658-.852l1.439-.679a16,16,0,0,0,3.3-2.823,1.409,1.409,0,0,0-.275-1.944,3.743,3.743,0,0,0-.553-.217c-1.059-.421-3.2-.207-4.329-.37a2.99,2.99,0,0,0-1.6.377c-1.109.492-3.054.882-3.556,2.134C723.665,856.361,722.63,858.23,723.427,859.183Z" transform="translate(-489.664 -547.819)" fill="#2f2e41"/><path d="M685.166,665.841a17.131,17.131,0,0,1,.906,2.063c3.081,8.143,3.339,17.052,3.467,25.761a32.723,32.723,0,0,0,.241,4.238,9.08,9.08,0,0,1,.2,2.684,7.387,7.387,0,0,0-.339,2.294c.064.339.227.679.292,1.018a3.515,3.515,0,0,1-.031,1.13l-.411,3.074a34.435,34.435,0,0,0-.75,5.2c.02,1.2.041,2.409.173,3.607a35.738,35.738,0,0,1,.4,3.644c0,.916-.115,1.829-.2,2.741a28.4,28.4,0,0,0-.078,3.875,6,6,0,0,0,.679,2.874,5.368,5.368,0,0,1-2.124,2.036c-1.924.841-4.132.556-6.212.254a1.75,1.75,0,0,0,.126-1.184,2.232,2.232,0,0,0-.356-.485,5.768,5.768,0,0,1-.926-2.151,3.575,3.575,0,0,1,0-2.786,1.765,1.765,0,0,0,.227-1.018c-.431-5.768-1.717-11.753-.533-17.422a18.512,18.512,0,0,0,.339-1.822,22.334,22.334,0,0,0,.034-2.653l.014-1.266a24.942,24.942,0,0,0-.271-3.959,4.377,4.377,0,0,1-.105-2.816,1.544,1.544,0,0,0-.064-1.357,25.105,25.105,0,0,1-2.192-5.059,8.769,8.769,0,0,0-.461-1.439,10.2,10.2,0,0,0-.909-1.4,21.208,21.208,0,0,1-2.253-4.94c.064-.159,0-.377-.153-.339a.638.638,0,0,0-.4.3,6.874,6.874,0,0,0-.936,3.99,29.425,29.425,0,0,0,.068,3.868c.068.679.187,1.357.248,2.036a23.84,23.84,0,0,1-.061,3.78l-.417,6.154a4.44,4.44,0,0,0,.088,1.53,8.561,8.561,0,0,1,.394,2.677,48.136,48.136,0,0,0,.977,11.122c.2,1.018.444,2.015.621,3.03a49.568,49.568,0,0,1,.523,7.267,10.4,10.4,0,0,1-.529,4.411,5.055,5.055,0,0,0-.5,1.357,2.806,2.806,0,0,1-.095.719,1.467,1.467,0,0,1-1.157.736,9.418,9.418,0,0,1-2.67.19,1.5,1.5,0,0,1-.607-.136c-.339-.173-.509-.539-.763-.814-.546-.6-1.456-.78-1.954-1.418a3.023,3.023,0,0,1,0-2.9,4.483,4.483,0,0,0,.509-2.928c-.377-1.13-1.7-1.74-2.07-2.88,1.018-4.594-1.486-9.344-1.272-14.043.051-1.1.241-2.182.244-3.277,0-2.823-1.211-5.571-1.018-8.387.512-7.155-1.927-14.3-2.958-21.4a13.825,13.825,0,0,1-.217-3.213,10.683,10.683,0,0,1,1.968-4.913,6.651,6.651,0,0,1,2.745-2.6,7.792,7.792,0,0,1,3.108-.4c2.626.02,5.252.041,7.878.088a25.908,25.908,0,0,1,5.327.475C682.394,664.972,683.724,665.634,685.166,665.841Z" transform="translate(-447.904 -423.078)" fill="#2f2e41"/><g transform="translate(226.225 257.136)" opacity="0.1"><path d="M701.984,711.922a.648.648,0,0,1,.4-.3c.17-.024.221.193.156.339a21.032,21.032,0,0,0,2.249,4.94,9.916,9.916,0,0,1,.913,1.4,9.118,9.118,0,0,1,.461,1.439,25.275,25.275,0,0,0,2.188,5.059,1.534,1.534,0,0,1,.064,1.357,4.355,4.355,0,0,0,.109,2.816,26.2,26.2,0,0,1,.271,3.959c0,.411,0,.821.024,1.232a21.631,21.631,0,0,1-.031,2.653c-.071.614-.221,1.218-.339,1.822-1.181,5.669.1,11.644.533,17.422a1.761,1.761,0,0,1-.224,1.018,3.46,3.46,0,0,0,0,2.786,5.673,5.673,0,0,0,.926,2.151,2.478,2.478,0,0,1,.339.485,1.675,1.675,0,0,1-.129,1.184,26.18,26.18,0,0,0,2.775.3,20.088,20.088,0,0,1-3.6-.3,1.749,1.749,0,0,0,.126-1.184,2.231,2.231,0,0,0-.356-.485,5.768,5.768,0,0,1-.926-2.151,3.575,3.575,0,0,1,0-2.786,1.764,1.764,0,0,0,.227-1.018c-.431-5.768-1.717-11.753-.533-17.422a18.5,18.5,0,0,0,.339-1.822,22.32,22.32,0,0,0,.034-2.653c0-.411-.017-.821-.027-1.232a24.949,24.949,0,0,0-.271-3.959,4.377,4.377,0,0,1-.105-2.816,1.544,1.544,0,0,0-.064-1.357,25.108,25.108,0,0,1-2.192-5.059,9.112,9.112,0,0,0-.461-1.439,10.2,10.2,0,0,0-.909-1.4,19.691,19.691,0,0,1-2.168-4.706A3.437,3.437,0,0,0,701.984,711.922Z" transform="translate(-701.78 -711.625)"/></g><path d="M596.99,563.593c-.255-1.245.227-2.578-.149-3.79-.136-.438-.468-.892-.926-.882s-.746.448-1.14.655a2.244,2.244,0,0,1-2.036-.3,2.874,2.874,0,0,0-2.036-.512,1.347,1.347,0,0,0,.529,1.147,3.158,3.158,0,0,1,.852.991,4.327,4.327,0,0,1,.119,1.279,4.791,4.791,0,0,0,1.32,2.6,46.557,46.557,0,0,0,3.2,3.545,13.215,13.215,0,0,0,1.673-2.487c-.024-.37-.6-.679-.814-.957A3.245,3.245,0,0,1,596.99,563.593Z" transform="translate(-402.155 -353.452)" fill="#a1616a"/><path d="M749.992,645.945a6.6,6.6,0,0,1,.339,1.221c.441,2.137.719,4.305.994,6.47.071.577.146,1.157.166,1.737a7.929,7.929,0,0,1-.824,4,5.6,5.6,0,0,1-3,2.714c-.4.143-.96.17-1.137-.217a.834.834,0,0,1,0-.553c.159-.577.482-1.1.679-1.656a4.461,4.461,0,0,0,.149-2.612c-.081-.339-.254-.7-.59-.77a2.969,2.969,0,0,1-.394,2.226.77.77,0,0,1-.455.387.614.614,0,0,1-.645-.414,1.775,1.775,0,0,1-.051-.824,27.73,27.73,0,0,1,.631-4.126,17,17,0,0,0,.926-4.5c-.034-1.391-.587-2.758-.431-4.139a.339.339,0,0,1,.251-.339,9.17,9.17,0,0,1,1.2-.4c.241-.061,1.062-.339,1.293-.217s.244.723.339.933C749.615,645.223,749.836,645.569,749.992,645.945Z" transform="translate(-504.245 -409.748)" fill="#a1616a"/><circle cx="5.683" cy="5.683" r="5.683" transform="translate(212.606 183.609)" fill="#a1616a"/><path d="M674.635,518.29a6.4,6.4,0,0,0,.085,1.082,5.768,5.768,0,0,0,.339,1.055,6.155,6.155,0,0,0,.794,1.561,2.324,2.324,0,0,0,1.439.936A40.871,40.871,0,0,1,665,526.477a5.184,5.184,0,0,0,1.629-1.74,4.916,4.916,0,0,0,.431-1.415,11.875,11.875,0,0,0-.533-6.131c-.071-.19-.139-.428,0-.587a.58.58,0,0,1,.2-.129,12.625,12.625,0,0,1,5.34-1c.468,0,.936.024,1.4.058.251.02.8-.034,1.018.149s.119.9.126,1.2Z" transform="translate(-451.254 -324.886)" fill="#a1616a"/><path d="M637.754,531.444a6.087,6.087,0,0,0-7.274-1.812c-2.714,1.293-4.037,4.411-6.416,6.216a11.2,11.2,0,0,1-1.724,1.062,4.813,4.813,0,0,1-1.133.448c-.444.1-.906.085-1.357.19a3.485,3.485,0,0,0-2.012,1.561,10.556,10.556,0,0,1-.74,1.14c-.248.3-.556.536-.818.818a7.073,7.073,0,0,0-1.418,3.847,18.215,18.215,0,0,1-2.416,2.127,3.393,3.393,0,0,1-.9.5,2.842,2.842,0,0,1-2.46-.584c-.709-.512-1.286-1.187-1.985-1.7-.641.916-1.313,1.839-2,2.714a.858.858,0,0,1-.448.366c-.129.434.18.882.411,1.269l1.238,2.083a10.565,10.565,0,0,0,1.5,2.1,3.512,3.512,0,0,0,2.277,1.069,4.5,4.5,0,0,0,1.6-.309,60.454,60.454,0,0,0,6.786-3.138,3.017,3.017,0,0,1,1.33-.39,1.076,1.076,0,0,1,1.052.757c.258,1.3.512,2.6.865,3.875q.506,1.812.933,3.634a15.683,15.683,0,0,1,.407,2.27c.037.434.041.869.047,1.306l.048,5.266a3.141,3.141,0,0,1-.57,1.432,3.393,3.393,0,0,0-.159,2.531c.139.411.36.791.516,1.2a8.248,8.248,0,0,1,.339,3.108l-.044,2.4a.5.5,0,0,0,.051.292c.146.227.5.1.723-.061l1.109-.76a25.659,25.659,0,0,0,4.54.221c4.312-.061,8.628.109,12.93.411a10.6,10.6,0,0,0,4.278-.268c.679-.244,1.323-.634,2.036-.828a1.86,1.86,0,0,0,.8-.339c.394-.363.288-1.018.129-1.513-.142-.448-.3-.892-.482-1.327a8.051,8.051,0,0,1-.448-1.238c-.214-.957,0-2.066-.6-2.847-1.337-1.747-.39-4.438-.953-6.565-.18-.679-.448-1.357-.617-2.036-.109-.434-.176-.875-.241-1.316a15.415,15.415,0,0,1-.261-2.9,11.613,11.613,0,0,1,.139-1.452l.424-3.352a10.67,10.67,0,0,1,1.092,3.169,46.528,46.528,0,0,0,1.425,4.889c.319.967.638,1.93.984,2.891a9.419,9.419,0,0,1,.505,1.7c.075.465.078.94.132,1.4a6.409,6.409,0,0,0,1.018,2.806.923.923,0,0,0,.482.427.966.966,0,0,0,.417,0,16.6,16.6,0,0,0,4.316-1.493,1.761,1.761,0,0,0,.729-.57c.366-.6-.044-1.34-.224-2.019s-.146-1.6-.716-2.083c-1.992-1.7-1.018-5.133-2-7.549-.176-.424-.38-.835-.529-1.269-.115-.339-.2-.679-.285-1.018q-1.042-4.217-2.232-8.4c-.821-2.891-.733-5.9-1.768-8.723a9.206,9.206,0,0,0-.757-1.7,4.632,4.632,0,0,0-1.357-1.415,13.578,13.578,0,0,0-4.784-2.2A26.487,26.487,0,0,0,637.754,531.444Z" transform="translate(-411.366 -333.894)" fill="#3f3d56"/><path d="M656.563,492.877c-.763-.411-.563-1.53-.679-2.375-.268-1.768-2.26-2.813-2.714-4.536a3.054,3.054,0,0,0,1.581-.224,2.423,2.423,0,0,0-.319-1.656c1.639-.679,2.969-1.971,4.631-2.572,2.1-.757,4.411-.292,6.541.411a5.2,5.2,0,0,1,2.789,1.713,5.852,5.852,0,0,1,.651,3.535,13.39,13.39,0,0,1-.987,5.608c-1.082,2.182-4.153,4.2-6.691,3.61-1.052-.244-1.357-.909-1.808-1.825-.278-.57-.38-1.232-1.018-1.53S657.184,493.209,656.563,492.877Z" transform="translate(-443.438 -302.193)" fill="#3f3d56"/><g transform="translate(193.261 213.805)" opacity="0.1"><path d="M659.436,666.7a.128.128,0,0,0,0,.031c.146.227.5.1.723-.061l1.126-.777a25.658,25.658,0,0,0,4.54.217c4.312-.061,8.628.109,12.93.411a10.594,10.594,0,0,0,4.278-.268c.679-.244,1.323-.631,2.036-.828a2.343,2.343,0,0,0,.7-.251c.081.224.159.448.231.679.159.512.265,1.15-.129,1.513a1.859,1.859,0,0,1-.8.339c-.706.193-1.357.584-2.036.828a10.594,10.594,0,0,1-4.278.268c-4.3-.3-8.618-.472-12.93-.411a25.663,25.663,0,0,1-4.533-.221l-1.126.78c-.224.156-.577.288-.723.061a.5.5,0,0,1-.051-.292Q659.416,667.708,659.436,666.7Z" transform="translate(-640.807 -637.6)"/><path d="M728.878,598.012a10.669,10.669,0,0,0-1.092-3.169l-.424,3.352c-.027.21-.054.421-.078.631a10.406,10.406,0,0,1-.061-1.452,11.614,11.614,0,0,1,.139-1.452l.424-3.352a10.671,10.671,0,0,1,1.092,3.169,46.538,46.538,0,0,0,1.425,4.889c.319.967.638,1.934.984,2.891a9.5,9.5,0,0,1,.505,1.7c.075.465.078.94.132,1.4a6.359,6.359,0,0,0,1.018,2.806.9.9,0,0,0,.478.427.967.967,0,0,0,.417-.017,16.6,16.6,0,0,0,4.316-1.493,2.709,2.709,0,0,0,.505-.322h0c.18.679.59,1.422.224,2.019a1.761,1.761,0,0,1-.729.57,16.606,16.606,0,0,1-4.316,1.493.967.967,0,0,1-.417,0,.9.9,0,0,1-.478-.427,6.371,6.371,0,0,1-1.018-2.806c-.054-.465-.058-.94-.132-1.4a9.419,9.419,0,0,0-.506-1.7c-.339-.96-.679-1.924-.984-2.891A46.534,46.534,0,0,1,728.878,598.012Z" transform="translate(-685.623 -589.632)"/><path d="M731.08,635.84v.455C731.087,636.142,731.083,635.993,731.08,635.84Z" transform="translate(-688.175 -618.221)"/><path d="M657.212,650.453a8.248,8.248,0,0,1,.339,3.108v.821a5.6,5.6,0,0,0-.339-1.656c-.156-.407-.377-.787-.516-1.2a3.393,3.393,0,0,1,.027-2.209C656.862,649.707,657.063,650.07,657.212,650.453Z" transform="translate(-638.915 -627.128)"/><path d="M605.109,584.161l.193-.251,1.018,1.7a10.465,10.465,0,0,0,1.5,2.1,3.511,3.511,0,0,0,2.27,1.1,4.574,4.574,0,0,0,1.6-.305,61.1,61.1,0,0,0,6.786-3.142,3.015,3.015,0,0,1,1.31-.4,1.079,1.079,0,0,1,1.052.76c.258,1.3.512,2.6.865,3.871q.506,1.812.933,3.634a15.683,15.683,0,0,1,.407,2.27c.037.434.041.872.044,1.306l.051,5.269a1.267,1.267,0,0,1-.02.231l-.031-3.227a12.885,12.885,0,0,0-.044-1.306,15.683,15.683,0,0,0-.407-2.27q-.434-1.822-.933-3.634c-.339-1.276-.607-2.572-.865-3.875a1.076,1.076,0,0,0-1.052-.757,3.018,3.018,0,0,0-1.33.39,59.629,59.629,0,0,1-6.786,3.138,4.5,4.5,0,0,1-1.6.309,3.511,3.511,0,0,1-2.27-1.1,10.563,10.563,0,0,1-1.5-2.1c-.41-.7-.824-1.388-1.238-2.083-.231-.387-.539-.835-.411-1.269A.858.858,0,0,0,605.109,584.161Z" transform="translate(-604.62 -583.91)"/></g><g transform="translate(209.719 181.76)" opacity="0.1"><path d="M657.142,490.413h0a2.374,2.374,0,0,0-.312-.831q.142-.058.285-.122A2.374,2.374,0,0,1,657.142,490.413Z" transform="translate(-655.575 -489.46)"/><path d="M655.844,499.068c.129.858-.071,1.975.679,2.375.617.339,1.357-.139,1.964.153s.726.96,1.018,1.53c.444.916.757,1.578,1.808,1.825,2.538.59,5.608-1.432,6.691-3.613a13.389,13.389,0,0,0,.987-5.608v.828a13.39,13.39,0,0,1-.987,5.608c-1.082,2.182-4.153,4.2-6.691,3.61-1.052-.244-1.357-.909-1.808-1.825-.278-.57-.38-1.232-1.018-1.53s-1.357.183-1.964-.149c-.763-.411-.563-1.53-.679-2.375-.268-1.768-2.26-2.813-2.714-4.536a2.676,2.676,0,0,0,.37.024C654.229,496.643,655.624,497.613,655.844,499.068Z" transform="translate(-653.13 -493.358)"/></g><path d="M245.129,785.661a10.277,10.277,0,0,0-2.982-1.055,13.828,13.828,0,0,0,2.232-.5c1.937-.614,2.914-1.435,2.182-1.839s-2.9-.234-4.838.38a7.562,7.562,0,0,0-1.859.824,3.724,3.724,0,0,0-1.595-1.384c-1.72-.947-4.034-1.422-5.167-1.065s-.655,1.415,1.069,2.375a10.427,10.427,0,0,0,2.674.994,15.546,15.546,0,0,0-1.839.339c-2.107.505-3.328,1.272-2.714,1.7s2.806.383,4.916-.122a9.348,9.348,0,0,0,2.212-.784,3.526,3.526,0,0,0,1.622,1.452c1.72.943,4.034,1.422,5.167,1.065S246.849,786.6,245.129,785.661Z" transform="translate(-165.249 -500.261)" fill="#ff9350"/><path d="M180.111,693a6.394,6.394,0,0,0-1.873-.658,8.394,8.394,0,0,0,1.4-.315c1.211-.383,1.825-.9,1.357-1.15a5.261,5.261,0,0,0-3.026.237,4.689,4.689,0,0,0-1.16.516,2.342,2.342,0,0,0-1.018-.865,5.154,5.154,0,0,0-3.233-.678c-.709.214-.407.885.679,1.479a6.594,6.594,0,0,0,1.7.621,10.492,10.492,0,0,0-1.157.2c-1.32.316-2.083.8-1.7,1.069a5.406,5.406,0,0,0,3.074-.075,5.837,5.837,0,0,0,1.384-.489,2.208,2.208,0,0,0,1.018.906,5.167,5.167,0,0,0,3.237.679C181.506,694.266,181.19,693.594,180.111,693Z" transform="translate(-125.507 -440.212)" fill="#ff9350"/><ellipse cx="10.955" cy="2.107" rx="10.955" ry="2.107" transform="translate(250.789 298.547)" fill="#ff9350"/><ellipse cx="1.276" cy="1.669" rx="1.276" ry="1.669" transform="translate(260.285 298.089)" fill="#3f3d56"/><ellipse cx="1.276" cy="1.669" rx="1.276" ry="1.669" transform="translate(260.285 296.05)" fill="#3f3d56"/><ellipse cx="1.276" cy="1.669" rx="1.276" ry="1.669" transform="translate(260.285 294.007)" fill="#3f3d56"/><ellipse cx="1.276" cy="1.669" rx="1.276" ry="1.669" transform="translate(260.285 291.968)" fill="#3f3d56"/><ellipse cx="1.276" cy="1.669" rx="1.276" ry="1.669" transform="translate(260.285 289.926)" fill="#3f3d56"/><ellipse cx="1.276" cy="1.669" rx="1.276" ry="1.669" transform="translate(260.285 287.887)" fill="#3f3d56"/><ellipse cx="1.276" cy="1.669" rx="1.276" ry="1.669" transform="translate(260.285 285.844)" fill="#3f3d56"/><path d="M798.751,740.774a6.183,6.183,0,0,0,.475-.7l-3.352-.55,3.624.027a6.128,6.128,0,0,0,.119-4.842l-4.865,2.524,4.485-3.3a6.107,6.107,0,1,0-10.087,6.836,6.228,6.228,0,0,0-.7,1.116l4.353,2.26-4.641-1.557a6.158,6.158,0,0,0-.322,1.961,6.066,6.066,0,0,0,1.31,3.776,6.107,6.107,0,1,0,9.6,0A6.107,6.107,0,0,0,798.751,740.774Z" transform="translate(-532.417 -467.226)" fill="#ff9350"/><path d="M787.84,770.955a24.254,24.254,0,0,1,1.969,12.036,6.107,6.107,0,0,0,8.945-8.259C799.572,773.693,787.84,770.27,787.84,770.955Z" transform="translate(-532.417 -493.63)" opacity="0.1"/></g></svg>