<svg xmlns="http://www.w3.org/2000/svg" xmlns:xlink="http://www.w3.org/1999/xlink" width="414.375" height="303.996" viewBox="0 0 414.375 303.996"><defs><linearGradient id="a" x1="0.5" y1="1" x2="0.5" gradientUnits="objectBoundingBox"><stop offset="0" stop-color="gray" stop-opacity="0.251"/><stop offset="0.54" stop-color="gray" stop-opacity="0.122"/><stop offset="1" stop-color="gray" stop-opacity="0.102"/></linearGradient><linearGradient id="b" x1="9.926" x2="9.926" y2="0" xlink:href="#a"/></defs><path d="M195.73,303.637c-5.45,1.646-10.551,5.633-11.912,11.163-1.557,6.356,2.034,12.763,2.553,19.289,1.676,21.382-28.743,36.469-24.4,57.472,1.723,8.351,8.687,14.495,15.55,19.57,10.993,8.1,23.191,15.265,36.7,17.286,20.5,3.072,41.923-5.956,61.85-.251,16.073,4.6,28.372,18.094,44.335,23.071,12.15,3.791,25.241,2.3,37.864.762,6.807-.825,13.937-1.778,19.43-5.863,10.211-7.6,10.853-22.616,17.69-33.376,10.559-16.592,33.712-19.851,53.124-16.626s38.264,11.164,57.932,10.517c4.2-.14,8.509-.71,12.176-2.774,4.459-2.506,7.471-6.922,10.134-11.291A182.7,182.7,0,0,0,555.241,301.8c.115-5.509-.081-11.257-2.672-16.12-3.276-6.152-9.823-9.832-16.341-12.308-15.652-5.956-32.942-6.93-48.279-13.648-14.792-6.479-26.773-17.843-39.655-27.581a211.225,211.225,0,0,0-87-38.745c-7.4-1.429-15.077-2.451-22.429-.8-8.47,1.9-15.771,7.181-22.335,12.865-17.464,15.12-31.461,33.775-47.555,50.346a270.743,270.743,0,0,1-36.128,31.155c-5.956,4.293-12.287,9.389-18.923,12.563C207.85,302.433,202.154,301.7,195.73,303.637Z" transform="translate(-140.891 -149.629)" fill="#ff9350" opacity="0.2"/><path d="M390.872,138.88s-16.443,21.838-4.68,47.292-20.5,66.351-20.5,66.351" transform="translate(-258.186 -119.251)" fill="none" stroke="#535461" stroke-miterlimit="10" stroke-width="2"/><path d="M427.851,104.2c-1.306,5.62-7.556,8.968-7.556,8.968s-4.127-5.765-2.821-11.385,4.68-9.636,7.556-8.968S429.157,98.577,427.851,104.2Z" transform="translate(-287.793 -92.74)" fill="#8ed16f"/><ellipse cx="3.28" cy="1.23" rx="3.28" ry="1.23" transform="translate(132.722 13.114) rotate(-76.9)" fill="#8ed16f"/><ellipse cx="3.28" cy="1.23" rx="3.28" ry="1.23" transform="translate(132.722 13.114) rotate(-76.9)" opacity="0.3"/><path d="M419.816,163.313c-5.429,1.957-11.636-1.472-11.636-1.472s2.6-6.6,8.028-8.551,10.636-1.276,11.636,1.472S425.244,161.356,419.816,163.313Z" transform="translate(-282.599 -126.888)" fill="#8ed16f"/><ellipse cx="3.28" cy="1.23" rx="3.28" ry="1.23" transform="matrix(0.94, -0.34, 0.34, 0.94, 131.772, 30.896)" fill="#8ed16f"/><ellipse cx="3.28" cy="1.23" rx="3.28" ry="1.23" transform="matrix(0.94, -0.34, 0.34, 0.94, 131.772, 30.896)" opacity="0.3"/><path d="M416.846,210.083c-5.429,1.957-11.636-1.472-11.636-1.472s2.6-6.6,8.028-8.551,10.636-1.276,11.636,1.472S422.274,208.13,416.846,210.083Z" transform="translate(-280.893 -153.76)" fill="#8ed16f"/><ellipse cx="3.28" cy="1.23" rx="3.28" ry="1.23" transform="translate(130.572 51.088) rotate(-19.8)" fill="#8ed16f"/><ellipse cx="3.28" cy="1.23" rx="3.28" ry="1.23" transform="translate(130.572 51.088) rotate(-19.8)" opacity="0.3"/><path d="M431.756,264.953c-5.429,1.957-11.636-1.472-11.636-1.472s2.6-6.6,8.028-8.551,10.636-1.276,11.636,1.472S437.184,263.009,431.756,264.953Z" transform="translate(-289.46 -185.286)" fill="#8ed16f"/><ellipse cx="3.28" cy="1.23" rx="3.28" ry="1.23" transform="translate(136.916 74.442) rotate(-19.8)" fill="#8ed16f"/><ellipse cx="3.28" cy="1.23" rx="3.28" ry="1.23" transform="translate(136.916 74.442) rotate(-19.8)" opacity="0.3"/><path d="M422.056,315.133c-5.429,1.957-11.636-1.472-11.636-1.472s2.6-6.6,8.028-8.551,10.636-1.276,11.636,1.472S427.489,313.18,422.056,315.133Z" transform="translate(-283.886 -214.118)" fill="#8ed16f"/><ellipse cx="3.28" cy="1.23" rx="3.28" ry="1.23" transform="matrix(0.94, -0.34, 0.34, 0.94, 132.801, 95.435)" fill="#8ed16f"/><ellipse cx="3.28" cy="1.23" rx="3.28" ry="1.23" transform="matrix(0.94, -0.34, 0.34, 0.94, 132.801, 95.435)" opacity="0.3"/><path d="M372.009,175.342c4.008,4.152,11.091,3.829,11.091,3.829s.583-7.067-3.425-11.219-8.972-5.863-11.091-3.829S368,171.19,372.009,175.342Z" transform="translate(-259.302 -133.262)" fill="#8ed16f"/><ellipse cx="1.23" cy="3.28" rx="1.23" ry="3.28" transform="matrix(0.719, -0.695, 0.695, 0.719, 113.529, 36.741)" fill="#8ed16f"/><ellipse cx="1.23" cy="3.28" rx="1.23" ry="3.28" transform="matrix(0.719, -0.695, 0.695, 0.719, 113.529, 36.741)" opacity="0.3"/><path d="M366.6,330.332c4.008,4.152,11.091,3.829,11.091,3.829s.583-7.067-3.425-11.219-8.972-5.863-11.091-3.829S362.591,326.18,366.6,330.332Z" transform="translate(-256.193 -222.314)" fill="#8ed16f"/><ellipse cx="1.23" cy="3.28" rx="1.23" ry="3.28" transform="matrix(0.719, -0.695, 0.695, 0.719, 111.222, 102.685)" fill="#8ed16f"/><ellipse cx="1.23" cy="3.28" rx="1.23" ry="3.28" transform="matrix(0.719, -0.695, 0.695, 0.719, 111.222, 102.685)" opacity="0.3"/><path d="M375.183,230.972c5.165,2.578,11.729-.1,11.729-.1s-1.808-6.854-6.969-9.432-10.415-2.553-11.729.1S370.018,228.394,375.183,230.972Z" transform="translate(-259.464 -165.587)" fill="#8ed16f"/><ellipse cx="1.23" cy="3.28" rx="1.23" ry="3.28" transform="translate(114.698 60.065) rotate(-63.48)" fill="#8ed16f"/><ellipse cx="1.23" cy="3.28" rx="1.23" ry="3.28" transform="translate(114.698 60.065) rotate(-63.48)" opacity="0.3"/><path d="M380.274,285.542c5.165,2.578,11.729-.1,11.729-.1s-1.808-6.854-6.969-9.432-10.415-2.553-11.729.1S375.131,282.99,380.274,285.542Z" transform="translate(-262.39 -196.941)" fill="#8ed16f"/><ellipse cx="1.23" cy="3.28" rx="1.23" ry="3.28" transform="translate(116.866 83.284) rotate(-63.48)" fill="#8ed16f"/><ellipse cx="1.23" cy="3.28" rx="1.23" ry="3.28" transform="translate(116.866 83.284) rotate(-63.48)" opacity="0.3"/><path d="M196.08,249.21s30.032,30.032,13.078,74.6,29.062,118.672,29.062,118.672-.493-.072-1.408-.234c-61.688-10.887-92.32-81.433-58.03-133.838C191.515,288.92,202,266.066,196.08,249.21Z" transform="translate(-142.589 -182.642)" fill="#8ed16f"/><path d="M113,534.213s34.269-5.458,37.392,25.254,65.9,34.971,65.9,34.971-.425.281-1.178.783c-51.831,34.035-101.377,21.672-93.911-23.505C123.981,554.915,123.751,538.046,113,534.213Z" transform="translate(-113 -346.179)" fill="#8ed16f"/><g transform="translate(0 187.659)" opacity="0.3"><path d="M113,534.213s34.269-5.458,37.392,25.254,65.9,34.971,65.9,34.971-.425.281-1.178.783c-51.831,34.035-101.377,21.672-93.911-23.505C123.981,554.915,123.751,538.046,113,534.213Z" transform="translate(-113 -533.838)" fill="#fff"/></g><ellipse cx="9.423" cy="24.586" rx="9.423" ry="24.586" transform="translate(35.392 138.484)" fill="#8ed16f"/><ellipse cx="9.423" cy="24.586" rx="9.423" ry="24.586" transform="translate(35.392 138.484)" opacity="0.3"/><ellipse cx="6.352" cy="14.137" rx="6.352" ry="14.137" transform="translate(19.471 236.86) rotate(-45)" fill="#8ed16f"/><ellipse cx="6.352" cy="14.137" rx="6.352" ry="14.137" transform="translate(19.471 236.86) rotate(-45)" opacity="0.3"/><path d="M521.9,358.2H298.824a10.164,10.164,0,0,0-10.164,10.164v130.75a10.164,10.164,0,0,0,10.164,10.164H521.9a10.164,10.164,0,0,0,10.164-10.164V368.364A10.164,10.164,0,0,0,521.9,358.2Z" transform="translate(-213.928 -245.264)" fill="url(#a)"/><rect width="237.671" height="147.52" rx="24.81" transform="translate(77.596 114.715)" fill="#ff9350"/><rect width="237.671" height="27.045" transform="translate(77.596 140.53)" fill="#ff9350"/><rect width="237.671" height="27.045" transform="translate(77.596 140.53)" opacity="0.3"/><rect width="192.596" height="13.112" transform="translate(100.135 187.656)" fill="#d6d6e3"/><circle cx="18.851" cy="18.851" r="18.851" transform="translate(97.264 214.701)" fill="#ff9350"/><circle cx="18.851" cy="18.851" r="18.851" transform="translate(97.264 214.701)" opacity="0.3"/><path d="M822.187,235.9A4.127,4.127,0,0,0,824,238.2c3.91,2.582,12.41,2.034,13.431,2.034.217,0,.5.387.817,1.038a71.832,71.832,0,0,1,3.986,14.218c.208,2.472,2.506,14.039,6.267,18.349.115.132.23.255.34.37,3.688,3.706,8.015-.37,8.015-.37l.621-2.157c-.174.851-.37,1.842-.566,2.953-.1.557-.2,1.149-.289,1.757a67.327,67.327,0,0,0-.881,10.368,37.6,37.6,0,0,0,.162,3.778c.034.349.072.693.119,1.03a36.087,36.087,0,0,1,.281,4.612c-.034,9.155-2.37,20.544-2.37,20.544l.089-.03c-.055.285-.089.425-.089.425l.136-.043q-.1.634-.187,1.3c-.791,5.743-1.247,12.891-1.464,17.018a34.075,34.075,0,0,0,.289,6.518l4.152,29.232v13.614a24.036,24.036,0,0,0,.749,6.118c1.353,5.144.238,23.1-.387,31.614-.174,2.323-.311,3.948-.349,4.416v.14L857,427v.149a2.4,2.4,0,0,1,.553-.162c-1.646,2.553-4.629,6.773-6.922,7.483a7.262,7.262,0,0,0-3.459,2.293l-.06.081-.085.119a2.553,2.553,0,0,0-.5,1.3,1.442,1.442,0,0,1-.077-.251c-.174.949.4,1.817,2.187,2.238a14.721,14.721,0,0,0,3.169.255c6.211,0,17.234-1.91,18.451-3.965V429.45l.2.064v.064l.761.251,2.089-7.011c2.506-1.855.425-35.052,0-42.68-.383-6.952,3.918-34.605,4.68-39.476l-.1-.123.115-.71a3.021,3.021,0,0,1,.425.374,5.561,5.561,0,0,1,.651.961,12.861,12.861,0,0,1,.923,1.906c4.2,10.483,6.1,40.459,6.1,43.148v28.189a29.358,29.358,0,0,0,1.149,8.224,35.251,35.251,0,0,1,.893,4.28c.089.566.166,1.127.238,1.663s.145,1.149.2,1.651a3.449,3.449,0,0,0,.042.379.742.742,0,0,1,0,.174c.115,1.11.174,1.838.174,1.838a.426.426,0,0,1,.085-.166l.021.268a.574.574,0,0,1,.166-.264,4.032,4.032,0,0,1,.562-.46v3.582l-.1-.077v.617c4.331,3.267,11.38,4.254,16.792,4.216,3.51,0,6.352-.425,7.339-.919,1.412-.693.638-2.31-.647-3.548a4.853,4.853,0,0,0-3.114-1.608c-1.37.149-6.054-5.156-8.509-8.062l.277-.123.391-.17v-47s.63-18.558,2.506-36.911a65.3,65.3,0,0,0-3.212-27.381l-.06-.174.57.089c.6.094.927.149.927.149a3.532,3.532,0,0,0-.038-.425h.038s-.732-7.96-.74-17.958c0-11.334.957-25.152,4.918-32.971,2.28-4.5,3.042-8.083,2.978-10.908a11.41,11.41,0,0,0-2.038-6.977,5.53,5.53,0,0,0-2.344-1.855l-.081-.047h-.043a5.829,5.829,0,0,0-2.153-.425h-8.556a5.714,5.714,0,0,1-2.825-.745l-3.348-1.9a16.981,16.981,0,0,1-1.038-8.292c0-.225.042-.451.064-.672l.242-.255c.187-.2.362-.425.532-.617a4.73,4.73,0,0,1-.038.5c-.043.268-.115.425-.23.459,1.829-.238,3.871-.6,4.995-2.012.047-.055.089-.115.132-.174a9.119,9.119,0,0,0,.821-1.7,4.939,4.939,0,0,1,.625-1.14c.281-.366.647-.664.949-1.013l.051-.06c1.076-1.276,1.136-3.106,1.149-4.773.021-4.05-.1-8.509-2.808-11.546-2.251-2.527-5.841-3.484-9.249-3.595s-6.807.5-10.211.519c-2.314,0-5.105-.038-6.382,1.876-.625.94-.7,2.17-1.383,3.072-.391.519-.991.966-1.025,1.612a1.655,1.655,0,0,0,.221.851v.03a6.019,6.019,0,0,0,4.408,2.957,10.986,10.986,0,0,0-.851,1.174,11.181,11.181,0,0,0-1.7,5.956,6.973,6.973,0,0,0,.026.732,11.244,11.244,0,0,0,3.565,7.492c-.034.238-.068.476-.106.71l.077.068q.362.328.753.621l.094.072v.425a7.136,7.136,0,0,1-.026.74c-.026.242,0,.391-.026.587l-.055-.047-4.157-3.472-6.684-6.186s-16.711-12.163-17.549-6.382a4.165,4.165,0,0,0,.8,2.884c3.068,4.68,13.614,8.662,13.614,8.662a89.136,89.136,0,0,1,10.5,13.818c-.149.081-.3.157-.455.23-3.744,1.74-9.206,1-9.206,1-6.309.983-6.879,7.9-6.845,10.691v.579l-8.373-19.659-.026-.06a4.14,4.14,0,0,0-3.131-2.459C835.009,233.732,821.017,231.77,822.187,235.9Zm35.052,191.021a3.641,3.641,0,0,1,.37-.068l-.038.06Z" transform="translate(-520.432 -157.562)" fill="url(#b)"/><path d="M989.532,716.43s7.93,9.968,9.764,9.764,6.1,3.863,3.663,5.105-16.473,2.034-23.4-3.255v-7.969Z" transform="translate(-610.893 -451.089)" fill="#aca9c9"/><path d="M892.715,717.86s-4.68,8.339-7.93,9.36-6.1,4.68-1.829,5.7,19.528-1.221,20.949-3.663V718.468Z" transform="translate(-554.148 -451.911)" fill="#aca9c9"/><path d="M894.547,482.074l4.042,28.836v13.406a24.026,24.026,0,0,0,.732,6.033c1.319,5.075.234,22.782-.379,31.185-.2,2.74-.353,4.493-.353,4.493,2.642-1.221,13.831,2.642,13.831,2.642l1.132-3.85.9-3.063c2.442-1.829.425-34.575,0-42.118-.277-5.152,2.021-21.855,3.493-31.865.425-2.829.77-5.105.979-6.475.132-.851.2-1.323.2-1.323a4.454,4.454,0,0,1,1.1,1.323,12.744,12.744,0,0,1,.9,1.88c4.093,10.342,5.956,39.91,5.956,42.544v27.807a29.321,29.321,0,0,0,1.119,8.113,42.546,42.546,0,0,1,1.1,5.858c.289,2.208.425,3.986.425,3.986.2-1.221,12.814-6.713,12.814-6.713V518.4s.608-18.294,2.442-36.409a64.955,64.955,0,0,0-2.34-24.5c-.506-1.732-1.013-3.2-1.451-4.361-.745-1.978-1.276-3.072-1.276-3.072h-41.54c-.7.132-1.276,1.536-1.8,3.667-.34,1.429-.638,3.182-.9,5.105-.77,5.663-1.213,12.712-1.425,16.788a33.973,33.973,0,0,0,.294,6.454Z" transform="translate(-561.855 -298.043)" fill="#618fd8"/><g transform="translate(336.836 152.145)" opacity="0.1"><path d="M989.8,565.075V518.7s.608-18.294,2.442-36.409a63.427,63.427,0,0,0-5.105-31.933h.813a63.8,63.8,0,0,1,5.105,31.933c-1.808,18.1-2.442,36.409-2.442,36.409v46.373s-12.61,5.492-12.814,6.713a6.089,6.089,0,0,0-.064-.74C980.478,569.138,989.8,565.075,989.8,565.075Z" transform="translate(-946.677 -450.36)"/><path d="M905.859,722.326a3.159,3.159,0,0,0-1.119.23v-.2A7.271,7.271,0,0,1,905.859,722.326Z" transform="translate(-904.74 -606.615)"/><path d="M937.477,602.4c2.442-1.829.425-34.575,0-42.118s4.68-39.659,4.68-39.659a3.547,3.547,0,0,1,.7.723c-.749,4.8-4.935,32.082-4.565,38.936.425,7.526,2.442,40.272,0,42.118l-2.034,6.913-.74-.247Z" transform="translate(-922.425 -490.729)"/></g><path d="M863.06,298.5l-4.254,15.052s-4.476,4.254-8.134,0-5.914-15.66-6.135-18.1-3.459-15.052-4.68-15.052-13.423.813-14.848-4.254c-1.14-4.076,12.482-2.127,17.936-1.212a4.042,4.042,0,0,1,3.05,2.425l8.364,19.974S858.789,292.192,863.06,298.5Z" transform="translate(-522.055 -196.686)" fill="#f7c4a7"/><path d="M948.582,249.82s-5.288,14.848,1.425,20.136S926,276.669,926,276.669l4.169-3.965s2.948-11.7.915-21.459Z" transform="translate(-580.119 -182.993)" fill="#f7c4a7"/><path d="M923.462,293.444s5.39-1.323,5.39-2.744l4.778,2.744h12s8.747,4.88,1.425,19.528-4.067,50.627-4.067,50.627-26.033-4.68-47.594,2.442c0,0,3.255-16.069,2.034-25.22s2.034-21.965,2.034-21.965l1.829-7.73s-.1-7.232-7.628-3.561c0,0-1.119-10.474,6.611-11.7,0,0,8.934,1.221,11.593-3.255C911.868,292.631,917.769,296.09,923.462,293.444Z" transform="translate(-561.508 -206.481)" opacity="0.1"/><path d="M923.461,292.494s5.39-1.323,5.39-2.744l3.5,2.012a5.531,5.531,0,0,0,2.748.732H943.5a5.531,5.531,0,0,1,4.5,2.289c1.927,2.71,3.655,8.054-.936,17.239-7.322,14.644-4.067,50.627-4.067,50.627s-26.032-4.68-47.594,2.442c0,0,3.255-16.069,2.034-25.22s2.034-21.936,2.034-21.936l1.829-7.73s-.1-7.232-7.628-3.561c0,0-1.089-10.185,6.292-11.64a2.083,2.083,0,0,1,.625-.043c1.578.166,8.934.7,11.291-3.289C911.868,291.677,917.769,295.136,923.461,292.494Z" transform="translate(-561.508 -205.935)" fill="#e14b5a"/><path d="M967.84,318.109s-6.509,4.067-17.086,0c0,0-11.593-4.254-15.256-12.61S954,306.924,954,306.924s4.68,0,6.1-1.017S971.5,313.634,967.84,318.109Z" transform="translate(-585.342 -213.044)" opacity="0.1"/><path d="M932.91,279.666s-6.509,4.067-17.086,0c0,0-11.593-4.254-15.256-12.61s-12.2-17.507-12.2-17.507-14.848-5.7-14.039-11.389,17.086,6.3,17.086,6.3l6.509,6.1,21.153,17.9s4.68,0,6.1-1.017S936.568,275.19,932.91,279.666Z" transform="translate(-550.412 -175.413)" fill="#f7c4a7"/><path d="M937.49,252.675l17.49-1.425a40.148,40.148,0,0,0-1.825,8.283,11.176,11.176,0,0,1-15.656.425,19.88,19.88,0,0,0-.008-7.284Z" transform="translate(-586.721 -183.814)" opacity="0.1"/><circle cx="11.185" cy="11.185" r="11.185" transform="translate(347.416 56.153)" fill="#f7c4a7"/><path d="M944.182,229.955c-.655-1.081.676-2.489.238-3.672-.4-1.089-2.012-1.276-2.553-2.293-.425-.821,0-1.829-.17-2.736A2.81,2.81,0,0,0,939,219.3a9.625,9.625,0,0,0-3.484.77,13.377,13.377,0,0,1-5.739.885,6.018,6.018,0,0,1-4.739-3.008,1.7,1.7,0,0,1-.217-.825c.034-.638.621-1.076,1-1.587.664-.889.74-2.1,1.344-3.029,1.234-1.889,3.944-1.842,6.2-1.851,3.318,0,6.62-.621,9.938-.511s6.807,1.051,9.006,3.544c2.638,3,2.757,7.39,2.736,11.389,0,1.646-.068,3.438-1.119,4.71-.306.37-.681.676-.974,1.055-.638.851-.808,1.94-1.408,2.8-1.064,1.536-3.14,1.91-4.99,2.157.545-.072.094-3.718,0-4.054C946.194,230.07,945.807,230.1,944.182,229.955Z" transform="translate(-579.441 -160.188)" opacity="0.1"/><path d="M944.182,229c-.655-1.081.676-2.489.238-3.672-.4-1.089-2.012-1.276-2.553-2.293-.425-.821,0-1.829-.17-2.736a2.81,2.81,0,0,0-2.7-1.957,9.625,9.625,0,0,0-3.484.77,13.377,13.377,0,0,1-5.739.885,6.018,6.018,0,0,1-4.739-3.008,1.7,1.7,0,0,1-.217-.825c.034-.638.621-1.076,1-1.587.664-.889.74-2.1,1.344-3.029,1.234-1.889,3.944-1.842,6.2-1.851,3.318,0,6.62-.621,9.938-.511s6.807,1.051,9.006,3.544c2.638,3,2.757,7.39,2.736,11.389,0,1.646-.068,3.438-1.119,4.71-.306.37-.681.676-.974,1.055-.638.851-.808,1.94-1.408,2.8-1.064,1.536-3.14,1.91-4.99,2.157.545-.072.094-3.718,0-4.054C946.194,229.1,945.807,229.149,944.182,229Z" transform="translate(-579.441 -159.642)" fill="#281c1c"/><path d="M997.435,320.881s-5.492-14.239-9.764-14.644,8.134,0,8.134,0l4.067,7.322Z" transform="translate(-615.039 -215.305)" opacity="0.1"/><path d="M998.4,320.881s-5.492-14.239-9.764-14.644,8.134,0,8.134,0l4.067,7.322Z" transform="translate(-615.591 -215.305)" fill="#e14b5a"/><path d="M976.65,718.027c.289,2.208.425,3.986.425,3.986.2-1.221,12.814-6.713,12.814-6.713v-3.306a5.608,5.608,0,0,0-.961.047,18.144,18.144,0,0,0-6.807,2.782A62.086,62.086,0,0,1,976.65,718.027Z" transform="translate(-609.221 -448.539)" fill="#618fd8"/><path d="M976.65,718.027c.289,2.208.425,3.986.425,3.986.2-1.221,12.814-6.713,12.814-6.713v-3.306a5.608,5.608,0,0,0-.961.047,18.144,18.144,0,0,0-6.807,2.782A62.086,62.086,0,0,1,976.65,718.027Z" transform="translate(-609.221 -448.539)" opacity="0.3"/><path d="M904.5,716.212c2.642-1.221,13.831,2.642,13.831,2.642l1.132-3.85c-1.953-.4-3.893-.889-5.8-1.476a19.3,19.3,0,0,1-2.6-.961,17.454,17.454,0,0,0-1.736-.808,9.005,9.005,0,0,0-4.476-.038C904.653,714.459,904.5,716.212,904.5,716.212Z" transform="translate(-567.766 -448.229)" fill="#618fd8"/><path d="M904.5,716.212c2.642-1.221,13.831,2.642,13.831,2.642l1.132-3.85c-1.953-.4-3.893-.889-5.8-1.476a19.3,19.3,0,0,1-2.6-.961,17.454,17.454,0,0,0-1.736-.808,9.005,9.005,0,0,0-4.476-.038C904.653,714.459,904.5,716.212,904.5,716.212Z" transform="translate(-567.766 -448.229)" opacity="0.3"/><path d="M1002.7,745.495a1.217,1.217,0,0,0,.7-.808,1.2,1.2,0,0,1-.7,1.417c-2.442,1.221-16.473,2.034-23.4-3.255v-.608C986.226,747.528,1000.257,746.716,1002.7,745.495Z" transform="translate(-610.744 -465.919)" fill="#fff" opacity="0.4"/><path d="M882.706,746.853c4.254,1.017,19.528-1.221,20.948-3.663v.608c-1.425,2.442-16.677,4.68-20.948,3.663-1.744-.425-2.3-1.276-2.127-2.208C880.715,745.943,881.353,746.513,882.706,746.853Z" transform="translate(-554.005 -466.465)" fill="#fff" opacity="0.4"/><path d="M920.5,402.675s-4.476-1.425-5.7,0-11.657,4.765-11.657,4.765" transform="translate(-566.991 -270.453)" opacity="0.1"/><rect width="21.761" height="0.459" transform="translate(324.634 76.336) rotate(180)" fill="#8ed16f"/><rect width="21.761" height="0.459" transform="translate(324.634 76.795) rotate(180)" fill="#8ed16f"/><rect width="21.761" height="0.459" transform="translate(324.634 76.795) rotate(180)" opacity="0.1"/><rect width="21.761" height="0.459" transform="translate(324.634 77.255) rotate(180)" fill="#8ed16f"/><rect width="21.761" height="0.459" transform="translate(324.634 77.71) rotate(180)" fill="#8ed16f"/><rect width="21.761" height="0.459" transform="translate(324.634 77.71) rotate(180)" opacity="0.1"/><rect width="21.761" height="0.459" transform="translate(324.634 78.17) rotate(180)" fill="#8ed16f"/><rect width="21.761" height="0.459" transform="translate(324.634 78.625) rotate(180)" fill="#8ed16f"/><rect width="21.761" height="0.459" transform="translate(324.634 78.625) rotate(180)" opacity="0.1"/><rect width="21.761" height="0.459" transform="translate(324.634 79.084) rotate(180)" fill="#8ed16f"/><rect width="21.761" height="0.459" transform="translate(324.634 79.539) rotate(180)" fill="#8ed16f"/><rect width="21.761" height="0.459" transform="translate(324.634 79.539) rotate(180)" opacity="0.1"/><rect width="21.761" height="0.459" transform="translate(324.634 72.677) rotate(180)" fill="#8ed16f"/><rect width="21.761" height="0.459" transform="matrix(-0.769, -0.639, 0.639, -0.769, 334.997, 75.714)" fill="#8ed16f"/><rect width="21.761" height="0.459" transform="matrix(-0.769, -0.639, 0.639, -0.769, 319.743, 68.393)" fill="#8ed16f"/><rect width="21.761" height="0.459" transform="translate(324.634 73.132) rotate(180)" fill="#8ed16f"/><rect width="21.761" height="0.459" transform="translate(324.634 73.132) rotate(180)" opacity="0.1"/><rect width="21.761" height="0.459" transform="translate(324.634 73.596) rotate(180)" fill="#8ed16f"/><rect width="21.761" height="0.459" transform="translate(324.634 74.051) rotate(180)" fill="#8ed16f"/><rect width="21.761" height="0.459" transform="translate(324.634 74.051) rotate(180)" opacity="0.1"/><rect width="21.761" height="0.459" transform="translate(324.634 74.507) rotate(180)" fill="#8ed16f"/><rect width="21.761" height="0.459" transform="translate(324.634 74.966) rotate(180)" fill="#8ed16f"/><rect width="21.761" height="0.459" transform="translate(324.634 74.966) rotate(180)" opacity="0.1"/><rect width="21.761" height="0.459" transform="translate(324.634 75.421) rotate(180)" fill="#8ed16f"/><rect width="21.761" height="0.459" transform="translate(324.634 75.881) rotate(180)" fill="#8ed16f"/><rect width="21.761" height="0.459" transform="translate(324.634 75.881) rotate(180)" opacity="0.1"/><rect width="7.93" height="15.456" transform="translate(307.912 95.168) rotate(-169.48)" fill="#8ed16f"/><ellipse cx="3.255" cy="1.625" rx="3.255" ry="1.625" transform="translate(303.341 89.798) rotate(-79.48)" fill="#8ed16f"/><ellipse cx="3.255" cy="1.625" rx="3.255" ry="1.625" transform="translate(303.341 89.798) rotate(-79.48)" opacity="0.1"/><rect width="7.93" height="15.456" transform="translate(309.246 127.243) rotate(-169.48)" fill="#8ed16f"/><ellipse cx="3.255" cy="1.625" rx="3.255" ry="1.625" transform="translate(304.671 121.87) rotate(-79.48)" fill="#8ed16f"/><ellipse cx="3.255" cy="1.625" rx="3.255" ry="1.625" transform="translate(304.671 121.87) rotate(-79.48)" opacity="0.1"/><rect width="7.93" height="15.456" transform="matrix(0.476, -0.879, 0.879, 0.476, 269.474, 53.931)" fill="#8ed16f"/><ellipse cx="1.629" cy="3.262" rx="1.629" ry="3.262" transform="translate(275.838 54.288) rotate(-61.39)" fill="#8ed16f"/><ellipse cx="1.629" cy="3.262" rx="1.629" ry="3.262" transform="translate(275.838 54.288) rotate(-61.39)" opacity="0.1"/><rect width="7.93" height="15.456" transform="matrix(0.476, -0.879, 0.879, 0.476, 239.626, 191.569)" fill="#8ed16f"/><ellipse cx="1.625" cy="3.255" rx="1.625" ry="3.255" transform="matrix(0.476, -0.879, 0.879, 0.476, 244.63, 191.734)" fill="#8ed16f"/><ellipse cx="1.625" cy="3.255" rx="1.625" ry="3.255" transform="matrix(0.476, -0.879, 0.879, 0.476, 244.63, 191.734)" opacity="0.1"/><rect width="7.93" height="15.456" transform="matrix(0.476, -0.879, 0.879, 0.476, 221.364, 77.985)" fill="#8ed16f"/><ellipse cx="1.625" cy="3.255" rx="1.625" ry="3.255" transform="matrix(0.476, -0.879, 0.879, 0.476, 226.364, 78.143)" fill="#8ed16f"/><ellipse cx="1.625" cy="3.255" rx="1.625" ry="3.255" transform="matrix(0.476, -0.879, 0.879, 0.476, 226.364, 78.143)" opacity="0.1"/><rect width="7.93" height="15.456" transform="matrix(0.476, -0.879, 0.879, 0.476, 244.252, 53.929)" fill="#8ed16f"/><ellipse cx="1.625" cy="3.255" rx="1.625" ry="3.255" transform="matrix(0.476, -0.879, 0.879, 0.476, 249.253, 54.087)" fill="#8ed16f"/><ellipse cx="1.625" cy="3.255" rx="1.625" ry="3.255" transform="matrix(0.476, -0.879, 0.879, 0.476, 249.253, 54.087)" opacity="0.1"/><rect width="7.93" height="15.456" transform="matrix(0.994, -0.109, 0.109, 0.994, 262.997, 76.202)" fill="#8ed16f"/><ellipse cx="1.625" cy="3.255" rx="1.625" ry="3.255" transform="matrix(0.994, -0.109, 0.109, 0.994, 265.705, 80.408)" fill="#8ed16f"/><ellipse cx="1.625" cy="3.255" rx="1.625" ry="3.255" transform="matrix(0.994, -0.109, 0.109, 0.994, 265.705, 80.408)" opacity="0.1"/><rect width="7.93" height="15.456" transform="matrix(0.994, -0.109, 0.109, 0.994, 317.045, 160.336)" fill="#8ed16f"/><ellipse cx="1.625" cy="3.255" rx="1.625" ry="3.255" transform="matrix(0.994, -0.109, 0.109, 0.994, 319.757, 164.542)" fill="#8ed16f"/><ellipse cx="1.625" cy="3.255" rx="1.625" ry="3.255" transform="matrix(0.994, -0.109, 0.109, 0.994, 319.757, 164.542)" opacity="0.1"/><rect width="7.93" height="15.456" transform="matrix(0.476, -0.879, 0.879, 0.476, 236.236, 114.952)" fill="#8ed16f"/><ellipse cx="1.625" cy="3.255" rx="1.625" ry="3.255" transform="matrix(0.476, -0.879, 0.879, 0.476, 241.233, 115.116)" fill="#8ed16f"/><ellipse cx="1.625" cy="3.255" rx="1.625" ry="3.255" transform="matrix(0.476, -0.879, 0.879, 0.476, 241.233, 115.116)" opacity="0.1"/><rect width="7.93" height="15.456" transform="matrix(0.476, -0.879, 0.879, 0.476, 201.933, 105.155)" fill="#8ed16f"/><ellipse cx="1.629" cy="3.262" rx="1.629" ry="3.262" transform="translate(208.053 105.756) rotate(-61.39)" fill="#8ed16f"/><ellipse cx="1.629" cy="3.262" rx="1.629" ry="3.262" transform="translate(208.053 105.756) rotate(-61.39)" opacity="0.1"/><rect width="7.93" height="15.456" transform="matrix(0.476, -0.879, 0.879, 0.476, 190.946, 270.1)" fill="#8ed16f"/><ellipse cx="1.625" cy="3.255" rx="1.625" ry="3.255" transform="matrix(0.476, -0.879, 0.879, 0.476, 195.946, 270.26)" fill="#8ed16f"/><ellipse cx="1.625" cy="3.255" rx="1.625" ry="3.255" transform="matrix(0.476, -0.879, 0.879, 0.476, 195.946, 270.26)" opacity="0.1"/><rect width="7.93" height="15.456" transform="translate(183.385 273.612) rotate(-79.49)" fill="#8ed16f"/><rect width="7.93" height="15.456" transform="translate(183.385 273.612) rotate(-79.49)" opacity="0.05"/><ellipse cx="1.625" cy="3.255" rx="1.625" ry="3.255" transform="translate(188.195 272.226) rotate(-79.49)" fill="#8ed16f"/><ellipse cx="1.625" cy="3.255" rx="1.625" ry="3.255" transform="translate(188.195 272.226) rotate(-79.49)" opacity="0.1"/><rect width="7.93" height="15.456" transform="translate(184.809 278.288) rotate(-79.49)" fill="#8ed16f"/><ellipse cx="1.625" cy="3.255" rx="1.625" ry="3.255" transform="translate(189.614 276.902) rotate(-79.49)" fill="#8ed16f"/><ellipse cx="1.625" cy="3.255" rx="1.625" ry="3.255" transform="translate(189.614 276.902) rotate(-79.49)" opacity="0.1"/><rect width="7.93" height="15.456" transform="matrix(0.476, -0.879, 0.879, 0.476, 206.981, 290.146)" fill="#8ed16f"/><ellipse cx="1.625" cy="3.255" rx="1.625" ry="3.255" transform="matrix(0.476, -0.879, 0.879, 0.476, 211.985, 290.306)" fill="#8ed16f"/><ellipse cx="1.625" cy="3.255" rx="1.625" ry="3.255" transform="matrix(0.476, -0.879, 0.879, 0.476, 211.985, 290.306)" opacity="0.1"/><rect width="7.93" height="15.456" transform="translate(199.422 293.653) rotate(-79.49)" fill="#8ed16f"/><rect width="7.93" height="15.456" transform="translate(199.422 293.653) rotate(-79.49)" opacity="0.05"/><ellipse cx="1.625" cy="3.255" rx="1.625" ry="3.255" transform="translate(204.228 292.267) rotate(-79.49)" fill="#8ed16f"/><ellipse cx="1.625" cy="3.255" rx="1.625" ry="3.255" transform="translate(204.228 292.267) rotate(-79.49)" opacity="0.1"/><rect width="7.93" height="15.456" transform="translate(200.845 298.334) rotate(-79.49)" fill="#8ed16f"/><ellipse cx="1.625" cy="3.255" rx="1.625" ry="3.255" transform="translate(205.655 296.948) rotate(-79.49)" fill="#8ed16f"/><ellipse cx="1.625" cy="3.255" rx="1.625" ry="3.255" transform="translate(205.655 296.948) rotate(-79.49)" opacity="0.1"/><rect width="7.93" height="15.456" transform="matrix(0.476, -0.879, 0.879, 0.476, 231.038, 277.227)" fill="#8ed16f"/><ellipse cx="1.625" cy="3.255" rx="1.625" ry="3.255" transform="matrix(0.476, -0.879, 0.879, 0.476, 236.034, 277.385)" fill="#8ed16f"/><ellipse cx="1.625" cy="3.255" rx="1.625" ry="3.255" transform="matrix(0.476, -0.879, 0.879, 0.476, 236.034, 277.385)" opacity="0.1"/><rect width="7.93" height="15.456" transform="translate(223.478 280.737) rotate(-79.49)" fill="#8ed16f"/><rect width="7.93" height="15.456" transform="translate(223.478 280.737) rotate(-79.49)" opacity="0.05"/><ellipse cx="1.625" cy="3.255" rx="1.625" ry="3.255" transform="translate(228.283 279.351) rotate(-79.49)" fill="#8ed16f"/><ellipse cx="1.625" cy="3.255" rx="1.625" ry="3.255" transform="translate(228.283 279.351) rotate(-79.49)" opacity="0.1"/><rect width="7.93" height="15.456" transform="translate(224.901 285.417) rotate(-79.49)" fill="#8ed16f"/><ellipse cx="1.625" cy="3.255" rx="1.625" ry="3.255" transform="translate(229.711 284.032) rotate(-79.49)" fill="#8ed16f"/><ellipse cx="1.625" cy="3.255" rx="1.625" ry="3.255" transform="translate(229.711 284.032) rotate(-79.49)" opacity="0.1"/></svg>