<svg xmlns="http://www.w3.org/2000/svg" width="473.169" height="376.999" viewBox="0 0 473.169 376.999"><circle cx="15.235" cy="15.235" r="15.235" transform="translate(339.734 11.884)" fill="#2f2e41"/><path d="M829.253,116.367s-2.2,27.751-4.848,27.751,30.851-1.306,30.851-1.306-14.1-18.283-7.052-24.16S829.253,116.367,829.253,116.367Z" transform="translate(-485.05 -79.952)" fill="#9f616a"/><path d="M829.253,116.367s-2.2,27.751-4.848,27.751,30.851-1.306,30.851-1.306-14.1-18.283-7.052-24.16S829.253,116.367,829.253,116.367Z" transform="translate(-485.05 -79.952)" opacity="0.1"/><path d="M543.461,500.9a132.479,132.479,0,1,1,93.676-38.8A132.479,132.479,0,0,1,543.461,500.9Zm0-263.583c-72.292,0-131.105,58.814-131.105,131.105s58.814,131.105,131.105,131.105,131.105-58.814,131.105-131.105S615.753,237.32,543.461,237.32Z" transform="translate(-260.887 -145.393)" fill="#3f3d56"/><path d="M847.491,250.335l-15.4,4.407,21.511-.981a18.941,18.941,0,0,1,13.28,4.468c3.832,3.318,6.921,8.58,3.947,16.36a201.082,201.082,0,0,1-15.1,30.2l-5.949,11.44s-12.356,1.83-12.813-1.83,0-5.491,2.288-7.322a11.209,11.209,0,0,0,3.661-7.322c0-1.83-.458-3.661.915-4.576s1.83-2.288,1.83-5.034,7.938-14.813,7.938-14.813-16.633-5.779-23.8-.915-21.667,26.253-21.667,26.253a13.771,13.771,0,0,0-2.365,3.36,11.876,11.876,0,0,1-2.991,3.72c-1.331,1.169-.105,4.391.322,4.818.458.458,5.034,18.762,5.034,18.762s5.034,8.695-.458,9.152-10.525.915-10.983,0a24.864,24.864,0,0,0-1.83-3.661c-1.373-2.288,0-7.322,0-7.322s-13.271-16.932-9.152-27.457,12.813-34.321,12.813-34.321l13.271-5.491,24.253-8.695Z" transform="translate(-463.715 -153.204)" fill="#2f2e41"/><path d="M683.4,121.547l-18.762-3.661s-4.576-15.559-10.067-13.728,3.661,17.389,3.661,17.389l26.084,11.9Z" transform="translate(-392.064 -73.838)" fill="#a0616a"/><path d="M957.263,176.335,965.5,186.86s11.9-.458,8.237,5.949-11.9,2.746-12.355,1.373-13.728-13.271-13.728-13.271Z" transform="translate(-551.979 -113.067)" fill="#a0616a"/><path d="M784.963,140l-11.9,9.152-7.322-10.983L709,134.965v18.762c13.964-4.032,26.818-5.281,37.066,0,12.971,17.272,15.825,36.028,7.62,56.406l66.97-23.458c-20.072-7.474-29.39-18.31-26.541-32.948l23.338,8.237,14.186-10.525C818.954,142.9,800.074,137.549,784.963,140Z" transform="translate(-422.536 -90.629)" fill="#ff9350"/><ellipse cx="236.584" cy="17.847" rx="236.584" ry="17.847" transform="translate(0 341.305)" fill="#3f3d56"/><ellipse cx="159.935" cy="11.898" rx="159.935" ry="11.898" transform="translate(10.525 346.797)" opacity="0.1"/><path d="M1017.938,742.594c-1.524,13.358,6.688,25.265,6.688,25.265s10.683-9.75,12.208-23.108-6.687-25.265-6.687-25.265S1019.463,729.237,1017.938,742.594Z" transform="translate(-589.999 -407.667)" fill="#2f2e41"/><path d="M1006.971,746.75c5.495,12.27,1.27,26.1,1.27,26.1s-13.133-6.061-18.628-18.331-1.27-26.1-1.27-26.1S1001.477,734.48,1006.971,746.75Z" transform="translate(-573.208 -412.512)" fill="#ff9350"/><circle cx="51.278" cy="51.278" r="51.278" transform="translate(234.984 255.892)" fill="#f2f2f2"/><path d="M396.381,479.677l-12.632,31.581-45.678.366-14.881.12-35.313.284-14.874.12-35.313.284-14.874.12-35.313.291-14.874.12-23.837.19-4.611-9.436L138.2,491.495l-3.3-6.765L133,479.677l11.337-35.907a17.31,17.31,0,0,1,16.5-12.1H367.113a17.314,17.314,0,0,1,16.3,11.508l1.314,3.7Z" transform="translate(-110.12 -251.561)" fill="#ff9350"/><rect width="263.381" height="66.319" transform="translate(22.881 228.117)" fill="#ff9350"/><rect width="263.381" height="66.319" transform="translate(22.881 228.117)" opacity="0.1"/><rect width="7.769" height="7.769" transform="translate(282.377 137.021)" fill="#3f3d56"/><rect width="7.769" height="7.769" transform="translate(303.355 303.285)" fill="#3f3d56"/><rect width="168.64" height="212.221" transform="translate(69.935 142.533)" fill="#f2f2f2"/><rect width="49.266" height="6.948" transform="translate(105.306 157.692)" fill="#3f3d56"/><rect width="148.428" height="3.158" transform="translate(79.41 186.114)" fill="#e6e6e6"/><rect width="148.428" height="3.158" transform="translate(79.41 196.22)" fill="#e6e6e6"/><rect width="148.428" height="3.158" transform="translate(79.41 206.326)" fill="#e6e6e6"/><rect width="148.428" height="3.158" transform="translate(79.41 216.431)" fill="#e6e6e6"/><rect width="148.428" height="3.158" transform="translate(79.41 226.537)" fill="#e6e6e6"/><rect width="148.428" height="3.158" transform="translate(79.41 236.643)" fill="#e6e6e6"/><path d="M257.607,384.828a10.737,10.737,0,1,1,10.737-10.737A10.737,10.737,0,0,1,257.607,384.828Zm0-20.212a9.474,9.474,0,1,0,9.474,9.474A9.474,9.474,0,0,0,257.607,364.617Z" transform="translate(-171.881 -214.504)" fill="#ff9350"/><path d="M313.382,630.5H50V498.495l34.107,26.528,196.431-1.263,32.844-25.264Z" transform="translate(-27.12 -270.379)" fill="#3f3d56"/><rect width="49.266" height="6.948" transform="translate(36.46 329.49)" fill="#f2f2f2"/><path d="M212.664,716.574a5.491,5.491,0,1,1,5.491-5.491,5.491,5.491,0,0,1-5.491,5.491Zm0-10.067a4.576,4.576,0,1,0,4.576,4.576A4.576,4.576,0,0,0,212.664,706.507Z" transform="translate(-150.35 -400.131)" fill="#fff"/><path d="M906.255,388.853s2.746,10.525,3.661,10.983,10.983,9.152,4.119,10.525-11.9.915-13.271-.458-.915-2.746-3.2-3.2-6.406-1.83-5.949-5.034,2.746-11.9,4.119-12.813S906.255,388.853,906.255,388.853Z" transform="translate(-521.563 -228.114)" fill="#2f2e41"/><path d="M815.489,440.335s4.119,3.2,1.831,9.152-5.491,12.355-5.491,12.355-3.661,11.44-9.61,9.61c-2.417-.744-3.625-2.771-4.208-4.917a11.759,11.759,0,0,1,1.662-9.568l3.461-5.192,3.661-9.61Z" transform="translate(-470.61 -256.258)" fill="#2f2e41"/><path d="M787.27,489.821c8.2,0,18.352-2.717,28.243-12.54,24.212-24.047,47.215-26.459,47.444-26.48l-.085-.912c-.233.022-23.562,2.467-48,26.742-12.56,12.474-25.523,13.238-34.187,11.682a42.722,42.722,0,0,1-16.016-6.455l-.541.738a43.677,43.677,0,0,0,16.359,6.611A38.214,38.214,0,0,0,787.27,489.821Z" transform="translate(-452.435 -261.441)" fill="#2f2e41"/><circle cx="5.491" cy="5.491" r="5.491" transform="translate(392.699 197.576)" fill="#2f2e41"/><circle cx="5.491" cy="5.491" r="5.491" transform="translate(353.802 223.202)" fill="#2f2e41"/><circle cx="10.981" cy="10.981" r="10.981" transform="translate(342.755 24.766)" fill="#a0616a"/><path d="M868.607,38.078a8.327,8.327,0,0,1-4.805,3.3c-3.36.9-.027,5.949-.027,5.949a3.11,3.11,0,0,1,.536-3.781C866.059,41.606,868.872,40.276,868.607,38.078Z" transform="translate(-505.685 -38.078)" fill="#2f2e41"/><circle cx="4.246" cy="4.246" r="4.246" transform="translate(353.248 6.218)" fill="#2f2e41"/><path d="M861.617,63.4a30.058,30.058,0,0,0-12.19-1.519l.407-2.969c2.851,1.473,8.588,2.166,12.19,1.519Z" transform="translate(-498.703 -49.379)" fill="#3f3d56"/><path d="M836.992,76.044a25,25,0,0,1-14.425,9.917c-10.087,2.7-.082,17.86-.082,17.86s-3.638-5.512,1.609-11.35S837.786,82.643,836.992,76.044Z" transform="translate(-481.69 -58.671)" fill="#2f2e41"/><path d="M860.055,75.086S864.222,85,868.8,85.934s4.228,16.6-2.927,18.946c0,0,5.217-9.181.758-15.338S859.352,78.518,860.055,75.086Z" transform="translate(-504.408 -58.151)" fill="#2f2e41"/></svg>